<svg xmlns="http://www.w3.org/2000/svg" width="306" height="259.407" viewBox="0 0 306 259.407">
  <g id="Grupo_116519" data-name="Grupo 116519" transform="translate(-1053 -9616)">
    <g id="Capa_1" data-name="Capa 1" transform="translate(1072 9651.422)">
      <g id="Focus_groups" data-name="Focus groups" transform="translate(-19 -9.269)">
        <path id="Trazado_168936" data-name="Trazado 168936" d="M303.543,178.419C283.964,225.758,136.1,258.229,55.324,207.97,30.984,192.829,5.96,165.875.9,131.689c-3.936-26.645,5.862-48.07,12.484-59.256A121.07,121.07,0,0,1,44,38.553c12.578-9.677,27.512-17.568,43.375-23.8a200.946,200.946,0,0,1,45.09-11.711A302.677,302.677,0,0,1,175.678,0a259.622,259.622,0,0,1,42.845,3.308c12.376,2.076,24.71,5.253,35.427,10.506,6.607,3.238,12.587,7.334,16.87,12.39,11.786,13.927-16.9,17.353-4.3,48.675,13.847,34.42,34.434,44.054,38.342,76.473,1.232,10.192,2.231,18.477-1.321,27.062Z" transform="translate(0 0)" fill="#dce736" opacity="0.503"/>
      </g>
    </g>
    <g id="Capa_1-2" data-name="Capa 1" transform="translate(1020.113 9638.177)">
      <g id="Grupo_116363" data-name="Grupo 116363" transform="translate(0 -0.003)">
        <g id="Grupo_116317" data-name="Grupo 116317" transform="translate(53.19 10.935)">
          <path id="Trazado_171032" data-name="Trazado 171032" d="M479.441,176.036a.57.57,0,0,1-.544-.409c-.2-.688-.423-1.4-.673-2.112a.565.565,0,0,1,1.063-.38c.26.736.5,1.467.7,2.179a.558.558,0,0,1-.544.717Z" transform="translate(-301.343 -100.587)" fill="#a9bce6"/>
          <path id="Trazado_171033" data-name="Trazado 171033" d="M293.187,91.944a.565.565,0,0,1-.51-.322c-.606-1.27-1.3-2.574-2.064-3.877a.563.563,0,1,1,.972-.568c.779,1.333,1.486,2.66,2.107,3.959a.564.564,0,0,1-.265.75.552.552,0,0,1-.241.058Zm-4.455-7.668a.565.565,0,0,1-.467-.245c-.8-1.174-1.664-2.376-2.578-3.574a.563.563,0,0,1,.895-.683c.928,1.212,1.8,2.434,2.617,3.627a.569.569,0,0,1-.149.784.547.547,0,0,1-.318.1Zm-5.378-7.057a.568.568,0,0,1-.433-.2c-.933-1.1-1.915-2.218-2.925-3.31a.565.565,0,0,1,.832-.765c1.02,1.106,2.016,2.232,2.954,3.348a.566.566,0,0,1-.433.928Zm-6.013-6.533a.56.56,0,0,1-.4-.164c-1.029-1.029-2.1-2.064-3.18-3.069a.565.565,0,1,1,.77-.827c1.092,1.015,2.17,2.059,3.209,3.1a.563.563,0,0,1-.4.962Zm-71.985-5.157a.364.364,0,0,1-.072,0,9.856,9.856,0,0,1-4.334-1.722.563.563,0,1,1,.645-.924,8.67,8.67,0,0,0,3.834,1.525.565.565,0,0,1-.072,1.126Zm4.33-.64a.557.557,0,0,1-.51-.327.566.566,0,0,1,.274-.75,8.26,8.26,0,0,0,2.91-2.314c.087-.106.168-.212.25-.322a.564.564,0,0,1,.9.673c-.091.12-.188.245-.284.361a9.453,9.453,0,0,1-3.31,2.622.6.6,0,0,1-.236.053Zm61.162-.255a.548.548,0,0,1-.37-.14c-1.1-.952-2.237-1.91-3.382-2.838a.564.564,0,1,1,.712-.876c1.155.938,2.3,1.9,3.411,2.862a.563.563,0,0,1,.058.794.557.557,0,0,1-.428.192Zm-72.529-3.983a.558.558,0,0,1-.491-.289,9.966,9.966,0,0,1-1.3-4.474.564.564,0,1,1,1.126-.058,8.872,8.872,0,0,0,1.155,3.969.566.566,0,0,1-.212.77.574.574,0,0,1-.279.072Zm65.64-1.607a.573.573,0,0,1-.342-.115c-1.174-.89-2.376-1.77-3.574-2.612a.563.563,0,1,1,.649-.919c1.207.851,2.42,1.737,3.6,2.631a.561.561,0,0,1-.342,1.01Zm-49.193-1.015a.327.327,0,0,1-.1-.01.562.562,0,0,1-.462-.649,11.25,11.25,0,0,0,.154-1.871,13.9,13.9,0,0,0-.207-2.352.563.563,0,0,1,1.111-.188,15.115,15.115,0,0,1,.221,2.54,12.474,12.474,0,0,1-.168,2.059.566.566,0,0,1-.553.471Zm41.934-4.1a.56.56,0,0,1-.308-.091c-1.236-.808-2.492-1.6-3.738-2.357a.564.564,0,0,1,.582-.967c1.256.76,2.526,1.559,3.771,2.376a.565.565,0,0,1,.164.779.571.571,0,0,1-.471.255ZM197.865,52.1a.555.555,0,0,1-.212-.043.567.567,0,0,1-.313-.736,14.724,14.724,0,0,1,2.405-3.911.563.563,0,0,1,.861.726,13.543,13.543,0,0,0-2.222,3.613.557.557,0,0,1-.524.351Zm15.605-2.732a.574.574,0,0,1-.524-.351,28.249,28.249,0,0,0-1.958-3.882.564.564,0,0,1,.967-.582,29.129,29.129,0,0,1,2.035,4.036.567.567,0,0,1-.308.736.538.538,0,0,1-.212.043Zm35.632-.034a.57.57,0,0,1-.274-.072c-1.3-.722-2.617-1.414-3.906-2.064a.563.563,0,0,1,.505-1.005c1.3.654,2.631,1.357,3.945,2.083a.563.563,0,0,1,.221.765.555.555,0,0,1-.5.289Zm-7.937-3.974a.568.568,0,0,1-.231-.048c-1.366-.611-2.737-1.179-4.075-1.693a.562.562,0,1,1,.4-1.049c1.352.52,2.742,1.1,4.127,1.713a.562.562,0,0,1,.284.746.555.555,0,0,1-.515.332Zm-37.782-.072a.551.551,0,0,1-.443-.216.56.56,0,0,1,.1-.789,31.78,31.78,0,0,1,3.752-2.506.564.564,0,1,1,.563.977,29.925,29.925,0,0,0-3.618,2.42.552.552,0,0,1-.346.12Zm29.494-3.1a.647.647,0,0,1-.168-.024c-1.438-.457-2.862-.851-4.238-1.179a.564.564,0,1,1,.26-1.1c1.4.332,2.853.736,4.315,1.2a.558.558,0,0,1,.366.707.566.566,0,0,1-.539.394Zm-23.923-.423a.551.551,0,0,1-.443-.216,43.273,43.273,0,0,0-2.872-3.3.565.565,0,0,1,.813-.784,42.725,42.725,0,0,1,2.949,3.391.56.56,0,0,1-.1.789.552.552,0,0,1-.346.12Zm2.126-.813a.563.563,0,0,1-.178-1.1,23.013,23.013,0,0,1,4.431-1,.565.565,0,1,1,.14,1.121,21.846,21.846,0,0,0-4.214.943A.574.574,0,0,1,211.08,40.952Zm13.167-.789a.467.467,0,0,1-.082,0,37.976,37.976,0,0,0-4.354-.38.564.564,0,0,1-.548-.577.555.555,0,0,1,.577-.548,39.238,39.238,0,0,1,4.483.39.566.566,0,0,1-.082,1.126Zm-95.384-1.544h-.019a27.062,27.062,0,0,1-4.493-.524.564.564,0,0,1,.221-1.106,25.324,25.324,0,0,0,4.305.5.565.565,0,0,1-.014,1.13Zm4.416-.269a.564.564,0,0,1-.087-1.121,26.505,26.505,0,0,0,4.214-1.015.564.564,0,0,1,.351,1.073,27.062,27.062,0,0,1-4.392,1.058C133.336,38.344,133.308,38.349,133.279,38.349ZM141.7,35.67a.565.565,0,0,1-.236-1.078c1.179-.548,2.425-1.183,3.916-2a.563.563,0,0,1,.544.986c-1.515.832-2.781,1.477-3.983,2.035a.6.6,0,0,1-.236.053Zm61.118-.3a.555.555,0,0,1-.366-.135c-1.1-.943-2.261-1.852-3.454-2.7a.562.562,0,0,1,.654-.914c1.222.871,2.41,1.8,3.531,2.766a.563.563,0,0,1-.366.991Zm-53.3-3.9a.563.563,0,0,1-.279-1.054c1.164-.664,2.526-1.434,3.892-2.16a.562.562,0,1,1,.529.991c-1.357.722-2.7,1.486-3.863,2.146a.574.574,0,0,1-.279.072ZM195.6,30.224a.548.548,0,0,1-.284-.077c-1.26-.741-2.564-1.424-3.877-2.044a.564.564,0,0,1,.481-1.02c1.342.63,2.679,1.337,3.969,2.093a.563.563,0,0,1-.284,1.049Zm-38.23-2.872a.563.563,0,0,1-.231-1.078,44.808,44.808,0,0,1,4.176-1.645.563.563,0,1,1,.356,1.068A43.122,43.122,0,0,0,157.6,27.3a.568.568,0,0,1-.231.048Zm30.21-.895a.541.541,0,0,1-.192-.034c-1.381-.5-2.785-.928-4.185-1.284a.563.563,0,1,1,.274-1.092c1.434.366,2.877.808,4.291,1.318a.563.563,0,0,1-.192,1.092Zm-21.811-1.9a.564.564,0,0,1-.115-1.116,35.72,35.72,0,0,1,4.455-.635.556.556,0,0,1,.606.52.562.562,0,0,1-.52.606,35.3,35.3,0,0,0-4.315.616.468.468,0,0,1-.115.01ZM179,24.278a.44.44,0,0,1-.082,0c-.928-.14-1.867-.245-2.795-.322-.515-.043-1.039-.072-1.559-.1a.561.561,0,0,1-.539-.587.552.552,0,0,1,.587-.539c.529.024,1.073.053,1.6.1.952.077,1.919.188,2.872.332A.563.563,0,0,1,179,24.278Z" transform="translate(-117.485 -22.729)" fill="#a9bce6"/>
          <path id="Trazado_171034" data-name="Trazado 171034" d="M113.239,50.123a.516.516,0,0,1-.188-.034c-.7-.245-1.424-.52-2.136-.818a.563.563,0,0,1,.433-1.039c.693.289,1.4.553,2.078.794a.564.564,0,0,1-.188,1.1Z" transform="translate(-110.569 -35.941)" fill="#a9bce6"/>
        </g>
        <g id="Grupo_116327" data-name="Grupo 116327" transform="translate(178.741 65.019)">
          <g id="Grupo_116318" data-name="Grupo 116318" transform="translate(31.163 83.038)">
            <path id="Trazado_171035" data-name="Trazado 171035" d="M447.3,310.022,437.1,372.16h2.319l17.809-63.62Z" transform="translate(-436.733 -308.17)" fill="#96a7cc"/>
            <path id="Trazado_171036" data-name="Trazado 171036" d="M439.023,372.131H436.7a.366.366,0,0,1-.279-.13.355.355,0,0,1-.082-.3l10.2-62.138a.362.362,0,0,1,.308-.3l9.924-1.486a.372.372,0,0,1,.332.12.366.366,0,0,1,.077.342l-17.809,63.625a.367.367,0,0,1-.356.269Zm-1.886-.736h1.607l17.578-62.807-9.1,1.361Z" transform="translate(-436.338 -307.771)" fill="#96a7cc"/>
          </g>
          <g id="Grupo_116319" data-name="Grupo 116319" transform="translate(0 91.663)">
            <path id="Trazado_171037" data-name="Trazado 171037" d="M372.32,381.464h2.319l11.136-39.788,4.257-15.206h-8.678l-2.5,15.206Z" transform="translate(-371.953 -326.1)" fill="#96a7cc"/>
            <path id="Trazado_171038" data-name="Trazado 171038" d="M374.243,381.435h-2.319a.366.366,0,0,1-.279-.13.355.355,0,0,1-.082-.3l9.029-55a.368.368,0,0,1,.366-.308h8.683a.365.365,0,0,1,.293.144.385.385,0,0,1,.063.322l-15.394,55a.367.367,0,0,1-.356.269Zm-1.886-.736h1.607l15.187-54.263h-7.885L372.357,380.7Z" transform="translate(-371.558 -325.7)" fill="#96a7cc"/>
          </g>
          <g id="Grupo_116320" data-name="Grupo 116320" transform="translate(5.658 91.663)">
            <rect id="Rectángulo_42825" data-name="Rectángulo 42825" width="91.17" height="15.211" rx="3.76" transform="translate(0.37 0.37)" fill="#a9bce6"/>
            <path id="Trazado_171039" data-name="Trazado 171039" d="M473.047,341.647H385.5a2.18,2.18,0,0,1-2.179-2.179V327.879A2.18,2.18,0,0,1,385.5,325.7h87.548a2.18,2.18,0,0,1,2.179,2.179v11.589A2.18,2.18,0,0,1,473.047,341.647ZM385.5,326.436a1.444,1.444,0,0,0-1.443,1.443v11.589a1.444,1.444,0,0,0,1.443,1.443h87.548a1.444,1.444,0,0,0,1.443-1.443V327.879a1.444,1.444,0,0,0-1.443-1.443Z" transform="translate(-383.32 -325.7)" fill="#a9bce6"/>
          </g>
          <g id="Grupo_116321" data-name="Grupo 116321" transform="translate(86.718 83.038)">
            <path id="Trazado_171040" data-name="Trazado 171040" d="M562.514,310.022l10.2,62.138H570.4L552.59,308.54Z" transform="translate(-552.221 -308.17)" fill="#a9bce6"/>
            <path id="Trazado_171041" data-name="Trazado 171041" d="M572.319,372.131H570a.371.371,0,0,1-.356-.269l-17.809-63.625a.379.379,0,0,1,.077-.342.372.372,0,0,1,.332-.12l9.924,1.486a.368.368,0,0,1,.308.3l10.2,62.138a.367.367,0,0,1-.361.428Zm-2.04-.736h1.607L561.8,309.95l-9.1-1.361Z" transform="translate(-551.823 -307.771)" fill="#a9bce6"/>
          </g>
          <g id="Grupo_116322" data-name="Grupo 116322" transform="translate(41.176 83.038)">
            <path id="Trazado_171042" data-name="Trazado 171042" d="M467.854,310.022l10.2,62.138h-2.319l-17.8-63.62Z" transform="translate(-457.556 -308.17)" fill="#a9bce6"/>
            <path id="Trazado_171043" data-name="Trazado 171043" d="M477.649,372.131h-2.319a.371.371,0,0,1-.356-.269l-17.809-63.625a.379.379,0,0,1,.077-.342.372.372,0,0,1,.332-.12l9.924,1.486a.368.368,0,0,1,.308.3l10.2,62.138a.367.367,0,0,1-.361.428Zm-2.04-.736h1.607L467.129,309.95l-9.1-1.361Z" transform="translate(-457.153 -307.771)" fill="#a9bce6"/>
          </g>
          <g id="Grupo_116326" data-name="Grupo 116326" transform="translate(36.572)">
            <g id="Grupo_116323" data-name="Grupo 116323">
              <path id="Trazado_171044" data-name="Trazado 171044" d="M451.906,222.874h.048q27.312.058,54.619,1.515a4.54,4.54,0,0,0,.77-.029,4.322,4.322,0,0,0,3.68-3.363q8.017-37.111,16.039-74.227a4.321,4.321,0,0,0-1.838-4.5l-6.422-4.257a1.549,1.549,0,0,0-.149-.091,4.358,4.358,0,0,0-1.554-.572,169.011,169.011,0,0,0-19.069-2A170.734,170.734,0,0,0,458.9,138a4.325,4.325,0,0,0-3.521,3.81q-3.882,38.157-7.769,76.315a4.319,4.319,0,0,0,4.291,4.753Z" transform="translate(-447.583 -135.156)" fill="#ffa900"/>
              <path id="Trazado_171045" data-name="Trazado 171045" d="M451.906,222.874h.048q27.312.058,54.619,1.515a4.54,4.54,0,0,0,.77-.029,4.322,4.322,0,0,0,3.68-3.363q8.017-37.111,16.039-74.227a4.321,4.321,0,0,0-1.838-4.5l-6.422-4.257a1.549,1.549,0,0,0-.149-.091,4.358,4.358,0,0,0-1.554-.572,169.011,169.011,0,0,0-19.069-2A170.734,170.734,0,0,0,458.9,138a4.325,4.325,0,0,0-3.521,3.81q-3.882,38.157-7.769,76.315a4.319,4.319,0,0,0,4.291,4.753Z" transform="translate(-447.583 -135.156)" fill="#ffa900"/>
              <path id="Trazado_171046" data-name="Trazado 171046" d="M451.906,222.874h.048q27.312.058,54.619,1.515a4.54,4.54,0,0,0,.77-.029,4.322,4.322,0,0,0,3.68-3.363q8.017-37.111,16.039-74.227a4.321,4.321,0,0,0-1.838-4.5l-6.422-4.257a1.549,1.549,0,0,0-.149-.091,4.358,4.358,0,0,0-1.554-.572,169.011,169.011,0,0,0-19.069-2A170.734,170.734,0,0,0,458.9,138a4.325,4.325,0,0,0-3.521,3.81q-3.882,38.157-7.769,76.315a4.319,4.319,0,0,0,4.291,4.753Z" transform="translate(-447.583 -135.156)" fill="#ffa900"/>
            </g>
            <g id="Grupo_116324" data-name="Grupo 116324">
              <path id="Trazado_171047" data-name="Trazado 171047" d="M451.906,222.874h.048q27.312.058,54.619,1.515a4.54,4.54,0,0,0,.77-.029,4.322,4.322,0,0,0,3.68-3.363q8.017-37.111,16.039-74.227a4.321,4.321,0,0,0-1.838-4.5l-6.422-4.257a1.549,1.549,0,0,0-.149-.091,4.358,4.358,0,0,0-1.554-.572,169.011,169.011,0,0,0-19.069-2A170.734,170.734,0,0,0,458.9,138a4.325,4.325,0,0,0-3.521,3.81q-3.882,38.157-7.769,76.315a4.319,4.319,0,0,0,4.291,4.753Z" transform="translate(-447.583 -135.156)" fill="#ffa900"/>
              <path id="Trazado_171048" data-name="Trazado 171048" d="M451.906,222.874h.048q27.312.058,54.619,1.515a4.54,4.54,0,0,0,.77-.029,4.322,4.322,0,0,0,3.68-3.363q8.017-37.111,16.039-74.227a4.321,4.321,0,0,0-1.838-4.5l-6.422-4.257a1.549,1.549,0,0,0-.149-.091,4.358,4.358,0,0,0-1.554-.572,169.011,169.011,0,0,0-19.069-2A170.734,170.734,0,0,0,458.9,138a4.325,4.325,0,0,0-3.521,3.81q-3.882,38.157-7.769,76.315a4.319,4.319,0,0,0,4.291,4.753Z" transform="translate(-447.583 -135.156)" fill="#ffa900"/>
              <path id="Trazado_171049" data-name="Trazado 171049" d="M451.906,222.874h.048q27.312.058,54.619,1.515a4.54,4.54,0,0,0,.77-.029,4.322,4.322,0,0,0,3.68-3.363q8.017-37.111,16.039-74.227a4.321,4.321,0,0,0-1.838-4.5l-6.422-4.257a1.549,1.549,0,0,0-.149-.091,4.358,4.358,0,0,0-1.554-.572,169.011,169.011,0,0,0-19.069-2A170.734,170.734,0,0,0,458.9,138a4.325,4.325,0,0,0-3.521,3.81q-3.882,38.157-7.769,76.315a4.319,4.319,0,0,0,4.291,4.753Z" transform="translate(-447.583 -135.156)" fill="#ffa900" opacity="0.12"/>
            </g>
            <g id="Grupo_116325" data-name="Grupo 116325">
              <path id="Trazado_171050" data-name="Trazado 171050" d="M451.906,222.874h.048q27.312.058,54.619,1.515a4.54,4.54,0,0,0,.77-.029,4.322,4.322,0,0,0,3.68-3.363q8.017-37.111,16.039-74.227a4.321,4.321,0,0,0-1.838-4.5l-6.422-4.257a1.549,1.549,0,0,0-.149-.091,4.358,4.358,0,0,0-1.554-.572,169.011,169.011,0,0,0-19.069-2A170.734,170.734,0,0,0,458.9,138a4.325,4.325,0,0,0-3.521,3.81q-3.882,38.157-7.769,76.315a4.319,4.319,0,0,0,4.291,4.753Z" transform="translate(-447.583 -135.156)" fill="#ffa900"/>
              <path id="Trazado_171051" data-name="Trazado 171051" d="M451.906,222.874h.048q27.312.058,54.619,1.515a4.54,4.54,0,0,0,.77-.029,4.322,4.322,0,0,0,3.68-3.363q8.017-37.111,16.039-74.227a4.321,4.321,0,0,0-1.838-4.5l-6.422-4.257a1.549,1.549,0,0,0-.149-.091,4.358,4.358,0,0,0-1.554-.572,169.011,169.011,0,0,0-19.069-2A170.734,170.734,0,0,0,458.9,138a4.325,4.325,0,0,0-3.521,3.81q-3.882,38.157-7.769,76.315a4.319,4.319,0,0,0,4.291,4.753Z" transform="translate(-447.583 -135.156)" fill="#ffa900"/>
              <path id="Trazado_171052" data-name="Trazado 171052" d="M451.906,222.874h.048q27.312.058,54.619,1.515a4.54,4.54,0,0,0,.77-.029,4.322,4.322,0,0,0,3.68-3.363q8.017-37.111,16.039-74.227a4.321,4.321,0,0,0-1.838-4.5l-6.422-4.257a1.549,1.549,0,0,0-.149-.091,4.358,4.358,0,0,0-1.554-.572,169.011,169.011,0,0,0-19.069-2A170.734,170.734,0,0,0,458.9,138a4.325,4.325,0,0,0-3.521,3.81q-3.882,38.157-7.769,76.315a4.319,4.319,0,0,0,4.291,4.753Z" transform="translate(-447.583 -135.156)" fill="#ffa900"/>
            </g>
          </g>
          <path id="Trazado_171053" data-name="Trazado 171053" d="M562.55,226.995l4.45.351,2.9.226q.39-1.8.774-3.594,8.017-37.111,16.038-74.227a4.32,4.32,0,0,0-1.838-4.5L578.453,141c-.048-.034-.1-.063-.144-.1h0q-7.887,43.05-15.769,86.095Z" transform="translate(-470.667 -138.137)" fill="#c17d05"/>
          <path id="Trazado_171054" data-name="Trazado 171054" d="M373.758,313.94H469.1a2.2,2.2,0,0,1,2.194,2.025l.553,7.788a2.153,2.153,0,0,1-.577,1.631,2.209,2.209,0,0,1-1.616.7H373.758a2.191,2.191,0,0,1-2.2-2.179v-7.788a2.191,2.191,0,0,1,2.2-2.179Z" transform="translate(-371.559 -227.935)" fill="#c17d05"/>
          <path id="Trazado_171055" data-name="Trazado 171055" d="M373.764,313.94h9.607c-3.29,2.006-4.835,2.675-5.8,6.177-.606,2.189-.669,4.262-1.087,5.97h-2.713a2.191,2.191,0,0,1-2.2-2.179v-7.788a2.191,2.191,0,0,1,2.2-2.179Z" transform="translate(-371.564 -227.935)" fill="#ffa900"/>
        </g>
        <g id="Grupo_116328" data-name="Grupo 116328" transform="translate(117.95 191.154)">
          <path id="Trazado_171056" data-name="Trazado 171056" d="M275.708,419.638s-2.622.01-6.2,0c-1.9,0-4.07,0-6.254-.024-5.883-.038-9.044-.072-12.825-.3-.2-.01-.394-.024-.6-.039-2.02-.139-3.661-.289-4.647-.39l.091-1.626a62.872,62.872,0,0,0,8.88-2.766c5.335-2.107,8.707-3.5,9.64-6.533a9.421,9.421,0,0,0,.178-2.545V405.4c.048-3.406-.12-6.162-.279-8.038a4.729,4.729,0,0,0,8.144,3.43c.183,1.159.3,2.112.38,2.752.139,1.078.226,1.9.318,2.655.024.192.048.38.067.568.1.722.212,1.419.4,2.271a14.145,14.145,0,0,0,.39,1.578c.385,1.179.851,1.9,1.342,3.343q.065.188.13.4s.164.515.293,1.063a31.1,31.1,0,0,1,.544,4.219Z" transform="translate(-245.19 -397.36)" fill="#f8ae8e"/>
          <path id="Trazado_171057" data-name="Trazado 171057" d="M282.294,405.423a10.033,10.033,0,0,1-.178,2.545,5.535,5.535,0,0,1-1.756,2.588c.928.7,2.477,1.188,5.085,1.443a29.789,29.789,0,0,0,6.8-.053,13.987,13.987,0,0,1-.529-1.333,14.152,14.152,0,0,1-.39-1.578c-.188-.851-.3-1.549-.4-2.271-.019-.188-.043-.37-.067-.568-.091-.755-.178-1.573-.318-2.655-.077-.64-.2-1.592-.38-2.752a4.729,4.729,0,0,1-8.144-3.43c.159,1.876.327,4.637.279,8.038v.019Z" transform="translate(-263.441 -397.36)" fill="#e7a182"/>
        </g>
        <path id="Trazado_171058" data-name="Trazado 171058" d="M245.281,435.165l-.091,1.631c.986.1,2.627.25,4.652.385.2.019.394.029.592.039,3.738.2,7.168.226,13.114.26,2.42.019,4.811.019,6.918.014h5.248a18.968,18.968,0,0,0-.832-5.234c-.043-.14-.087-.274-.13-.4a61.269,61.269,0,0,1-15.317,1.409,20.711,20.711,0,0,1-5.268-.861c-2.251.775-5.263,1.756-8.88,2.761Z" transform="translate(-127.24 -224.109)" fill="#ffa900"/>
        <path id="Trazado_171059" data-name="Trazado 171059" d="M249.51,440.242c.207.019.409.029.611.038,3.916.236,7.187.274,13.272.327,2.261.019,4.5.029,6.465.034,2.651.01,4.791.014,5.792.014.024.322.043.654.048,1v.053s-2.622.01-6.2,0c-1.9,0-4.065,0-6.249-.019-5.883-.043-9.044-.077-12.83-.3-.2-.01-.39-.024-.592-.038-2.025-.139-3.661-.284-4.652-.385l.063-1.063c1.034.1,2.506.221,4.267.342Z" transform="translate(-127.234 -228.282)" fill="#292466"/>
        <g id="Grupo_116329" data-name="Grupo 116329" transform="translate(139.088 191.154)">
          <path id="Trazado_171060" data-name="Trazado 171060" d="M319.648,419.638s-2.622.01-6.2,0c-1.9,0-4.07,0-6.254-.024-5.883-.038-9.044-.072-12.825-.3-.2-.01-.394-.024-.6-.039-2.02-.139-3.661-.289-4.647-.39l.091-1.626a62.87,62.87,0,0,0,8.88-2.766c5.335-2.107,8.707-3.5,9.64-6.533a9.419,9.419,0,0,0,.178-2.545V405.4c.048-3.406-.12-6.162-.279-8.038a4.729,4.729,0,0,0,8.144,3.43c.178,1.159.3,2.112.38,2.752.14,1.078.226,1.9.318,2.655.024.192.048.38.067.568.1.722.212,1.419.4,2.271a14.152,14.152,0,0,0,.39,1.578c.385,1.179.852,1.9,1.342,3.343q.065.188.13.4s.164.515.293,1.063a31.1,31.1,0,0,1,.544,4.219Z" transform="translate(-289.13 -397.36)" fill="#f8ae8e"/>
          <path id="Trazado_171061" data-name="Trazado 171061" d="M326.1,405.423a10.033,10.033,0,0,1-.178,2.545,5.534,5.534,0,0,1-1.756,2.588c.928.7,2.477,1.188,5.085,1.443a29.789,29.789,0,0,0,6.8-.053,13.987,13.987,0,0,1-.529-1.333,14.152,14.152,0,0,1-.39-1.578c-.188-.851-.3-1.549-.4-2.271-.019-.188-.043-.37-.067-.568-.091-.755-.178-1.573-.318-2.655-.077-.64-.2-1.592-.38-2.752a4.729,4.729,0,0,1-8.144-3.43c.159,1.876.327,4.637.279,8.038v.019Z" transform="translate(-307.314 -397.36)" fill="#e7a182"/>
        </g>
        <path id="Trazado_171062" data-name="Trazado 171062" d="M289.211,435.165l-.091,1.631c.986.1,2.622.25,4.652.385.2.019.394.029.592.039,3.738.2,7.168.226,13.114.26,2.42.019,4.811.019,6.918.014h5.248a18.968,18.968,0,0,0-.832-5.234c-.043-.14-.087-.274-.13-.4a61.269,61.269,0,0,1-15.317,1.409,20.711,20.711,0,0,1-5.268-.861c-2.251.775-5.263,1.756-8.88,2.761Z" transform="translate(-150.037 -224.109)" fill="#ffa900"/>
        <path id="Trazado_171063" data-name="Trazado 171063" d="M293.439,440.242c.207.019.409.029.611.038,3.916.236,7.187.274,13.272.327,2.261.019,4.5.029,6.465.034,2.651.01,4.791.014,5.792.014.024.322.043.654.048,1v.053s-2.622.01-6.2,0c-1.9,0-4.065,0-6.249-.019-5.883-.043-9.044-.077-12.83-.3-.2-.01-.39-.024-.592-.038-2.025-.139-3.661-.284-4.652-.385l.063-1.063c1.034.1,2.506.221,4.267.342Z" transform="translate(-150.032 -228.282)" fill="#292466"/>
        <path id="Trazado_171064" data-name="Trazado 171064" d="M378.96,260.587a.69.69,0,0,1,.024-.077h0l-.019.077Z" transform="translate(-196.659 -135.188)" fill="#4332d1"/>
        <g id="Grupo_116331" data-name="Grupo 116331" transform="translate(133.086 92.74)">
          <g id="Grupo_116330" data-name="Grupo 116330">
            <path id="Trazado_171065" data-name="Trazado 171065" d="M278.169,196.007c.058-.058.115-.106.173-.154a1.623,1.623,0,0,1,.991-1.015c1.448-.505,2.6-1.5,8.087-1.313.943.034,2.011.082,3.189.159a.069.069,0,0,1,.01-.014c3.781.091,7,.289,9.5.481,3.8.3,5.316.544,6.913,1.578.529.342,3.569,2.309,3.574,5.013,0,3.319-4.57,5.835-7.856,6.566h0c-2.819,1.337-9.145.053-11.719-.452-2.256-.443-2.372-1.275-2.232-2.506-2.266-.178-4.219-.361-5.83-.524-1.664-.168-4.065-.443-4.565-1.818a2.33,2.33,0,0,1,.279-1.833,2.15,2.15,0,0,1-1.2-1.183,3.308,3.308,0,0,1,.683-2.983Z" transform="translate(-277.031 -193.155)" fill="#f8ae8e"/>
            <path id="Trazado_171066" data-name="Trazado 171066" d="M290.761,206.851l-.168-.034c-2.146-.423-2.612-1.222-2.54-2.53-1.871-.149-3.719-.318-5.494-.5-1.7-.173-4.267-.438-4.854-2.044a2.453,2.453,0,0,1,.144-1.8,2.273,2.273,0,0,1-1.073-1.222,3.652,3.652,0,0,1,.765-3.334h0c.043-.043.087-.082.13-.12a1.929,1.929,0,0,1,1.164-1.13c.241-.082.471-.183.712-.284,1.275-.539,2.862-1.207,7.5-1.049,1.029.034,2.073.087,3.108.154a.532.532,0,0,1,.087-.01c3.18.077,6.384.236,9.52.481,3.949.308,5.441.577,7.076,1.636,1.39.9,3.728,2.785,3.733,5.3,0,3.5-4.714,6.133-8.091,6.894-1.645.76-4.378.688-6.908.39-1.9-.226-3.68-.577-4.815-.8Zm8.952-12.729c-3.093-.241-6.254-.4-9.4-.481a.28.28,0,0,1-.111.01c-1.058-.067-2.131-.12-3.18-.159-4.483-.154-5.994.481-7.206.991-.26.111-.5.212-.755.3a1.266,1.266,0,0,0-.779.808.379.379,0,0,1-.111.149,1.13,1.13,0,0,0-.14.125h0a2.983,2.983,0,0,0-.6,2.636,1.811,1.811,0,0,0,1.02.977.344.344,0,0,1,.178.207.349.349,0,0,1-.024.269,1.96,1.96,0,0,0-.255,1.549c.438,1.2,2.838,1.448,4.277,1.592,1.881.192,3.839.37,5.826.524a.349.349,0,0,1,.241.125.356.356,0,0,1,.077.26c-.125,1.092-.1,1.727,1.958,2.131l.168.034c2.6.51,8.678,1.708,11.334.447a.424.424,0,0,1,.072-.024c3.156-.7,7.591-3.093,7.586-6.225,0-2.271-2.391-4.06-3.416-4.724a8.914,8.914,0,0,0-4.233-1.289c-.707-.082-1.535-.159-2.521-.236Z" transform="translate(-276.653 -192.781)" fill="#f8ae8e"/>
          </g>
          <path id="Trazado_171067" data-name="Trazado 171067" d="M300.708,214.088a.343.343,0,0,0,.375-.265c.265-1.116.491-2.073,7.918-1.135h0a.344.344,0,1,0,.087-.683c-7.654-.967-8.284,0-8.678,1.66a.344.344,0,0,0,.255.414c.014,0,.024,0,.039,0Z" transform="translate(-288.977 -202.557)" fill="#e7a182"/>
          <path id="Trazado_171068" data-name="Trazado 171068" d="M279.738,204.817a.337.337,0,0,0,.327-.154c1.063-1.6,8.308-2.593,16.038-1.482a.349.349,0,0,0,.39-.293.343.343,0,0,0-.293-.39c-7.553-1.078-15.36-.25-16.712,1.785a.348.348,0,0,0,.1.481.437.437,0,0,0,.149.058Z" transform="translate(-278.094 -197.577)" fill="#e7a182"/>
          <path id="Trazado_171069" data-name="Trazado 171069" d="M278.968,197.382a.335.335,0,0,0,.231-.058c2.006-1.347,11.266-.755,14.667-.414a.349.349,0,0,0,.38-.308.341.341,0,0,0-.3-.375h0c-.51-.053-12.5-1.236-15.124.524a.348.348,0,0,0-.1.481.336.336,0,0,0,.245.149Z" transform="translate(-277.695 -194.342)" fill="#e7a182"/>
        </g>
        <path id="Trazado_171070" data-name="Trazado 171070" d="M324.64,164.69q.88,6.617,1.765,13.234c2.5.346,5.936.813,10.059,1.323,6.085.755,8.7,1.005,12.19.366a22.114,22.114,0,0,0,4.166-1.121,9.8,9.8,0,0,0,3.218-2.107,26.453,26.453,0,0,0,3.743-4.532,53.6,53.6,0,0,0,6-10.915,75.069,75.069,0,0,0,8.89-24.188c-6.186,1.222-9.636,3.805-11.569,5.753-2.29,2.309-3.04,4.33-6.34,10.53-2.439,4.584-4.556,8.231-5.946,10.564q-3.565.065-7.134.125c-5.489.1-6.744.077-8.832.154-2.391.087-5.893.289-10.208.808Z" transform="translate(-168.47 -70.964)" fill="#75b52f"/>
        <g id="Grupo_116334" data-name="Grupo 116334" transform="translate(186.592 63.371)">
          <g id="Grupo_116332" data-name="Grupo 116332">
            <path id="Trazado_171071" data-name="Trazado 171071" d="M387.88,187.5s.462,1.7,13.792,5.147c1.029.265,2.107.5,3.223.712.394.072.794.144,1.193.212a133.9,133.9,0,0,0,22.773,1.328c.438,0,.861-.014,1.275-.024,4.036-.087,6.7-.269,6.7-.269l-.178-11.3c0-.4-.014-.8-.019-1.2q-.137-8.529-.269-17.058c-.01-.505-.014-1.005-.024-1.511q-.079-4.95-.154-9.9l-1.078-2.405-.558-1.246-1.116-2.5-.678-1.515-.443-.981-.5-1.111-4.517-10.069-.053-.111a25.747,25.747,0,0,0-14.874-1.486c-.746.149-1.448.322-2.112.51a25.767,25.767,0,0,0-4.921,1.977l-5.138,7.2s-.443.818-1.414,2.665c-.183.342-.38.722-.6,1.135q-.707,1.349-1.679,3.238a11.737,11.737,0,0,0-.962,2.781c-.091.4-.173.827-.241,1.256-.818,5.109-.106,11.545-.794,13.753-.39,1.256-1.713,5.407-3.079,9.669-.125.39-.245.779-.37,1.164-1.621,5.066-3.185,9.929-3.185,9.929Z" transform="translate(-387.88 -131.731)" fill="none"/>
            <path id="Trazado_171072" data-name="Trazado 171072" d="M387.88,187.5s.462,1.7,13.792,5.147c1.029.265,2.107.5,3.223.712.394.072.794.144,1.193.212a133.9,133.9,0,0,0,22.773,1.328c.438,0,.861-.014,1.275-.024,4.036-.087,6.7-.269,6.7-.269l-.178-11.3c0-.4-.014-.8-.019-1.2q-.137-8.529-.269-17.058c-.01-.505-.014-1.005-.024-1.511q-.079-4.95-.154-9.9l-1.078-2.405-.558-1.246-1.116-2.5-.678-1.515-.443-.981-.5-1.111-4.517-10.069-.053-.111a25.747,25.747,0,0,0-14.874-1.486c-.746.149-1.448.322-2.112.51a25.767,25.767,0,0,0-4.921,1.977l-5.138,7.2s-.443.818-1.414,2.665c-.183.342-.38.722-.6,1.135q-.707,1.349-1.679,3.238a11.737,11.737,0,0,0-.962,2.781c-.091.4-.173.827-.241,1.256-.818,5.109-.106,11.545-.794,13.753-.39,1.256-1.713,5.407-3.079,9.669-.125.39-.245.779-.37,1.164-1.621,5.066-3.185,9.929-3.185,9.929Z" transform="translate(-387.88 -131.731)" fill="none"/>
            <path id="Trazado_171073" data-name="Trazado 171073" d="M387.88,187.5s.462,1.7,13.792,5.147c1.029.265,2.107.5,3.223.712.394.072.794.144,1.193.212a133.9,133.9,0,0,0,22.773,1.328c.438,0,.861-.014,1.275-.024,4.036-.087,6.7-.269,6.7-.269l-.178-11.3c0-.4-.014-.8-.019-1.2q-.137-8.529-.269-17.058c-.01-.505-.014-1.005-.024-1.511q-.079-4.95-.154-9.9l-1.078-2.405-.558-1.246-1.116-2.5-.678-1.515-.443-.981-.5-1.111-4.517-10.069-.053-.111a25.747,25.747,0,0,0-14.874-1.486c-.746.149-1.448.322-2.112.51a25.767,25.767,0,0,0-4.921,1.977l-5.138,7.2s-.443.818-1.414,2.665c-.183.342-.38.722-.6,1.135q-.707,1.349-1.679,3.238a11.737,11.737,0,0,0-.962,2.781c-.091.4-.173.827-.241,1.256-.818,5.109-.106,11.545-.794,13.753-.39,1.256-1.713,5.407-3.079,9.669-.125.39-.245.779-.37,1.164-1.621,5.066-3.185,9.929-3.185,9.929Z" transform="translate(-387.88 -131.731)" fill="none"/>
          </g>
          <path id="Trazado_171074" data-name="Trazado 171074" d="M387.88,187.5s.462,1.7,13.792,5.147c1.029.265,2.107.5,3.223.712.394.072.794.144,1.193.212a133.9,133.9,0,0,0,22.773,1.328c.438,0,.861-.014,1.275-.024,4.036-.087,6.7-.269,6.7-.269l-.178-11.3c0-.4-.014-.8-.019-1.2q-.137-8.529-.269-17.058c-.01-.505-.014-1.005-.024-1.511q-.079-4.95-.154-9.9l-1.078-2.405-.558-1.246-1.116-2.5-.678-1.515-.443-.981-.5-1.111-4.517-10.069-.053-.111a25.747,25.747,0,0,0-14.874-1.486c-.746.149-1.448.322-2.112.51a25.767,25.767,0,0,0-4.921,1.977l-5.138,7.2s-.443.818-1.414,2.665c-.183.342-.38.722-.6,1.135q-.707,1.349-1.679,3.238a11.737,11.737,0,0,0-.962,2.781c-.091.4-.173.827-.241,1.256-.818,5.109-.106,11.545-.794,13.753-.39,1.256-1.713,5.407-3.079,9.669-.125.39-.245.779-.37,1.164-1.621,5.066-3.185,9.929-3.185,9.929Z" transform="translate(-387.88 -131.731)" fill="#fe4f5a"/>
          <g id="Grupo_116333" data-name="Grupo 116333">
            <path id="Trazado_171075" data-name="Trazado 171075" d="M387.88,187.5s.462,1.7,13.792,5.147c1.029.265,2.107.5,3.223.712.394.072.794.144,1.193.212a133.9,133.9,0,0,0,22.773,1.328c.438,0,.861-.014,1.275-.024,4.036-.087,6.7-.269,6.7-.269l-.178-11.3c0-.4-.014-.8-.019-1.2q-.137-8.529-.269-17.058c-.01-.505-.014-1.005-.024-1.511q-.079-4.95-.154-9.9l-1.078-2.405-.558-1.246-1.116-2.5-.678-1.515-.443-.981-.5-1.111-4.517-10.069-.053-.111a25.747,25.747,0,0,0-14.874-1.486c-.746.149-1.448.322-2.112.51a25.767,25.767,0,0,0-4.921,1.977l-5.138,7.2s-.443.818-1.414,2.665c-.183.342-.38.722-.6,1.135q-.707,1.349-1.679,3.238a11.737,11.737,0,0,0-.962,2.781c-.091.4-.173.827-.241,1.256-.818,5.109-.106,11.545-.794,13.753-.39,1.256-1.713,5.407-3.079,9.669-.125.39-.245.779-.37,1.164-1.621,5.066-3.185,9.929-3.185,9.929Z" transform="translate(-387.88 -131.731)" fill="none"/>
            <path id="Trazado_171076" data-name="Trazado 171076" d="M387.88,187.5s.462,1.7,13.792,5.147c1.029.265,2.107.5,3.223.712.394.072.794.144,1.193.212a133.9,133.9,0,0,0,22.773,1.328c.438,0,.861-.014,1.275-.024,4.036-.087,6.7-.269,6.7-.269l-.178-11.3c0-.4-.014-.8-.019-1.2q-.137-8.529-.269-17.058c-.01-.505-.014-1.005-.024-1.511q-.079-4.95-.154-9.9l-1.078-2.405-.558-1.246-1.116-2.5-.678-1.515-.443-.981-.5-1.111-4.517-10.069-.053-.111a25.747,25.747,0,0,0-14.874-1.486c-.746.149-1.448.322-2.112.51a25.767,25.767,0,0,0-4.921,1.977l-5.138,7.2s-.443.818-1.414,2.665c-.183.342-.38.722-.6,1.135q-.707,1.349-1.679,3.238a11.737,11.737,0,0,0-.962,2.781c-.091.4-.173.827-.241,1.256-.818,5.109-.106,11.545-.794,13.753-.39,1.256-1.713,5.407-3.079,9.669-.125.39-.245.779-.37,1.164-1.621,5.066-3.185,9.929-3.185,9.929Z" transform="translate(-387.88 -131.731)" fill="none"/>
            <path id="Trazado_171077" data-name="Trazado 171077" d="M387.88,187.5s.462,1.7,13.792,5.147c1.029.265,2.107.5,3.223.712.394.072.794.144,1.193.212a133.9,133.9,0,0,0,22.773,1.328c.438,0,.861-.014,1.275-.024,4.036-.087,6.7-.269,6.7-.269l-.178-11.3c0-.4-.014-.8-.019-1.2q-.137-8.529-.269-17.058c-.01-.505-.014-1.005-.024-1.511q-.079-4.95-.154-9.9l-1.078-2.405-.558-1.246-1.116-2.5-.678-1.515-.443-.981-.5-1.111-4.517-10.069-.053-.111a25.747,25.747,0,0,0-14.874-1.486c-.746.149-1.448.322-2.112.51a25.767,25.767,0,0,0-4.921,1.977l-5.138,7.2s-.443.818-1.414,2.665c-.183.342-.38.722-.6,1.135q-.707,1.349-1.679,3.238a11.737,11.737,0,0,0-.962,2.781c-.091.4-.173.827-.241,1.256-.818,5.109-.106,11.545-.794,13.753-.39,1.256-1.713,5.407-3.079,9.669-.125.39-.245.779-.37,1.164-1.621,5.066-3.185,9.929-3.185,9.929Z" transform="translate(-387.88 -131.731)" fill="none"/>
          </g>
        </g>
        <path id="Trazado_171078" data-name="Trazado 171078" d="M433.47,132.344a5.927,5.927,0,0,0,11.853.168,6.406,6.406,0,0,0-.043-.866,25.8,25.8,0,0,0-8.948.014,26.585,26.585,0,0,0-2.862.683Z" transform="translate(-224.946 -68.116)" fill="#75b52f"/>
        <g id="Grupo_116335" data-name="Grupo 116335" transform="translate(126.999 121.101)">
          <path id="Trazado_171079" data-name="Trazado 171079" d="M264.01,330.208a44.746,44.746,0,0,0,22.412,0q4.979-22.9,9.953-45.792c5.393-.091,13.8-.173,24.2,0,12.811.216,16.577.616,20.195-1.915,7.591-5.306-13.965-23.466-14.764-30.754-8.659-.3-39.394,5.436-45.306,9.51-5.345,3.685-7.327,9.371-11.319,32.731-1.621,9.5-3.55,21.773-5.383,36.214Z" transform="translate(-264 -251.737)" fill="#1c478d"/>
          <path id="Trazado_171080" data-name="Trazado 171080" d="M315.96,335.251a44.746,44.746,0,0,0,22.412,0q4.979-22.9,9.953-45.792c5.393-.091,13.8-.173,24.2,0,12.811.216,16.577.616,20.195-1.915,7.591-5.306,7.24-18.4,6.441-25.684-8.659-.3-16.385-.52-23.009-.693q-3.161-.087-5.975-.149c-7.788-.183-11.127-.231-15.764.236-7.418.741-15.851.972-21.763,5.051-5.345,3.685-7.327,9.371-11.319,32.731-1.621,9.5-3.55,21.773-5.383,36.214Z" transform="translate(-290.959 -256.486)" fill="#1c478d"/>
        </g>
        <g id="Grupo_116341" data-name="Grupo 116341" transform="translate(184.306 64.097)">
          <g id="Grupo_116336" data-name="Grupo 116336" transform="translate(0 22.754)">
            <path id="Trazado_171081" data-name="Trazado 171081" d="M383.25,184.586a3.857,3.857,0,0,1,1.246-1.717,3.383,3.383,0,0,1,1.424-.63q5.455-.83,10.91-1.664a2.969,2.969,0,0,1,2.882,1.236q7.447,10.7,14.894,21.4l-2.391,1.631q-14.475-10.131-28.955-20.257Z" transform="translate(-383.191 -180.54)" fill="#3d46c1"/>
            <path id="Trazado_171082" data-name="Trazado 171082" d="M383.658,186.347l13.027-1.7a.606.606,0,0,1,.568.245q7.634,10.535,15.274,21.065a.607.607,0,0,1-.414.957q-6.7.88-13.4,1.765a.608.608,0,0,1-.572-.25q-7.454-10.564-14.9-21.128a.608.608,0,0,1,.419-.952Z" transform="translate(-383.127 -182.668)" fill="#f75316"/>
            <path id="Trazado_171083" data-name="Trazado 171083" d="M399.778,189.242a1.148,1.148,0,1,1-1.814-.3A1.326,1.326,0,0,1,399.778,189.242Z" transform="translate(-390.685 -184.773)" fill="#fff"/>
            <rect id="Rectángulo_42826" data-name="Rectángulo 42826" width="0.722" height="6.379" transform="matrix(0.826, -0.564, 0.564, 0.826, 16.821, 4.19)" fill="#75b52f"/>
            <rect id="Rectángulo_42827" data-name="Rectángulo 42827" width="0.722" height="2.809" transform="matrix(0.826, -0.563, 0.563, 0.826, 22.148, 12.026)" fill="#060e12"/>
          </g>
          <g id="Grupo_116337" data-name="Grupo 116337" transform="translate(37.359)">
            <path id="Trazado_171084" data-name="Trazado 171084" d="M476.395,169.6c-.13.553-.274,1.087-.433,1.6-1.015,3.3-2.545,5.566-4.305,6.032s-4.863-.606-5.219-.731c-.827-.293-3.213-1.01-4.426-2.67-1.9-2.612-1.188-5.792-.486-10.213.895-5.609,1.169-11.3,1.78-16.943.342-3.156.75-7.759.914-13.436A35.609,35.609,0,0,1,474.807,147.7a39.1,39.1,0,0,1,1.583,21.9Z" transform="translate(-460.789 -133.24)" fill="none"/>
            <path id="Trazado_171085" data-name="Trazado 171085" d="M476.395,169.6c-.13.553-.274,1.087-.433,1.6-1.015,3.3-2.545,5.566-4.305,6.032s-4.863-.606-5.219-.731c-.827-.293-3.213-1.01-4.426-2.67-1.9-2.612-1.188-5.792-.486-10.213.895-5.609,1.169-11.3,1.78-16.943.342-3.156.75-7.759.914-13.436A35.609,35.609,0,0,1,474.807,147.7a39.1,39.1,0,0,1,1.583,21.9Z" transform="translate(-460.789 -133.24)" fill="none"/>
            <path id="Trazado_171086" data-name="Trazado 171086" d="M476.395,169.6c-.13.553-.274,1.087-.433,1.6-1.015,3.3-2.545,5.566-4.305,6.032s-4.863-.606-5.219-.731c-.827-.293-3.213-1.01-4.426-2.67-1.9-2.612-1.188-5.792-.486-10.213.895-5.609,1.169-11.3,1.78-16.943.342-3.156.75-7.759.914-13.436A35.609,35.609,0,0,1,474.807,147.7a39.1,39.1,0,0,1,1.583,21.9Z" transform="translate(-460.789 -133.24)" fill="none"/>
          </g>
          <g id="Grupo_116338" data-name="Grupo 116338" transform="translate(37.359)">
            <path id="Trazado_171087" data-name="Trazado 171087" d="M476.395,169.6c-.13.553-.274,1.087-.433,1.6-1.015,3.3-2.545,5.566-4.305,6.032s-4.863-.606-5.219-.731c-.827-.293-3.213-1.01-4.426-2.67-1.9-2.612-1.188-5.792-.486-10.213.895-5.609,1.169-11.3,1.78-16.943.342-3.156.75-7.759.914-13.436A35.609,35.609,0,0,1,474.807,147.7a39.1,39.1,0,0,1,1.583,21.9Z" transform="translate(-460.789 -133.24)" fill="none"/>
            <path id="Trazado_171088" data-name="Trazado 171088" d="M476.395,169.6c-.13.553-.274,1.087-.433,1.6-1.015,3.3-2.545,5.566-4.305,6.032s-4.863-.606-5.219-.731c-.827-.293-3.213-1.01-4.426-2.67-1.9-2.612-1.188-5.792-.486-10.213.895-5.609,1.169-11.3,1.78-16.943.342-3.156.75-7.759.914-13.436A35.609,35.609,0,0,1,474.807,147.7a39.1,39.1,0,0,1,1.583,21.9Z" transform="translate(-460.789 -133.24)" fill="none"/>
          </g>
          <g id="Grupo_116340" data-name="Grupo 116340" transform="translate(10.747 24.25)">
            <g id="Grupo_116339" data-name="Grupo 116339" transform="translate(12.184)">
              <path id="Trazado_171089" data-name="Trazado 171089" d="M442.718,190.706s-7.115-7.731-10.29-6.162,2.631,8.452,4.83,8.861S442.718,190.706,442.718,190.706Z" transform="translate(-431.16 -184.004)" fill="#e7a182"/>
              <path id="Trazado_171090" data-name="Trazado 171090" d="M437.305,193.425a2.618,2.618,0,0,1-.476-.043c-1.91-.356-5.633-4.508-6-7.206a2.016,2.016,0,0,1,1.087-2.29c3.367-1.655,10.391,5.917,10.689,6.239a.338.338,0,0,1-.014.471c-.13.125-3,2.829-5.282,2.829Zm-4.272-9.111a1.843,1.843,0,0,0-.823.178,1.366,1.366,0,0,0-.717,1.592c.351,2.535,3.959,6.355,5.46,6.634,1.669.313,4.137-1.7,4.916-2.386-1.891-2-6.273-6.018-8.837-6.018Z" transform="translate(-430.794 -183.649)" fill="#e7a182"/>
            </g>
            <path id="Trazado_171091" data-name="Trazado 171091" d="M430.161,213.791c-2.136,2.343-5.388.534-11.868,1.419l-.091.01a31.325,31.325,0,0,1-3.906.269c-2.232,0-4.676-.322-5.393-1.64a2.55,2.55,0,0,1-.3-1.607,3.031,3.031,0,0,1,1.65-1.775c.861-.52,3.1.332,3.324.284.38-.087-.664,1.01-.192.9-4.286.265-6.566-.274-7.052-1.626a2.717,2.717,0,0,1,.645-2.449,5.108,5.108,0,0,1-.943-.88,3.27,3.27,0,0,1-.322-2.564c.168-.779,1.049-1.727,5.46-2.641-2.872-.1-5.176-.64-5.624-2.049a2.426,2.426,0,0,1,.091-1.5c.832-2.275,6.018-2.829,6.6-2.882,3.695-.351,8.664-1.058,14.99-2.016a.367.367,0,0,1,.245.058,12.292,12.292,0,0,1,2.978,2.925c3.315,4.623,4.012,13.056-.289,17.765Z" transform="translate(-405.467 -188.525)" fill="#f8ae8e"/>
            <path id="Trazado_171092" data-name="Trazado 171092" d="M417.348,209.395a.37.37,0,0,1-.37-.332.378.378,0,0,1,.332-.419l8.313-.967a.378.378,0,1,1,.087.75l-8.313.967h-.043Z" transform="translate(-411.439 -196.117)" fill="#e7a182"/>
            <path id="Trazado_171093" data-name="Trazado 171093" d="M410.473,221.967a.376.376,0,0,1-.043-.75l12.142-1.28a.375.375,0,0,1,.082.746l-12.142,1.28h-.039Z" transform="translate(-407.869 -202.479)" fill="#e7a182"/>
            <path id="Trazado_171094" data-name="Trazado 171094" d="M420.993,231.583a.38.38,0,0,1-.375-.346.373.373,0,0,1,.342-.4l6.764-.553a.374.374,0,0,1,.063.746l-6.764.553h-.029Z" transform="translate(-413.329 -207.847)" fill="#e7a182"/>
          </g>
          <path id="Trazado_171095" data-name="Trazado 171095" d="M459.854,144.6c1.434,5.287,6.759,12,8.192,17.284-4.936.8-8.914.8-13.98,1.525l-1.087,21.7c16.914-1.179,29.83-7.885,31.249-15.793.63-3.526-.75-7.615-4.459-15.36a47.736,47.736,0,0,0-7.981-11.526c-2.376-2.631-9.044-7.6-11.935-8.317a29.5,29.5,0,0,0,0,10.487Z" transform="translate(-419.377 -133.691)" fill="#a9bce6"/>
          <path id="Trazado_171096" data-name="Trazado 171096" d="M459.854,144.6c1.434,5.287,6.759,12,8.192,17.284-4.936.8-8.914.8-13.98,1.525l-1.087,21.7c16.914-1.179,29.83-7.885,31.249-15.793.63-3.526-.75-7.615-4.459-15.36a47.736,47.736,0,0,0-7.981-11.526c-2.376-2.631-9.044-7.6-11.935-8.317a29.5,29.5,0,0,0,0,10.487Z" transform="translate(-419.377 -133.691)" fill="#75b52f"/>
        </g>
        <g id="Grupo_116342" data-name="Grupo 116342" transform="translate(186.531 130.702)">
          <rect id="Rectángulo_42828" data-name="Rectángulo 42828" width="5.575" height="34.415" transform="translate(0.364 1.819) rotate(-14.84)" fill="#a9bce6"/>
          <path id="Trazado_171097" data-name="Trazado 171097" d="M396.94,307.127a.37.37,0,0,1-.356-.274l-8.818-33.265a.368.368,0,0,1,.26-.452l5.393-1.429a.372.372,0,0,1,.452.26l8.818,33.265a.372.372,0,0,1-.265.452l-5.393,1.429a.333.333,0,0,1-.1.014Zm-8.366-33.371,8.63,32.553,4.681-1.241-8.63-32.553Z" transform="translate(-387.753 -271.694)" fill="#a9bce6"/>
        </g>
        <g id="Grupo_116343" data-name="Grupo 116343" transform="translate(237.455 128.809)">
          <path id="Trazado_171098" data-name="Trazado 171098" d="M494.37,268.52l0,5.224.014,30.586h5.575l-.014-30.586V268.52Z" transform="translate(-494.004 -268.154)" fill="#a9bce6"/>
          <path id="Trazado_171099" data-name="Trazado 171099" d="M493.995,304.306a.371.371,0,0,1-.37-.37l-.014-35.81a.361.361,0,0,1,.366-.366h5.58a.371.371,0,0,1,.37.37l.014,35.81a.361.361,0,0,1-.366.366H494Zm.351-35.81.014,35.074H499.2l-.014-35.074h-4.844Z" transform="translate(-493.61 -267.76)" fill="#a9bce6"/>
        </g>
        <g id="Grupo_116344" data-name="Grupo 116344" transform="translate(178.087 128.814)">
          <path id="Trazado_171100" data-name="Trazado 171100" d="M370.96,271.132a2.611,2.611,0,0,0,2.612,2.612h65.116a2.612,2.612,0,1,0,0-5.224H373.572a2.611,2.611,0,0,0-2.612,2.612Z" transform="translate(-370.594 -268.159)" fill="#a9bce6"/>
          <path id="Trazado_171101" data-name="Trazado 171101" d="M438.294,273.725H373.178a2.978,2.978,0,0,1,0-5.955h65.116a2.978,2.978,0,1,1,0,5.955ZM373.178,268.5a2.242,2.242,0,0,0,0,4.483h65.116a2.242,2.242,0,1,0,0-4.483Z" transform="translate(-370.2 -267.77)" fill="#a9bce6"/>
        </g>
        <path id="Trazado_171102" data-name="Trazado 171102" d="M500.12,159.83c.029,0,.058.014.087.019h0Z" transform="translate(-259.534 -82.941)" fill="#93a1d0"/>
        <g id="Grupo_116345" data-name="Grupo 116345" transform="translate(98.41 132.634)">
          <rect id="Rectángulo_42829" data-name="Rectángulo 42829" width="74.804" height="5.407" transform="translate(75.175 5.777) rotate(180)" fill="#a9bce6"/>
          <path id="Trazado_171103" data-name="Trazado 171103" d="M279.745,281.858h-74.8a.371.371,0,0,1-.37-.37V276.08a.371.371,0,0,1,.37-.37h74.8a.371.371,0,0,1,.37.37v5.407A.371.371,0,0,1,279.745,281.858Zm-74.434-.736h74.068v-4.671H205.311Z" transform="translate(-204.57 -275.71)" fill="#a9bce6"/>
        </g>
        <g id="Grupo_116346" data-name="Grupo 116346" transform="translate(170.689 113.348)">
          <rect id="Rectángulo_42830" data-name="Rectángulo 42830" width="5.229" height="100.036" transform="translate(5.599 100.262) rotate(180)" fill="#a9bce6"/>
          <path id="Trazado_171104" data-name="Trazado 171104" d="M360.419,336.1H355.19c-.2,0-.37-.1-.37-.221V235.841c0-.12.164-.221.37-.221h5.229c.2,0,.37.1.37.221V335.877C360.79,336,360.626,336.1,360.419,336.1Zm-4.859-.438h4.488v-99.6h-4.488Z" transform="translate(-354.82 -235.62)" fill="#a9bce6"/>
        </g>
        <g id="Grupo_116347" data-name="Grupo 116347" transform="translate(97.327 113.348)">
          <rect id="Rectángulo_42831" data-name="Rectángulo 42831" width="5.229" height="100.036" transform="translate(5.599 100.262) rotate(180)" fill="#a9bce6"/>
          <path id="Trazado_171105" data-name="Trazado 171105" d="M207.92,336.1H202.69c-.2,0-.37-.1-.37-.221V235.841c0-.12.164-.221.37-.221h5.229c.2,0,.37.1.37.221V335.877C208.29,336,208.126,336.1,207.92,336.1Zm-4.859-.438h4.488v-99.6h-4.488Z" transform="translate(-202.32 -235.62)" fill="#a9bce6"/>
        </g>
        <g id="Grupo_116348" data-name="Grupo 116348" transform="translate(91.742 108.302)">
          <rect id="Rectángulo_42832" data-name="Rectángulo 42832" width="91.026" height="6.85" transform="translate(91.391 7.225) rotate(180)" fill="#a9bce6"/>
          <path id="Trazado_171106" data-name="Trazado 171106" d="M282.106,232.721H191.08a.371.371,0,0,1-.37-.37V225.5a.371.371,0,0,1,.37-.37h91.026a.371.371,0,0,1,.37.37v6.85A.371.371,0,0,1,282.106,232.721Zm-90.655-.736h90.29v-6.114H191.446v6.114Z" transform="translate(-190.71 -225.13)" fill="#a9bce6"/>
        </g>
        <path id="Trazado_171107" data-name="Trazado 171107" d="M407.384,96.594c-.236-4.4,4.286-5.3,4.286-5.3-2.583-1.424-3.6-6.1-.986-8.471A9.227,9.227,0,0,1,409.3,80,9.56,9.56,0,0,1,409,76.519a15.059,15.059,0,0,1,.933-3.8c.087-.241.178-.486.279-.741a7.617,7.617,0,0,1,3.132-3.464,13.821,13.821,0,0,1,5.022-2.218,10.823,10.823,0,0,1,13.272,10.694,5.458,5.458,0,0,1,3.411.178,5.255,5.255,0,0,1,2.487,2.15,6.7,6.7,0,0,1,.779,5.268h0c3.223-.351,5.248,3.021,5.383,6.307a6.913,6.913,0,0,1-4.9,6.793,14.919,14.919,0,0,1-9.6-.462l-1.2-8.914a6.246,6.246,0,0,1-.823-.8,6.359,6.359,0,0,1-1.506-4.209c-.043-1.948.366-2.882-.159-3.55-.895-1.15-4.2-1.135-14.254,3.363L423.6,93.573s1.241,6.552-6.716,8.678S407.606,101,407.37,96.6Z" transform="translate(-211.402 -34.262)" fill="#292466"/>
        <g id="Grupo_116349" data-name="Grupo 116349" transform="translate(207.328 47.682)">
          <path id="Trazado_171108" data-name="Trazado 171108" d="M431.059,103.337l2.53,13.542a3.577,3.577,0,0,0,3.988,2.578,9.292,9.292,0,0,0,2.035-.4,3.554,3.554,0,0,0,2.7-3.815l-2.53-13.537c-.332-1.785-2.376-2.915-4.546-2.506l-.842.159C432.223,99.763,430.722,101.552,431.059,103.337Z" transform="translate(-430.999 -99.116)" fill="#e7a182"/>
          <path id="Trazado_171109" data-name="Trazado 171109" d="M431.03,103.348c-.332-1.785,1.164-3.574,3.334-3.978l.842-.159c2.17-.4,4.214.722,4.546,2.506l.712,3.805a4.557,4.557,0,0,1-1.684,3.194,22.449,22.449,0,0,1-6.1,3.5l-1.655-8.871Z" transform="translate(-430.984 -99.123)" fill="#e7a182"/>
        </g>
        <path id="Trazado_171110" data-name="Trazado 171110" d="M418.615,104.769a5.888,5.888,0,0,0,2.593.919,4.663,4.663,0,0,0,1.106-.063c1.578-.293,2.93-1.424,4.676-2.882,1.655-1.381,2.655-2.213,3.112-3.646.313-.986.173-2.006-.091-3.863l-.087-.6a6.42,6.42,0,0,0,1.232-1.867,3.693,3.693,0,0,0,.332-3.064,2.528,2.528,0,0,0-2.208-1.583,2.038,2.038,0,0,0-1.3.7,3.3,3.3,0,0,0-.476-.423,19.162,19.162,0,0,0-2.2-1.357c-.385-.207-.765-.4-1.159-.582a.37.37,0,0,0-.3,0,12.991,12.991,0,0,1-8.847.2.184.184,0,0,1-.048-.014,1.535,1.535,0,0,0-1.174.289,1.449,1.449,0,0,0-.447,1.212v.01c.067,1.4.8,13.763,5.287,16.621Z" transform="translate(-214.493 -44.847)" fill="#f8ae8e"/>
        <path id="Trazado_171111" data-name="Trazado 171111" d="M446.028,96.6a.388.388,0,0,0,.183-.091,2.377,2.377,0,0,0,.241-3.117.878.878,0,0,0-1.275-.159.356.356,0,1,0,.447.553c.053-.043.135-.111.293.072a1.658,1.658,0,0,1-.2,2.131.353.353,0,0,0-.01.505.357.357,0,0,0,.322.106Z" transform="translate(-230.952 -48.271)" fill="#292466"/>
        <g id="Grupo_116350" data-name="Grupo 116350" transform="translate(198.978 44.465)">
          <path id="Trazado_171112" data-name="Trazado 171112" d="M429.513,99.3c.125.673-.048,1.27-.385,1.337s-.717-.433-.842-1.106.048-1.27.385-1.337S429.388,98.626,429.513,99.3Z" transform="translate(-421.213 -95.417)" fill="#292466"/>
          <path id="Trazado_171113" data-name="Trazado 171113" d="M418.643,100.881c.125.673-.048,1.27-.385,1.337s-.717-.433-.842-1.106.048-1.27.385-1.337S418.518,100.207,418.643,100.881Z" transform="translate(-415.572 -96.238)" fill="#292466"/>
          <path id="Trazado_171114" data-name="Trazado 171114" d="M427.114,92.92a1.069,1.069,0,0,1,1.087-.486,4.251,4.251,0,0,1,1.722,1.058c.231.279-.01.433-.375.284a4.392,4.392,0,0,0-1.414-.38c-.39.024-.9.192-1.02.019a.478.478,0,0,1,0-.5Z" transform="translate(-420.59 -92.429)" fill="#292466"/>
          <path id="Trazado_171115" data-name="Trazado 171115" d="M416.212,94.563a1.076,1.076,0,0,0-1.183-.168,4.227,4.227,0,0,0-1.361,1.491c-.144.332.125.414.443.173a4.478,4.478,0,0,1,1.256-.755c.38-.087.919-.063.986-.26a.478.478,0,0,0-.139-.476Z" transform="translate(-413.627 -93.398)" fill="#292466"/>
          <path id="Trazado_171116" data-name="Trazado 171116" d="M432.373,106.145a2.349,2.349,0,1,0,.827-2.66A2.013,2.013,0,0,0,432.373,106.145Z" transform="translate(-423.227 -97.88)" fill="#fe4f5a" opacity="0.36"/>
        </g>
        <path id="Trazado_171117" data-name="Trazado 171117" d="M445.126,102.477a1.277,1.277,0,1,1,1.491,1.02A1.278,1.278,0,0,1,445.126,102.477Z" transform="translate(-230.984 -52.393)" fill="#75b52f"/>
        <path id="Trazado_171118" data-name="Trazado 171118" d="M425.665,117.668c-.914,0-2.107-1.631-2.6-2.367a.374.374,0,0,1,.058-.481.379.379,0,0,1,.486-.024,1.289,1.289,0,0,0,1.169.135,3.494,3.494,0,0,0,1.092-.813.371.371,0,0,1,.385-.106.381.381,0,0,1,.265.3c.144.9.375,3.04-.654,3.334a.64.64,0,0,1-.192.024Zm-1.323-1.9c.563.688,1.106,1.188,1.313,1.159.178-.053.279-.818.2-1.775a2.988,2.988,0,0,1-.827.491A1.953,1.953,0,0,1,424.343,115.763Z" transform="translate(-219.513 -59.156)" fill="#292466"/>
        <g id="Grupo_116362" data-name="Grupo 116362" transform="translate(19.169 1.181)">
          <g id="Background_4" data-name="Background 4" transform="translate(41.287 -23.355)">
            <g id="background_3" data-name="background 3">
              <g id="Grupo_116354" data-name="Grupo 116354">
                <g id="Grupo_116351" data-name="Grupo 116351">
                  <path id="Trazado_171119" data-name="Trazado 171119" d="M5.618,113.723l39.261-4.632c2.571-.3,4.635-3.005,4.635-6.035V10.7c0-3.029-2.064-5.73-4.635-6.034L5.618.033C2.533-.331,0,2.1,0,5.48v102.8C0,111.652,2.533,114.087,5.618,113.723Z" transform="translate(0 0.003)" fill="#1c478d"/>
                  <path id="Trazado_171120" data-name="Trazado 171120" d="M5.618,113.723l39.261-4.632c2.571-.3,4.635-3.005,4.635-6.035V10.7c0-3.029-2.064-5.73-4.635-6.034L5.618.033C2.533-.331,0,2.1,0,5.48v102.8C0,111.652,2.533,114.087,5.618,113.723Z" transform="translate(0 0.003)" fill="#1c478d"/>
                  <path id="Trazado_171121" data-name="Trazado 171121" d="M5.618,113.723l39.261-4.632c2.571-.3,4.635-3.005,4.635-6.035V10.7c0-3.029-2.064-5.73-4.635-6.034L5.618.033C2.533-.331,0,2.1,0,5.48v102.8C0,111.652,2.533,114.087,5.618,113.723Z" transform="translate(0 0.003)" fill="#1c478d"/>
                </g>
                <g id="Grupo_116352" data-name="Grupo 116352">
                  <path id="Trazado_171122" data-name="Trazado 171122" d="M5.618,113.723l39.261-4.632c2.571-.3,4.635-3.005,4.635-6.035V10.7c0-3.029-2.064-5.73-4.635-6.034L5.618.033C2.533-.331,0,2.1,0,5.48v102.8C0,111.652,2.533,114.087,5.618,113.723Z" transform="translate(0 0.003)" fill="#1c478d"/>
                  <path id="Trazado_171123" data-name="Trazado 171123" d="M5.618,113.723l39.261-4.632c2.571-.3,4.635-3.005,4.635-6.035V10.7c0-3.029-2.064-5.73-4.635-6.034L5.618.033C2.533-.331,0,2.1,0,5.48v102.8C0,111.652,2.533,114.087,5.618,113.723Z" transform="translate(0 0.003)" fill="#1c478d"/>
                  <path id="Trazado_171124" data-name="Trazado 171124" d="M5.618,113.723l39.261-4.632c2.571-.3,4.635-3.005,4.635-6.035V10.7c0-3.029-2.064-5.73-4.635-6.034L5.618.033C2.533-.331,0,2.1,0,5.48v102.8C0,111.652,2.533,114.087,5.618,113.723Z" transform="translate(0 0.003)" fill="#1c478d"/>
                </g>
                <g id="Grupo_116353" data-name="Grupo 116353">
                  <path id="Trazado_171125" data-name="Trazado 171125" d="M5.618,113.723l39.261-4.632c2.571-.3,4.635-3.005,4.635-6.035V10.7c0-3.029-2.064-5.73-4.635-6.034L5.618.033C2.533-.331,0,2.1,0,5.48v102.8C0,111.652,2.533,114.087,5.618,113.723Z" transform="translate(0 0.003)" fill="#0e2b56"/>
                  <path id="Trazado_171126" data-name="Trazado 171126" d="M5.618,113.723l39.261-4.632c2.571-.3,4.635-3.005,4.635-6.035V10.7c0-3.029-2.064-5.73-4.635-6.034L5.618.033C2.533-.331,0,2.1,0,5.48v102.8C0,111.652,2.533,114.087,5.618,113.723Z" transform="translate(0 0.003)" fill="#0e2b56"/>
                  <path id="Trazado_171127" data-name="Trazado 171127" d="M5.618,113.723l39.261-4.632c2.571-.3,4.635-3.005,4.635-6.035V10.7c0-3.029-2.064-5.73-4.635-6.034L5.618.033C2.533-.331,0,2.1,0,5.48v102.8C0,111.652,2.533,114.087,5.618,113.723Z" transform="translate(0 0.003)" fill="#0e2b56"/>
                </g>
              </g>
              <path id="Trazado_171128" data-name="Trazado 171128" d="M17.95,114.082l40.975-4.835c1.907-.224,3.435-2.246,3.435-4.52V10.544c0-2.274-1.532-4.3-3.435-4.52L17.95,1.19a3.828,3.828,0,0,0-4.18,4.082V110a3.828,3.828,0,0,0,4.18,4.082Z" transform="translate(-8.953 -0.755)" fill="#f75316"/>
              <path id="Trazado_171129" data-name="Trazado 171129" d="M18.213,19.328V114.2c0,3.113,2.309,5.377,5.125,5.062l36.046-4.023c2.379-.266,4.285-2.764,4.285-5.583V23.75a6.289,6.289,0,0,0-.315-1.966,5.02,5.02,0,0,0-3.971-3.6l-36.05-3.932a4.527,4.527,0,0,0-4.74,2.981,5.744,5.744,0,0,0-.385,2.1Z" transform="translate(-11.84 -9.245)" fill="#f8fafe"/>
              <path id="Trazado_171130" data-name="Trazado 171130" d="M3.39,45.282v9.865l2.1.133v-9.82a1.21,1.21,0,0,0-1.046-1.217.926.926,0,0,0-.742.269,1.088,1.088,0,0,0-.308.777Z" transform="translate(-2.204 -28.763)" fill="#fff"/>
              <path id="Trazado_171131" data-name="Trazado 171131" d="M5.5,80.732,3.4,80.61V93.421a1.136,1.136,0,0,0,1.049,1.165,1.051,1.051,0,0,0,1.046-1.1Z" transform="translate(-2.211 -52.41)" fill="#fff"/>
              <path id="Trazado_171132" data-name="Trazado 171132" d="M4.369,162.129h0a1.123,1.123,0,0,0,1.046-1.154V143.7a1.109,1.109,0,0,0-1.046-1.144h0a1.076,1.076,0,0,0-1.049,1.119v17.348a1.06,1.06,0,0,0,1.049,1.105Z" transform="translate(-2.159 -92.688)" fill="#fff"/>
              <g id="Grupo_116358" data-name="Grupo 116358" transform="translate(29.914 3.575)">
                <g id="Grupo_116355" data-name="Grupo 116355">
                  <path id="Trazado_171133" data-name="Trazado 171133" d="M85.51,11.6a1.655,1.655,0,0,0,1.336,1.683,1.262,1.262,0,0,0,1.329-1.378,1.66,1.66,0,0,0-1.329-1.683A1.26,1.26,0,0,0,85.51,11.6Z" transform="translate(-85.51 -10.216)" fill="none"/>
                  <path id="Trazado_171134" data-name="Trazado 171134" d="M85.51,11.6a1.655,1.655,0,0,0,1.336,1.683,1.262,1.262,0,0,0,1.329-1.378,1.66,1.66,0,0,0-1.329-1.683A1.26,1.26,0,0,0,85.51,11.6Z" transform="translate(-85.51 -10.216)" fill="none"/>
                  <path id="Trazado_171135" data-name="Trazado 171135" d="M85.51,11.6a1.655,1.655,0,0,0,1.336,1.683,1.262,1.262,0,0,0,1.329-1.378,1.66,1.66,0,0,0-1.329-1.683A1.26,1.26,0,0,0,85.51,11.6Z" transform="translate(-85.51 -10.216)" fill="none"/>
                </g>
                <g id="Grupo_116356" data-name="Grupo 116356">
                  <path id="Trazado_171136" data-name="Trazado 171136" d="M85.51,11.6a1.655,1.655,0,0,0,1.336,1.683,1.262,1.262,0,0,0,1.329-1.378,1.66,1.66,0,0,0-1.329-1.683A1.26,1.26,0,0,0,85.51,11.6Z" transform="translate(-85.51 -10.216)" fill="#d1e2dc"/>
                  <path id="Trazado_171137" data-name="Trazado 171137" d="M85.51,11.6a1.655,1.655,0,0,0,1.336,1.683,1.262,1.262,0,0,0,1.329-1.378,1.66,1.66,0,0,0-1.329-1.683A1.26,1.26,0,0,0,85.51,11.6Z" transform="translate(-85.51 -10.216)" fill="#d1e2dc"/>
                  <path id="Trazado_171138" data-name="Trazado 171138" d="M85.51,11.6a1.655,1.655,0,0,0,1.336,1.683,1.262,1.262,0,0,0,1.329-1.378,1.66,1.66,0,0,0-1.329-1.683A1.26,1.26,0,0,0,85.51,11.6Z" transform="translate(-85.51 -10.216)" fill="#fff"/>
                </g>
                <g id="Grupo_116357" data-name="Grupo 116357">
                  <path id="Trazado_171139" data-name="Trazado 171139" d="M85.51,11.6a1.655,1.655,0,0,0,1.336,1.683,1.262,1.262,0,0,0,1.329-1.378,1.66,1.66,0,0,0-1.329-1.683A1.26,1.26,0,0,0,85.51,11.6Z" transform="translate(-85.51 -10.216)" fill="none"/>
                  <path id="Trazado_171140" data-name="Trazado 171140" d="M85.51,11.6a1.655,1.655,0,0,0,1.336,1.683,1.262,1.262,0,0,0,1.329-1.378,1.66,1.66,0,0,0-1.329-1.683A1.26,1.26,0,0,0,85.51,11.6Z" transform="translate(-85.51 -10.216)" fill="none"/>
                  <path id="Trazado_171141" data-name="Trazado 171141" d="M85.51,11.6a1.655,1.655,0,0,0,1.336,1.683,1.262,1.262,0,0,0,1.329-1.378,1.66,1.66,0,0,0-1.329-1.683A1.26,1.26,0,0,0,85.51,11.6Z" transform="translate(-85.51 -10.216)" fill="none"/>
                </g>
              </g>
              <g id="Grupo_116359" data-name="Grupo 116359" transform="translate(6.374 98.767)">
                <path id="Trazado_171142" data-name="Trazado 171142" d="M18.22,286.7v1.812c0,3.113,2.309,5.377,5.125,5.062l36.046-4.023c2.379-.266,4.285-2.764,4.285-5.583V282.33L18.22,286.7Z" transform="translate(-18.22 -282.33)" fill="#d1e2dc"/>
                <path id="Trazado_171143" data-name="Trazado 171143" d="M18.22,286.7v1.812c0,3.113,2.309,5.377,5.125,5.062l36.046-4.023c2.379-.266,4.285-2.764,4.285-5.583V282.33L18.22,286.7Z" transform="translate(-18.22 -282.33)" fill="#0e2b56"/>
              </g>
            </g>
          </g>
          <g id="Grupo_116360" data-name="Grupo 116360" transform="translate(54.9 41.493)">
            <path id="Trazado_171144" data-name="Trazado 171144" d="M73.856,213.524l-4.765,2.737-11.5-9.848,1.452-2.174q-2.535-.488-5.149-.993l-.054-.046-.025.033q-1.959-.376-3.964-.764,2.466,4.194,4.861,8.275l1.49-2.232,12.685,10.678,4.523-2.666,7.048,8.838,1.435-1.623-8.033-10.211Z" transform="translate(-49.85 -202.47)" fill="#0e2b56"/>
            <path id="Trazado_171145" data-name="Trazado 171145" d="M87.059,248.981l.013-7.974-4.043.092-.021,8.141-2.207.142.046-13.649-4.3-.021-.071,13.95-2.416.154.113-19.362-4.594-.134-.142,19.792-2.858.184,0,.839,23.46-1.594v-.751Z" transform="translate(-59.593 -218.699)" fill="#0e2b56"/>
          </g>
          <g id="Grupo_116361" data-name="Grupo 116361" transform="translate(53.256 -8.261)">
            <path id="Trazado_171146" data-name="Trazado 171146" d="M78.772,71.2,45.648,68.892a.241.241,0,0,1-.188-.259V66.839c0-.134.083-.238.188-.23l33.107,2.454c.092.008.163.117.167.242l.013,1.677c0,.125-.071.225-.163.217Z" transform="translate(-45.46 -66.609)" fill="#dbe636"/>
            <path id="Trazado_171147" data-name="Trazado 171147" d="M78.985,150.513l-33.337-.171c-.1,0-.188-.113-.188-.25v-1.815c0-.138.083-.246.188-.246l33.32.317c.092,0,.167.1.167.234l.013,1.7c0,.129-.071.234-.163.234Z" transform="translate(-45.46 -114.054)" fill="#dbe636"/>
            <path id="Trazado_171148" data-name="Trazado 171148" d="M61.363,86.993l-15.715-.88a.238.238,0,0,1-.188-.259V84.043c0-.138.083-.242.188-.234l15.711.951c.1,0,.175.117.179.25v1.753c0,.134-.071.234-.171.23Z" transform="translate(-45.46 -76.632)" fill="#75b52f"/>
            <path id="Trazado_171149" data-name="Trazado 171149" d="M108.533,89.771l-9.493-.534c-.075,0-.138-.092-.142-.2l-.008-1.824c0-.1.063-.188.138-.184l9.489.576c.075,0,.134.092.134.2l.013,1.786c0,.1-.058.184-.134.179Z" transform="translate(-76.594 -78.508)" fill="#75b52f"/>
            <path id="Trazado_171150" data-name="Trazado 171150" d="M61.384,101.9l-15.736-.693a.236.236,0,0,1-.188-.255V99.138c0-.138.083-.242.188-.238l15.728.764c.1,0,.175.117.179.25v1.757c0,.134-.071.238-.171.234Z" transform="translate(-45.46 -85.425)" fill="#75b52f"/>
            <path id="Trazado_171151" data-name="Trazado 171151" d="M108.606,104.119,99.1,103.7c-.075,0-.142-.092-.142-.2l-.008-1.828c0-.1.063-.188.138-.184l9.5.463c.075,0,.134.092.134.2l.013,1.79c0,.1-.058.184-.134.184Z" transform="translate(-76.629 -86.934)" fill="#75b52f"/>
            <path id="Trazado_171152" data-name="Trazado 171152" d="M61.4,116.841l-15.757-.5c-.1,0-.188-.117-.188-.255v-1.819c0-.138.083-.246.188-.242L61.4,114.6c.1,0,.175.113.179.246V116.6c0,.134-.071.238-.171.234Z" transform="translate(-45.46 -94.236)" fill="#75b52f"/>
            <path id="Trazado_171153" data-name="Trazado 171153" d="M108.684,118.5l-9.514-.3c-.075,0-.142-.092-.142-.2l-.008-1.832c0-.1.063-.192.138-.188l9.51.346c.075,0,.134.088.134.192l.013,1.8c0,.1-.058.188-.134.184Z" transform="translate(-76.67 -95.378)" fill="#75b52f"/>
            <path id="Trazado_171154" data-name="Trazado 171154" d="M61.431,131.827l-15.773-.317c-.1,0-.188-.117-.188-.255v-1.824c0-.138.083-.246.188-.242l15.765.388c.1,0,.179.113.179.246v1.765C61.606,131.723,61.531,131.827,61.431,131.827Z" transform="translate(-45.466 -103.076)" fill="#75b52f"/>
            <path id="Trazado_171155" data-name="Trazado 171155" d="M108.757,132.922l-9.527-.192c-.079,0-.142-.088-.142-.2L99.08,130.7c0-.1.063-.192.138-.188l9.522.234c.075,0,.134.088.138.192l.013,1.8c0,.1-.058.188-.134.188Z" transform="translate(-76.705 -103.845)" fill="#75b52f"/>
            <path id="Trazado_171156" data-name="Trazado 171156" d="M61.477,167.332l-15.819.134c-.1,0-.188-.108-.188-.25v-1.832c0-.138.083-.25.188-.25l15.811-.063c.1,0,.179.108.179.242v1.778C61.652,167.223,61.573,167.332,61.477,167.332Z" transform="translate(-45.466 -123.984)" fill="#75b52f"/>
            <path id="Trazado_171157" data-name="Trazado 171157" d="M108.942,167.1l-9.552.083c-.079,0-.142-.088-.142-.192l-.008-1.849c0-.108.063-.192.138-.2l9.547-.038c.075,0,.134.083.138.188l.013,1.811C109.075,167.013,109.017,167.1,108.942,167.1Z" transform="translate(-76.798 -123.89)" fill="#75b52f"/>
          </g>
        </g>
        <path id="Trazado_171158" data-name="Trazado 171158" d="M389.962,251.76l18.227,4.469-15.37,1.443h-5.59Z" transform="translate(-200.95 -130.648)" fill="#1c478d"/>
      </g>
    </g>
    <rect id="Rectángulo_42841" data-name="Rectángulo 42841" width="192" height="4" transform="translate(1120 9850)" fill="#89a259"/>
  </g>
</svg>
