<svg xmlns="http://www.w3.org/2000/svg" xmlns:xlink="http://www.w3.org/1999/xlink" width="365.399" height="367.449" viewBox="0 0 365.399 367.449">
  <defs>
    <linearGradient id="linear-gradient" x1="1.059" y1="0.884" x2="0.127" y2="-0.024" gradientUnits="objectBoundingBox">
      <stop offset="0" stop-color="#f85316"/>
      <stop offset="0.077" stop-color="#f85519"/>
      <stop offset="1" stop-color="#ff713d"/>
    </linearGradient>
    <linearGradient id="linear-gradient-2" x1="-0.09" y1="0.097" x2="0.867" y2="0.992" gradientUnits="objectBoundingBox">
      <stop offset="0" stop-color="#3d46c2"/>
      <stop offset="1" stop-color="#4752e3"/>
    </linearGradient>
  </defs>
  <g id="Grupo_116649" data-name="Grupo 116649" transform="translate(-970.547 -163.585)">
    <g id="Grupo_80127" data-name="Grupo 80127" transform="translate(978.396 171.433)">
      <path id="Trazado_113538" data-name="Trazado 113538" d="M3840.922-1085.1a173.755,173.755,0,0,1-68.059-13.74,174.251,174.251,0,0,1-55.578-37.471,174.263,174.263,0,0,1-37.471-55.578,173.762,173.762,0,0,1-13.742-68.059,173.767,173.767,0,0,1,13.742-68.06,174.273,174.273,0,0,1,37.471-55.578,174.265,174.265,0,0,1,55.578-37.471,173.755,173.755,0,0,1,68.059-13.741,173.754,173.754,0,0,1,68.059,13.741,174.272,174.272,0,0,1,55.579,37.471,174.289,174.289,0,0,1,37.471,55.578,173.753,173.753,0,0,1,13.741,68.06,173.748,173.748,0,0,1-13.741,68.059,174.279,174.279,0,0,1-37.471,55.578,174.258,174.258,0,0,1-55.579,37.471A173.754,173.754,0,0,1,3840.922-1085.1Zm0-348.316c-95.65,0-173.467,77.817-173.467,173.467s77.817,173.468,173.467,173.468,173.468-77.818,173.468-173.468S3936.573-1433.42,3840.922-1433.42Z" transform="translate(-3666.072 1434.803)" fill="#fff"/>
    </g>
    <path id="Trazado_113539" data-name="Trazado 113539" d="M3817.589-1431.221h0a10.37,10.37,0,0,0,9.738,10.359,161.638,161.638,0,0,1,104.988,47.229,161.634,161.634,0,0,1,47.23,104.988,10.371,10.371,0,0,0,10.359,9.738h0a10.39,10.39,0,0,0,10.364-11.024A182.334,182.334,0,0,0,3947-1388.313a182.326,182.326,0,0,0-118.383-53.271A10.389,10.389,0,0,0,3817.589-1431.221Z" transform="translate(-2664.342 1605.188)" fill="url(#linear-gradient)"/>
    <path id="Trazado_113540" data-name="Trazado 113540" d="M3669.654-1283.287a10.39,10.39,0,0,0-10.363,11.025,182.317,182.317,0,0,0,53.271,118.381,182.321,182.321,0,0,0,118.384,53.273,10.389,10.389,0,0,0,11.024-10.364h0a10.369,10.369,0,0,0-9.737-10.358,161.632,161.632,0,0,1-104.99-47.231,161.629,161.629,0,0,1-47.229-104.987,10.371,10.371,0,0,0-10.36-9.738Z" transform="translate(-2688.725 1631.622)" fill="url(#linear-gradient-2)"/>
    <g id="Grupo_116473" data-name="Grupo 116473" transform="translate(13576.7 11882.204)">
      <path id="Trazado_113537" data-name="Trazado 113537" d="M3837.4-1423.881c-88.591,0-160.406,71.926-160.406,160.653s71.815,160.653,160.406,160.653,160.407-71.927,160.407-160.653S3925.992-1423.881,3837.4-1423.881Zm0,315.934c-85.627,0-155.043-69.522-155.043-155.281s69.415-155.283,155.043-155.283,155.043,69.522,155.043,155.283S3923.029-1107.946,3837.4-1107.946Z" transform="translate(-16264.361 -10269.323)" fill="#f3ff3f"/>
      <path id="Trazado_113541" data-name="Trazado 113541" d="M3992.278-1277.2c-3.632,78.442-71.584,140.979-154.889,140.979S3686.132-1198.761,3682.5-1277.2h-5.367c3.636,81.263,73.987,146.085,160.256,146.085s156.62-64.822,160.256-146.085Z" transform="translate(-16264.352 -10240.78)" fill="#f3ff3c"/>
    </g>
  </g>
</svg>
