<svg xmlns="http://www.w3.org/2000/svg" width="1240.833" height="655.951" viewBox="0 0 1240.833 655.951">
  <g id="Grupo_116649" data-name="Grupo 116649" transform="translate(-180.168 -248.5)">
    <line id="Línea_584" data-name="Línea 584" x2="65.627" transform="translate(626.467 269.933)" fill="none" stroke="#3e4bbf" stroke-miterlimit="10" stroke-width="2"/>
    <line id="Línea_585" data-name="Línea 585" y1="31.5" transform="translate(659.28 270)" fill="none" stroke="#3e4bbf" stroke-miterlimit="10" stroke-width="2"/>
    <g id="Grupo_116091" data-name="Grupo 116091" transform="translate(654.746 346.688)">
      <line id="Línea_586" data-name="Línea 586" x2="224.421" transform="translate(3.904 24.082)" fill="none" stroke="#3e4bbf" stroke-miterlimit="10" stroke-width="2"/>
    </g>
    <path id="Rectángulo_40598" data-name="Rectángulo 40598" d="M787.637,343.57h316.094c7.208,0,13.057,2.072,13.057,4.622v36.86c0,2.551-5.85,4.622-13.057,4.622H787.638c-7.208,0-13.057-2.072-13.057-4.622v-36.86c0-2.551,5.85-4.622,13.057-4.622Z" transform="translate(-174.992 143.718)" fill="#3d46c2"/>
    <line id="Línea_592" data-name="Línea 592" x1="929" transform="translate(277.668 552.136)" fill="none" stroke="#3e4bbf" stroke-miterlimit="10" stroke-width="2"/>
    <line id="Línea_593" data-name="Línea 593" y2="25.014" transform="translate(770.668 528.122)" fill="none" stroke="#3e4bbf" stroke-miterlimit="10" stroke-width="2"/>
    <path id="Rectángulo_40621" data-name="Rectángulo 40621" d="M641.574,89.3H807.553c3.11,0,5.634,1.686,5.634,3.763v37.518c0,2.078-2.524,3.763-5.634,3.763H641.574c-3.11,0-5.634-1.686-5.634-3.763V93.063c0-2.078,2.524-3.763,5.634-3.763Z" transform="translate(-65.272 212.7)" fill="#d1d5fc" stroke="#3e4bbf" stroke-width="2"/>
    <path id="Rectángulo_40621-2" data-name="Rectángulo 40621" d="M642.178,89.3H825.949c3.444,0,6.238,1.7,6.238,3.8V131c0,2.1-2.794,3.8-6.238,3.8H642.178c-3.444,0-6.238-1.7-6.238-3.8V93.1c0-2.1,2.795-3.8,6.238-3.8Z" transform="translate(147.728 212.7)" fill="#d1d5fc" stroke="#3e4bbf" stroke-width="2"/>
    <path id="Rectángulo_40621-3" data-name="Rectángulo 40621" d="M815.336.5H919.768a3.4,3.4,0,0,1,3.546,3.237V36.025a3.4,3.4,0,0,1-3.546,3.237H815.336a3.4,3.4,0,0,1-3.546-3.237V3.737A3.4,3.4,0,0,1,815.336.5Z" transform="translate(-120.122 248.5)" fill="#f9f69d" stroke="#dbe636" stroke-miterlimit="10" stroke-width="1"/>
    <path id="Rectángulo_40621-4" data-name="Rectángulo 40621" d="M534.016.5H638.448a3.4,3.4,0,0,1,3.546,3.237V36.025a3.4,3.4,0,0,1-3.546,3.237H534.016a3.4,3.4,0,0,1-3.546-3.237V3.737A3.4,3.4,0,0,1,534.016.5Z" transform="translate(-15.527 248.5)" fill="#f9f69d" stroke="#dbe636" stroke-miterlimit="10" stroke-width="1"/>
    <g id="Grupo_116103" data-name="Grupo 116103" transform="translate(279.12 632.082)">
      <line id="Línea_600" data-name="Línea 600" y2="254.018" transform="translate(0)" fill="none" stroke="#3e4bbf" stroke-miterlimit="10" stroke-width="2"/>
    </g>
    <line id="Línea_607" data-name="Línea 607" y1="12.595" transform="translate(770.918 371.405)" fill="none" stroke="#3e4bbf" stroke-miterlimit="10" stroke-width="2"/>
    <path id="Rectángulo_40599" data-name="Rectángulo 40599" d="M787.5,215.01H970.306a6.354,6.354,0,0,1,6.209,6.483v64.671a6.35,6.35,0,0,1-6.209,6.483H787.5a6.354,6.354,0,0,1-6.209-6.483V221.493a6.35,6.35,0,0,1,6.209-6.483Z" transform="translate(-108.622 168.99)" fill="#bae887" stroke="#77b43a" stroke-width="2"/>
    <g id="Grupo_116111" data-name="Grupo 116111" transform="translate(294.745 552.406) rotate(90)">
      <line id="Línea_558" data-name="Línea 558" x2="21.483" transform="translate(-0.004 16.157)" fill="none" stroke="#3e4bbf" stroke-miterlimit="10" stroke-width="2"/>
      <path id="Trazado_158597" data-name="Trazado 158597" d="M178.67,393.857V382.24l5.809,5.809Z" transform="translate(-162.096 -371.891)" fill="#3e4bbf"/>
    </g>
    <g id="Grupo_116121" data-name="Grupo 116121" transform="translate(1221.937 552.406) rotate(90)">
      <line id="Línea_558-2" data-name="Línea 558" x2="21.483" transform="translate(-0.004 16.157)" fill="none" stroke="#3e4bbf" stroke-miterlimit="10" stroke-width="2"/>
      <path id="Trazado_158597-2" data-name="Trazado 158597" d="M178.67,393.857V382.24l5.809,5.809Z" transform="translate(-162.096 -371.891)" fill="#3e4bbf"/>
    </g>
    <text id="Archivos_y_valoración_documental" data-name="Archivos y valoración documental" transform="translate(612.588 518.34)" fill="#fff" font-size="20" font-family="Roboto-Bold, Roboto" font-weight="700"><tspan x="0" y="0">Archivos y valoración documental</tspan></text>
    <path id="Trazado_170520" data-name="Trazado 170520" d="M0,28.6" transform="translate(739.635 532.056)" fill="none" stroke="#3e4bbf" stroke-width="2"/>
    <text id="Las_nuevas_tecnologías_y_su_aplicación_a_la_gestión_documental" data-name="Las nuevas tecnologías
y su aplicación a la
gestión documental" transform="translate(770.168 408.5)" fill="#14263e" font-size="16" font-family="Roboto-Bold, Roboto" font-weight="700"><tspan x="-84.344" y="0">Las nuevas tecnologías</tspan><tspan x="-68.066" y="21">y su aplicación a la</tspan><tspan x="-71.348" y="42">gestión documental</tspan></text>
    <g id="Grupo_116088" data-name="Grupo 116088" transform="translate(583.712 639.921)">
      <line id="Línea_580" data-name="Línea 580" y2="162.094" fill="none" stroke="#3e4bbf" stroke-miterlimit="10" stroke-width="2"/>
    </g>
    <path id="Rectángulo_40621-5" data-name="Rectángulo 40621" d="M639.083,606.98H785.268c2.739,0,4.963,1.461,4.963,3.262v32.521c0,1.8-2.223,3.262-4.963,3.262H639.083c-2.739,0-4.963-1.461-4.963-3.262V610.242C634.12,608.441,636.343,606.98,639.083,606.98Z" transform="translate(-25.059 47.334)" fill="#d1d5fc" stroke="#3e4bbf" stroke-width="2"/>
    <path id="Rectángulo_40621-6" data-name="Rectángulo 40621" d="M639.083,702.34H785.268c2.739,0,4.963,1.461,4.963,3.262v32.521c0,1.8-2.223,3.262-4.963,3.262H639.083c-2.739,0-4.963-1.461-4.963-3.262V705.6C634.12,703.8,636.343,702.34,639.083,702.34Z" transform="translate(-25.059 11.975)" fill="#d1d5fc" stroke="#3e4bbf" stroke-width="2"/>
    <path id="Rectángulo_40621-7" data-name="Rectángulo 40621" d="M639.083,806.03H785.268c2.739,0,4.963,1.423,4.963,3.187v31.765c0,1.757-2.223,3.187-4.963,3.187H639.083c-2.739,0-4.963-1.423-4.963-3.187V809.217C634.12,807.46,636.343,806.03,639.083,806.03Z" transform="translate(-25.059 -26.715)" fill="#d1d5fc" stroke="#3e4bbf" stroke-width="2"/>
    <path id="Rectángulo_40599-2" data-name="Rectángulo 40599" d="M444.309,484.29H627.116c3.426,0,6.209,2.355,6.209,5.258V542c0,2.9-2.777,5.258-6.209,5.258H444.309c-3.426,0-6.209-2.355-6.209-5.258V489.548c0-2.9,2.777-5.258,6.209-5.258Z" transform="translate(48.068 92.655)" fill="#bae887" stroke="#77b43a" stroke-width="2"/>
    <g id="Grupo_116107" data-name="Grupo 116107" transform="translate(582.527 667.104)">
      <line id="Línea_558-3" data-name="Línea 558" x2="21.483" transform="translate(0 5.348)" fill="none" stroke="#3e4bbf" stroke-miterlimit="10" stroke-width="2"/>
      <path id="Trazado_158597-3" data-name="Trazado 158597" d="M178.67,393.857V382.24l5.809,5.809Z" transform="translate(-160.096 -382.24)" fill="#3e4bbf"/>
    </g>
    <g id="Grupo_116110" data-name="Grupo 116110" transform="translate(599.527 552.171) rotate(90)">
      <line id="Línea_558-4" data-name="Línea 558" x2="23.033" transform="translate(-0.004 16.157)" fill="none" stroke="#3e4bbf" stroke-miterlimit="10" stroke-width="2"/>
      <path id="Trazado_158597-4" data-name="Trazado 158597" d="M178.67,393.857V382.24l5.809,5.809Z" transform="translate(-160.546 -371.891)" fill="#3e4bbf"/>
    </g>
    <g id="Grupo_116122" data-name="Grupo 116122" transform="translate(754.819 487.284) rotate(-90)">
      <line id="Línea_558-5" data-name="Línea 558" x2="23.033" transform="translate(-0.004 16.157)" fill="none" stroke="#3e4bbf" stroke-miterlimit="10" stroke-width="2"/>
      <path id="Trazado_158597-5" data-name="Trazado 158597" d="M178.67,393.857V382.24l5.809,5.809Z" transform="translate(-160.546 -371.891)" fill="#3e4bbf"/>
    </g>
    <g id="Grupo_116123" data-name="Grupo 116123" transform="translate(643.123 371.401) rotate(-90)">
      <line id="Línea_558-6" data-name="Línea 558" x2="23.033" transform="translate(-0.004 16.157)" fill="none" stroke="#3e4bbf" stroke-miterlimit="10" stroke-width="2"/>
      <path id="Trazado_158597-6" data-name="Trazado 158597" d="M178.67,393.857V382.24l5.809,5.809Z" transform="translate(-160.546 -371.891)" fill="#3e4bbf"/>
    </g>
    <g id="Grupo_116124" data-name="Grupo 116124" transform="translate(866.123 371.401) rotate(-90)">
      <line id="Línea_558-7" data-name="Línea 558" x2="23.033" transform="translate(-0.004 16.157)" fill="none" stroke="#3e4bbf" stroke-miterlimit="10" stroke-width="2"/>
      <path id="Trazado_158597-7" data-name="Trazado 158597" d="M178.67,393.857V382.24l5.809,5.809Z" transform="translate(-160.546 -371.891)" fill="#3e4bbf"/>
    </g>
    <path id="Trazado_170522" data-name="Trazado 170522" d="M0,0H21.483" transform="translate(582.527 739.451)" fill="none" stroke="#3e4bbf" stroke-width="2"/>
    <line id="Línea_610" data-name="Línea 610" x2="21.483" transform="translate(583.527 800.912)" fill="none" stroke="#3e4bbf" stroke-miterlimit="10" stroke-width="2"/>
    <path id="Trazado_158597-8" data-name="Trazado 158597" d="M178.67,393.857V382.24l5.809,5.809Z" transform="translate(422.432 351.863)" fill="#3e4bbf"/>
    <path id="Trazado_158597-9" data-name="Trazado 158597" d="M178.67,393.857V382.24l5.809,5.809Z" transform="translate(422.432 412.863)" fill="#3e4bbf"/>
    <text id="Preservación_documental_digital" data-name="Preservación
documental digital" transform="translate(585.981 601.717)" fill="#14263e" font-size="16" font-family="Roboto-Bold, Roboto" font-weight="700"><tspan x="-47.398" y="0">Preservación</tspan><tspan x="-66.945" y="21">documental digital</tspan></text>
    <text id="Duración_corta" data-name="Duración corta" transform="translate(687.562 680.814)" fill="#14263e" font-size="16" font-family="Roboto-Regular, Roboto"><tspan x="-52.262" y="0">Duración corta</tspan></text>
    <text id="Soportes_electrónicos" data-name="Soportes electrónicos" transform="translate(659.168 331.5)" fill="#14263e" font-size="16" font-family="Roboto-Regular, Roboto"><tspan x="-77.938" y="0">Soportes electrónicos</tspan></text>
    <text id="Redes_correo_electrónico_internet_e_intranet" data-name="Redes, correo electrónico,
internet e intranet" transform="translate(882.168 320.5)" fill="#14263e" font-size="16" font-family="Roboto-Regular, Roboto"><tspan x="-91.699" y="0">Redes, correo electrónico,</tspan><tspan x="-62.516" y="21">internet e intranet</tspan></text>
    <text id="Software" transform="translate(748.168 274.5)" fill="#14263e" font-size="16" font-family="Roboto-Italic, Roboto" font-style="italic"><tspan x="-31.363" y="0">Software</tspan></text>
    <text id="Hardware" transform="translate(570.168 274.5)" fill="#14263e" font-size="16" font-family="Roboto-Italic, Roboto" font-style="italic"><tspan x="-33.855" y="0">Hardware</tspan></text>
    <text id="Duración_media" data-name="Duración media" transform="translate(687.562 739.814)" fill="#14263e" font-size="16" font-family="Roboto-Regular, Roboto"><tspan x="-55.699" y="0">Duración media</tspan></text>
    <text id="Duración_larga" data-name="Duración larga" transform="translate(687.562 804.814)" fill="#14263e" font-size="16" font-family="Roboto-Regular, Roboto"><tspan x="-51.484" y="0">Duración larga</tspan></text>
    <g id="Grupo_116118" data-name="Grupo 116118" transform="translate(22.654 20.5)">
      <path id="Rectángulo_40599-3" data-name="Rectángulo 40599" d="M1045.309,484.29h182.806c3.426,0,6.209,2.355,6.209,5.258V542c0,2.9-2.777,5.258-6.209,5.258H1045.309c-3.426,0-6.209-2.355-6.209-5.258V489.548c0-2.9,2.777-5.258,6.209-5.258Z" transform="translate(-271.586 70.841)" fill="#bae887" stroke="#77b43a" stroke-width="2"/>
      <g id="Grupo_116094" data-name="Grupo 116094" transform="translate(866.619 619.247)">
        <line id="Línea_589" data-name="Línea 589" y2="92.335" fill="none" stroke="#3e4bbf" stroke-miterlimit="10" stroke-width="2"/>
      </g>
      <path id="Rectángulo_40621-8" data-name="Rectángulo 40621" d="M1166.892,606.98h156.486c2.933,0,5.312,1.837,5.312,4.1v40.9c0,2.265-2.38,4.1-5.312,4.1H1166.892c-2.932,0-5.312-1.837-5.312-4.1v-40.9C1161.58,608.817,1163.96,606.98,1166.892,606.98Z" transform="translate(-269.85 21.52)" fill="#d1d5fc" stroke="#3e4bbf" stroke-width="2"/>
      <path id="Rectángulo_40621-9" data-name="Rectángulo 40621" d="M1166.892,606.98h156.486c2.933,0,5.312,1.837,5.312,4.1v40.9c0,2.265-2.38,4.1-5.312,4.1H1166.892c-2.932,0-5.312-1.837-5.312-4.1v-40.9C1161.58,608.817,1163.96,606.98,1166.892,606.98Z" transform="translate(-269.85 83.416)" fill="#d1d5fc" stroke="#3e4bbf" stroke-width="2"/>
      <g id="Grupo_116112" data-name="Grupo 116112" transform="translate(881.999 531.906) rotate(90)">
        <line id="Línea_558-8" data-name="Línea 558" x2="21.483" transform="translate(-0.004 16.157)" fill="none" stroke="#3e4bbf" stroke-miterlimit="10" stroke-width="2"/>
        <path id="Trazado_158597-10" data-name="Trazado 158597" d="M178.67,393.857V382.24l5.809,5.809Z" transform="translate(-162.096 -371.891)" fill="#3e4bbf"/>
      </g>
      <g id="Grupo_116109" data-name="Grupo 116109" transform="translate(866.459 643.289)">
        <line id="Línea_558-9" data-name="Línea 558" x2="21.483" transform="translate(0 5.348)" fill="none" stroke="#3e4bbf" stroke-miterlimit="10" stroke-width="2"/>
        <path id="Trazado_158597-11" data-name="Trazado 158597" d="M178.67,393.857V382.24l5.809,5.809Z" transform="translate(-160.096 -382.24)" fill="#3e4bbf"/>
      </g>
      <g id="Grupo_116113" data-name="Grupo 116113" transform="translate(866.459 705.691)">
        <line id="Línea_558-10" data-name="Línea 558" x2="21.483" transform="translate(0 5.348)" fill="none" stroke="#3e4bbf" stroke-miterlimit="10" stroke-width="2"/>
        <path id="Trazado_158597-12" data-name="Trazado 158597" d="M178.67,393.857V382.24l5.809,5.809Z" transform="translate(-160.096 -382.24)" fill="#3e4bbf"/>
      </g>
      <text id="Normatividad_de_SST" data-name="Normatividad de SST" transform="translate(865.842 594)" fill="#14263e" font-size="16" font-family="Roboto-Bold, Roboto" font-weight="700"><tspan x="-76.199" y="0">Normatividad de SST</tspan></text>
      <text id="Elementos_protección_personal" data-name="Elementos protección
personal" transform="translate(975.842 648.098)" fill="#14263e" font-size="16" font-family="Roboto-Regular, Roboto"><tspan x="-77.418" y="0">Elementos protección</tspan><tspan x="-30.828" y="21">personal</tspan></text>
      <text id="Normas_de_gestión_ambiental" data-name="Normas de gestión
ambiental" transform="translate(975.842 710)" fill="#14263e" font-size="16" font-family="Roboto-Regular, Roboto"><tspan x="-67.555" y="0">Normas de gestión</tspan><tspan x="-35.352" y="21">ambiental</tspan></text>
    </g>
    <g id="Grupo_116119" data-name="Grupo 116119" transform="translate(1.168 20.5)">
      <path id="Rectángulo_40621-10" data-name="Rectángulo 40621" d="M201.313,606.98H347.5c2.739,0,4.963,1.461,4.963,3.262v32.521c0,1.8-2.223,3.262-4.963,3.262H201.313c-2.739,0-4.962-1.461-4.962-3.262V610.242C196.35,608.441,198.573,606.98,201.313,606.98Z" transform="translate(106.729 25.52)" fill="#d1d5fc" stroke="#3e4bbf" stroke-width="2"/>
      <path id="Rectángulo_40621-11" data-name="Rectángulo 40621" d="M201.313,702.34H347.5c2.739,0,4.963,1.959,4.963,4.374v43.6c0,2.415-2.223,4.374-4.963,4.374H201.313c-2.739,0-4.962-1.959-4.962-4.374v-43.6C196.35,704.3,198.573,702.34,201.313,702.34Z" transform="translate(106.649 -9.84)" fill="#d1d5fc" stroke="#3e4bbf" stroke-width="2"/>
      <path id="Rectángulo_40621-12" data-name="Rectángulo 40621" d="M201.313,805.31H347.5c2.739,0,4.963,2.721,4.963,6.091v60.722c0,3.359-2.223,6.092-4.963,6.092H201.313c-2.739,0-4.962-2.721-4.962-6.092V811.4C196.35,808.043,198.573,805.31,201.313,805.31Z" transform="translate(106.729 -47.811)" fill="#d1d5fc" stroke="#3e4bbf" stroke-width="2"/>
      <path id="Rectángulo_40621-13" data-name="Rectángulo 40621" d="M201.313,899.53H347.5c2.739,0,4.963,1.461,4.963,3.262v32.521c0,1.8-2.223,3.262-4.963,3.262H201.313c-2.739,0-4.962-1.461-4.962-3.262V902.792C196.35,900.991,198.573,899.53,201.313,899.53Z" transform="translate(106.729 -55.624)" fill="#d1d5fc" stroke="#3e4bbf" stroke-width="2"/>
      <path id="Rectángulo_40599-4" data-name="Rectángulo 40599" d="M7.209,484.29H190.016c3.426,0,6.209,2.355,6.209,5.258V542c0,2.9-2.777,5.258-6.209,5.258H7.209C3.784,547.26,1,544.9,1,542V489.548c0-2.9,2.777-5.258,6.209-5.258Z" transform="translate(179 70.841)" fill="#bae887" stroke="#77b43a" stroke-width="2"/>
      <g id="Grupo_114568" data-name="Grupo 114568" transform="translate(277.546 645.289)">
        <line id="Línea_558-11" data-name="Línea 558" x2="21.483" transform="translate(0 5.348)" fill="none" stroke="#3e4bbf" stroke-miterlimit="10" stroke-width="2"/>
        <path id="Trazado_158597-13" data-name="Trazado 158597" d="M178.67,393.857V382.24l5.809,5.809Z" transform="translate(-160.096 -382.24)" fill="#3e4bbf"/>
      </g>
      <path id="Trazado_170521" data-name="Trazado 170521" d="M0,0H21.483" transform="translate(277.546 717.637)" fill="none" stroke="#3e4bbf" stroke-width="2"/>
      <line id="Línea_608" data-name="Línea 608" x2="21.483" transform="translate(277.546 792.637)" fill="none" stroke="#3e4bbf" stroke-miterlimit="10" stroke-width="2"/>
      <line id="Línea_609" data-name="Línea 609" x2="21.483" transform="translate(277.546 864.637)" fill="none" stroke="#3e4bbf" stroke-miterlimit="10" stroke-width="2"/>
      <path id="Trazado_158597-14" data-name="Trazado 158597" d="M178.67,393.857V382.24l5.809,5.809Z" transform="translate(117.45 330.049)" fill="#3e4bbf"/>
      <path id="Trazado_158597-15" data-name="Trazado 158597" d="M178.67,393.857V382.24l5.809,5.809Z" transform="translate(117.45 405.049)" fill="#3e4bbf"/>
      <path id="Trazado_158597-16" data-name="Trazado 158597" d="M178.67,393.857V382.24l5.809,5.809Z" transform="translate(117.45 477.049)" fill="#3e4bbf"/>
      <text id="Obsolescencia" transform="translate(380.58 658)" fill="#14263e" font-size="16" font-family="Roboto-Regular, Roboto"><tspan x="-52.301" y="0">Obsolescencia</tspan></text>
      <text id="Confiabilidad_seguridad_y_protección" data-name="Confiabilidad,
seguridad y
protección" transform="translate(380.58 779)" fill="#14263e" font-size="16" font-family="Roboto-Regular, Roboto"><tspan x="-48.223" y="0">Confiabilidad,</tspan><tspan x="-41.051" y="21">seguridad y</tspan><tspan x="-37.824" y="42">protección</tspan></text>
      <text id="Perdurabilidad_y_conservación" data-name="Perdurabilidad
y conservación" transform="translate(327.58 715)" fill="#14263e" font-size="16" font-family="Roboto-Regular, Roboto"><tspan x="0" y="0">Perdurabilidad</tspan><tspan x="0" y="21">y conservación</tspan></text>
      <text id="Legalidad" transform="translate(346.58 870.406)" fill="#14263e" font-size="16" font-family="Roboto-Regular, Roboto"><tspan x="0" y="0">Legalidad</tspan></text>
      <text id="El_soporte_informático_como_medio_documental" data-name="El soporte informático
como medio documental" transform="translate(277 582.424)" fill="#14263e" font-size="16" font-family="Roboto-Bold, Roboto" font-weight="700"><tspan x="-80.055" y="0">El soporte informático</tspan><tspan x="-89.055" y="21">como medio documental</tspan></text>
    </g>
    <g id="Grupo_116120" data-name="Grupo 116120" transform="translate(1.168 20.5)">
      <g id="Grupo_116114" data-name="Grupo 116114" transform="translate(1207.58 617.314)">
        <line id="Línea_589-2" data-name="Línea 589" y2="94.769" transform="translate(0)" fill="none" stroke="#3e4bbf" stroke-miterlimit="10" stroke-width="2"/>
      </g>
      <path id="Rectángulo_40621-14" data-name="Rectángulo 40621" d="M1680.385,606.98h173.943c3.26,0,5.9,1.837,5.9,4.1v40.9c0,2.265-2.645,4.1-5.9,4.1H1680.385c-3.26,0-5.9-1.837-5.9-4.1v-40.9C1674.48,608.817,1677.125,606.98,1680.385,606.98Z" transform="translate(-441.4 21.52)" fill="#d1d5fc" stroke="#3e4bbf" stroke-width="2"/>
      <path id="Rectángulo_40621-15" data-name="Rectángulo 40621" d="M1680.352,701.19h172.987c3.242,0,5.873,1.837,5.873,4.1v40.9c0,2.265-2.631,4.1-5.873,4.1H1680.352c-3.242,0-5.872-1.837-5.872-4.1v-40.9C1674.48,703.027,1677.111,701.19,1680.352,701.19Z" transform="translate(-440.4 -8.69)" fill="#d1d5fc" stroke="#3e4bbf" stroke-width="2"/>
      <g id="Grupo_116115" data-name="Grupo 116115" transform="translate(1207.58 643.289)">
        <line id="Línea_558-12" data-name="Línea 558" x2="21.483" transform="translate(0 5.348)" fill="none" stroke="#3e4bbf" stroke-miterlimit="10" stroke-width="2"/>
        <path id="Trazado_158597-17" data-name="Trazado 158597" d="M178.67,393.857V382.24l5.809,5.809Z" transform="translate(-160.096 -382.24)" fill="#3e4bbf"/>
      </g>
      <g id="Grupo_116116" data-name="Grupo 116116" transform="translate(1207.58 705.691)">
        <line id="Línea_558-13" data-name="Línea 558" x2="21.483" transform="translate(0 5.348)" fill="none" stroke="#3e4bbf" stroke-miterlimit="10" stroke-width="2"/>
        <path id="Trazado_158597-18" data-name="Trazado 158597" d="M178.67,393.857V382.24l5.809,5.809Z" transform="translate(-160.096 -382.24)" fill="#3e4bbf"/>
      </g>
      <text id="Tablas_de_transferencia_documental" data-name="Tablas de transferencia
documental" transform="translate(1326.58 649)" fill="#14263e" font-size="16" font-family="Roboto-Regular, Roboto"><tspan x="-83.211" y="0">Tablas de transferencia</tspan><tspan x="-42.242" y="21">documental</tspan></text>
      <text id="Transferencias_documentales" data-name="Transferencias
documentales" transform="translate(1326.58 713)" fill="#14263e" font-size="16" font-family="Roboto-Regular, Roboto"><tspan x="-52.902" y="0">Transferencias</tspan><tspan x="-50.605" y="21">documentales</tspan></text>
      <path id="Rectángulo_40599-5" data-name="Rectángulo 40599" d="M1564.687,484.29h192.76c3.612,0,6.548,2.355,6.548,5.258V542c0,2.9-2.929,5.258-6.548,5.258h-192.76c-3.612,0-6.547-2.355-6.547-5.258V489.548c0-2.9,2.928-5.258,6.547-5.258Z" transform="translate(-452.14 70.841)" fill="#bae887" stroke="#77b43a" stroke-width="2"/>
      <text id="Valoración_y_transferencias_documentales" data-name="Valoración y transferencias
documentales" transform="translate(1209.932 584)" fill="#14263e" font-size="16" font-family="Roboto-Bold, Roboto" font-weight="700"><tspan x="-98.367" y="0">Valoración y transferencias</tspan><tspan x="-50.961" y="21">documentales</tspan></text>
    </g>
  </g>
</svg>
