<svg xmlns="http://www.w3.org/2000/svg" xmlns:xlink="http://www.w3.org/1999/xlink" width="314.285" height="251.227" viewBox="0 0 314.285 251.227">
  <defs>
    <linearGradient id="linear-gradient" y1="-421.35" x2="1" y2="-421.35" gradientUnits="objectBoundingBox">
      <stop offset="0" stop-color="#ffa900"/>
      <stop offset="1" stop-color="#fee429"/>
    </linearGradient>
    <linearGradient id="linear-gradient-2" x1="0.001" y1="-421.35" x2="1.001" y2="-421.35" xlink:href="#linear-gradient"/>
    <clipPath id="clip-path">
      <path id="Trazado_171212" data-name="Trazado 171212" d="M218.056,165.069s-.479,1.793-14.639,5.466c-1.075.279-2.232.518-3.429.757-.4.078-.836.161-1.275.239a140.113,140.113,0,0,1-24.174,1.4c-.479,0-.918,0-1.358-.039-4.269-.078-7.1-.279-7.1-.279l.2-12.006v-1.275c.078-6.023.2-12.085.279-18.107,0-.518,0-1.075.039-1.6.039-3.512.117-7.019.161-10.492l1.158-2.554.6-1.314,1.2-2.633.718-1.6.479-1.036.518-1.2,4.787-10.688.039-.117a29.976,29.976,0,0,1,3.229-1.118,27.784,27.784,0,0,1,9.452-.918,25.028,25.028,0,0,1,3.111.44c.8.161,1.554.357,2.232.557a25.538,25.538,0,0,1,5.226,2.115l5.466,7.659s.479.879,1.514,2.833c.2.357.4.757.64,1.2.518.957,1.075,2.115,1.793,3.429a15.06,15.06,0,0,1,1.036,2.95c.078.44.2.879.239,1.314.879,5.427.117,12.246.836,14.6.4,1.314,1.836,5.744,3.272,10.253.117.4.279.836.4,1.236,1.675,5.344,3.351,10.531,3.351,10.531Z" transform="translate(-166.08 -105.883)" fill="#273d96"/>
    </clipPath>
  </defs>
  <g id="Grupo_116521" data-name="Grupo 116521" transform="translate(-232.667 -9628.499)">
    <path id="Trazado_168712" data-name="Trazado 168712" d="M245.164,113.425H22v-2.144a3,3,0,0,1,2.995-2.995H245.16v5.139Z" transform="translate(246.711 9743.615)" fill="#345c7d"/>
    <g id="Grupo_114351" data-name="Grupo 114351" transform="translate(232.667 9628.5)">
      <path id="Trazado_168713" data-name="Trazado 168713" d="M291.579,251.226c8.79,0,16.845-5.592,20.795-14.482,9.755-21.964,8.965-60.866-6.1-89.411-12.75-24.162-32.575-32.948-47.832-55.966C223.813,39.117,195.536,1.045,130.829.011,70.635-.949-2.8,58.365,5.117,190.668c1.846,30.789,11.392,52.593,29.386,60.558Z" transform="translate(-4.527 0)" fill="#dce736" opacity="0.507"/>
    </g>
    <g id="Capa_1" data-name="Capa 1" transform="translate(264.997 9651.264)">
      <g id="Grupo_116417" data-name="Grupo 116417" transform="translate(0.003 -0.001)">
        <g id="man_2" data-name="man 2" transform="translate(42.495 11.648)">
          <g id="Grupo_116377" data-name="Grupo 116377" transform="translate(0 37.174)">
            <g id="Grupo_116364" data-name="Grupo 116364" transform="translate(68.056 88.183)">
              <path id="Trazado_171159" data-name="Trazado 171159" d="M265.441,317.234l10.849,65.976h-2.476l-18.9-67.529Z" transform="translate(-254.533 -315.311)" fill="#96a7cc"/>
              <path id="Trazado_171160" data-name="Trazado 171160" d="M272.968,382.848,254.06,315.319a.384.384,0,0,1,.078-.357.392.392,0,0,1,.357-.117l10.531,1.554c.161.039.318.161.318.318l10.849,65.976a.351.351,0,0,1-.357.435h-2.472a.4.4,0,0,1-.4-.279Zm-8.338-65.736-9.652-1.436,18.669,66.694h1.715Z" transform="translate(-254.045 -314.832)" fill="#96a7cc"/>
            </g>
            <g id="Grupo_116365" data-name="Grupo 116365" transform="translate(103.679 97.286)">
              <path id="Trazado_171161" data-name="Trazado 171161" d="M355.636,395.065h-2.472l-11.806-42.242L336.85,336.67h9.217l2.628,16.153Z" transform="translate(-336.439 -336.27)" fill="#96a7cc"/>
              <path id="Trazado_171162" data-name="Trazado 171162" d="M352.274,394.663l-16.354-58.4a.408.408,0,0,1,.078-.357.5.5,0,0,1,.318-.161h9.212a.39.39,0,0,1,.4.318l9.574,58.4a.351.351,0,0,1-.357.435h-2.472a.334.334,0,0,1-.4-.239Zm-7.1-58.117h-8.377l16.114,57.6h1.715Z" transform="translate(-335.905 -335.75)" fill="#96a7cc"/>
            </g>
            <g id="Grupo_116366" data-name="Grupo 116366" transform="translate(19.689 97.325)">
              <path id="Trazado_171163" data-name="Trazado 171163" d="M240.674,338.585V350.87a1.917,1.917,0,0,1-1.915,1.915H145.825a1.917,1.917,0,0,1-1.915-1.915V338.585a1.918,1.918,0,0,1,1.915-1.915h92.939a1.943,1.943,0,0,1,1.915,1.915Z" transform="translate(-143.47 -336.309)" fill="#a9bce6"/>
              <path id="Trazado_171164" data-name="Trazado 171164" d="M142.9,350.44V338.155a2.317,2.317,0,0,1,2.315-2.315h92.939a2.317,2.317,0,0,1,2.315,2.315V350.44a2.317,2.317,0,0,1-2.315,2.315H145.215A2.317,2.317,0,0,1,142.9,350.44Zm2.315-13.843a1.515,1.515,0,0,0-1.514,1.514V350.4a1.515,1.515,0,0,0,1.514,1.514h92.939a1.515,1.515,0,0,0,1.514-1.514V338.112a1.515,1.515,0,0,0-1.514-1.514Z" transform="translate(-142.9 -335.84)" fill="#a9bce6"/>
            </g>
            <g id="Grupo_116367" data-name="Grupo 116367" transform="translate(9.064 88.156)">
              <path id="Trazado_171165" data-name="Trazado 171165" d="M130.24,317.234l-10.81,65.976h2.437l18.9-67.529Z" transform="translate(-119.019 -315.284)" fill="#a9bce6"/>
              <path id="Trazado_171166" data-name="Trazado 171166" d="M118.578,382.935a.312.312,0,0,1-.078-.318l10.849-65.976a.429.429,0,0,1,.318-.318L140.2,314.77a.559.559,0,0,1,.357.117.384.384,0,0,1,.078.357l-18.908,67.529a.38.38,0,0,1-.357.279H118.9a.263.263,0,0,1-.318-.122Zm21.14-67.29-9.652,1.436-10.688,65.214h1.715l18.63-66.65Z" transform="translate(-118.485 -314.77)" fill="#a9bce6"/>
            </g>
            <g id="Grupo_116368" data-name="Grupo 116368" transform="translate(57.407 88.156)">
              <path id="Trazado_171167" data-name="Trazado 171167" d="M241.34,317.234l-10.81,65.976h2.433l18.9-67.529Z" transform="translate(-230.114 -315.284)" fill="#a9bce6"/>
              <path id="Trazado_171168" data-name="Trazado 171168" d="M229.668,382.935a.312.312,0,0,1-.078-.318l10.849-65.976a.429.429,0,0,1,.318-.318l10.531-1.554a.559.559,0,0,1,.357.117.384.384,0,0,1,.078.357l-18.908,67.529a.38.38,0,0,1-.357.279h-2.472a.265.265,0,0,1-.318-.122Zm21.14-67.29-9.652,1.436-10.688,65.214h1.715l18.63-66.65Z" transform="translate(-229.575 -314.77)" fill="#a9bce6"/>
            </g>
            <g id="Grupo_116372" data-name="Grupo 116372" transform="translate(0.004)">
              <g id="Grupo_116369" data-name="Grupo 116369">
                <path id="Trazado_171169" data-name="Trazado 171169" d="M177.538,205.329H177.5q-29.015.059-57.995,1.6a5.164,5.164,0,0,1-.8-.039,4.576,4.576,0,0,1-3.908-3.59q-8.5-39.367-17.032-78.818a4.616,4.616,0,0,1,1.954-4.787c2.272-1.514,4.547-3.033,6.819-4.508a.294.294,0,0,1,.161-.078,4.26,4.26,0,0,1,1.636-.6,175.77,175.77,0,0,1,20.261-2.115,180.375,180.375,0,0,1,41.524,2.833,4.657,4.657,0,0,1,3.751,4.03q4.125,40.5,8.255,81.011a4.657,4.657,0,0,1-4.587,5.065Z" transform="translate(-97.665 -112.19)" fill="#dbe636"/>
                <path id="Trazado_171170" data-name="Trazado 171170" d="M177.538,205.329H177.5q-29.015.059-57.995,1.6a5.164,5.164,0,0,1-.8-.039,4.576,4.576,0,0,1-3.908-3.59q-8.5-39.367-17.032-78.818a4.616,4.616,0,0,1,1.954-4.787c2.272-1.514,4.547-3.033,6.819-4.508a.294.294,0,0,1,.161-.078,4.26,4.26,0,0,1,1.636-.6,175.77,175.77,0,0,1,20.261-2.115,180.375,180.375,0,0,1,41.524,2.833,4.657,4.657,0,0,1,3.751,4.03q4.125,40.5,8.255,81.011a4.657,4.657,0,0,1-4.587,5.065Z" transform="translate(-97.665 -112.19)" fill="#dbe636"/>
                <path id="Trazado_171171" data-name="Trazado 171171" d="M177.538,205.329H177.5q-29.015.059-57.995,1.6a5.164,5.164,0,0,1-.8-.039,4.576,4.576,0,0,1-3.908-3.59q-8.5-39.367-17.032-78.818a4.616,4.616,0,0,1,1.954-4.787c2.272-1.514,4.547-3.033,6.819-4.508a.294.294,0,0,1,.161-.078,4.26,4.26,0,0,1,1.636-.6,175.77,175.77,0,0,1,20.261-2.115,180.375,180.375,0,0,1,41.524,2.833,4.657,4.657,0,0,1,3.751,4.03q4.125,40.5,8.255,81.011a4.657,4.657,0,0,1-4.587,5.065Z" transform="translate(-97.665 -112.19)" fill="#dbe636"/>
              </g>
              <g id="Grupo_116370" data-name="Grupo 116370">
                <path id="Trazado_171172" data-name="Trazado 171172" d="M177.538,205.329H177.5q-29.015.059-57.995,1.6a5.164,5.164,0,0,1-.8-.039,4.576,4.576,0,0,1-3.908-3.59q-8.5-39.367-17.032-78.818a4.616,4.616,0,0,1,1.954-4.787c2.272-1.514,4.547-3.033,6.819-4.508a.294.294,0,0,1,.161-.078,4.26,4.26,0,0,1,1.636-.6,175.77,175.77,0,0,1,20.261-2.115,180.375,180.375,0,0,1,41.524,2.833,4.657,4.657,0,0,1,3.751,4.03q4.125,40.5,8.255,81.011a4.657,4.657,0,0,1-4.587,5.065Z" transform="translate(-97.665 -112.19)" fill="#dbe636"/>
                <path id="Trazado_171173" data-name="Trazado 171173" d="M177.538,205.329H177.5q-29.015.059-57.995,1.6a5.164,5.164,0,0,1-.8-.039,4.576,4.576,0,0,1-3.908-3.59q-8.5-39.367-17.032-78.818a4.616,4.616,0,0,1,1.954-4.787c2.272-1.514,4.547-3.033,6.819-4.508a.294.294,0,0,1,.161-.078,4.26,4.26,0,0,1,1.636-.6,175.77,175.77,0,0,1,20.261-2.115,180.375,180.375,0,0,1,41.524,2.833,4.657,4.657,0,0,1,3.751,4.03q4.125,40.5,8.255,81.011a4.657,4.657,0,0,1-4.587,5.065Z" transform="translate(-97.665 -112.19)" fill="#dbe636"/>
                <path id="Trazado_171174" data-name="Trazado 171174" d="M177.538,205.329H177.5q-29.015.059-57.995,1.6a5.164,5.164,0,0,1-.8-.039,4.576,4.576,0,0,1-3.908-3.59q-8.5-39.367-17.032-78.818a4.616,4.616,0,0,1,1.954-4.787c2.272-1.514,4.547-3.033,6.819-4.508a.294.294,0,0,1,.161-.078,4.26,4.26,0,0,1,1.636-.6,175.77,175.77,0,0,1,20.261-2.115,180.375,180.375,0,0,1,41.524,2.833,4.657,4.657,0,0,1,3.751,4.03q4.125,40.5,8.255,81.011a4.657,4.657,0,0,1-4.587,5.065Z" transform="translate(-97.665 -112.19)" fill="#dbe636" opacity="0.12"/>
              </g>
              <g id="Grupo_116371" data-name="Grupo 116371">
                <path id="Trazado_171175" data-name="Trazado 171175" d="M177.538,205.329H177.5q-29.015.059-57.995,1.6a5.164,5.164,0,0,1-.8-.039,4.576,4.576,0,0,1-3.908-3.59q-8.5-39.367-17.032-78.818a4.616,4.616,0,0,1,1.954-4.787c2.272-1.514,4.547-3.033,6.819-4.508a.294.294,0,0,1,.161-.078,4.26,4.26,0,0,1,1.636-.6,175.77,175.77,0,0,1,20.261-2.115,180.375,180.375,0,0,1,41.524,2.833,4.657,4.657,0,0,1,3.751,4.03q4.125,40.5,8.255,81.011a4.657,4.657,0,0,1-4.587,5.065Z" transform="translate(-97.665 -112.19)" fill="#dbe636"/>
                <path id="Trazado_171176" data-name="Trazado 171176" d="M177.538,205.329H177.5q-29.015.059-57.995,1.6a5.164,5.164,0,0,1-.8-.039,4.576,4.576,0,0,1-3.908-3.59q-8.5-39.367-17.032-78.818a4.616,4.616,0,0,1,1.954-4.787c2.272-1.514,4.547-3.033,6.819-4.508a.294.294,0,0,1,.161-.078,4.26,4.26,0,0,1,1.636-.6,175.77,175.77,0,0,1,20.261-2.115,180.375,180.375,0,0,1,41.524,2.833,4.657,4.657,0,0,1,3.751,4.03q4.125,40.5,8.255,81.011a4.657,4.657,0,0,1-4.587,5.065Z" transform="translate(-97.665 -112.19)" fill="#dbe636"/>
                <path id="Trazado_171177" data-name="Trazado 171177" d="M177.538,205.329H177.5q-29.015.059-57.995,1.6a5.164,5.164,0,0,1-.8-.039,4.576,4.576,0,0,1-3.908-3.59q-8.5-39.367-17.032-78.818a4.616,4.616,0,0,1,1.954-4.787c2.272-1.514,4.547-3.033,6.819-4.508a.294.294,0,0,1,.161-.078,4.26,4.26,0,0,1,1.636-.6,175.77,175.77,0,0,1,20.261-2.115,180.375,180.375,0,0,1,41.524,2.833,4.657,4.657,0,0,1,3.751,4.03q4.125,40.5,8.255,81.011a4.657,4.657,0,0,1-4.587,5.065Z" transform="translate(-97.665 -112.19)" fill="#dbe636"/>
              </g>
            </g>
            <path id="Trazado_171178" data-name="Trazado 171178" d="M123.406,210.254l-4.709.357-3.072.239c-.279-1.275-.557-2.554-.836-3.829q-8.5-39.367-17.032-78.818a4.616,4.616,0,0,1,1.954-4.787c2.272-1.514,4.548-3.033,6.819-4.508.039-.039.117-.078.161-.117h0q8.316,45.771,16.715,91.463Z" transform="translate(-97.655 -115.918)" fill="#eff27c"/>
            <g id="Grupo_116376" data-name="Grupo 116376" transform="translate(17.213 91.746)">
              <g id="Grupo_116373" data-name="Grupo 116373">
                <path id="Trazado_171179" data-name="Trazado 171179" d="M137.214,333.029a1.938,1.938,0,0,0,1.954,2.076H240.962a1.952,1.952,0,0,0,1.954-1.915v-8.255a1.926,1.926,0,0,0-1.954-1.915H139.725a1.956,1.956,0,0,0-1.954,1.793Z" transform="translate(-137.209 -323.02)" fill="#eff27c"/>
                <path id="Trazado_171180" data-name="Trazado 171180" d="M137.214,333.029a1.938,1.938,0,0,0,1.954,2.076H240.962a1.952,1.952,0,0,0,1.954-1.915v-8.255a1.926,1.926,0,0,0-1.954-1.915H139.725a1.956,1.956,0,0,0-1.954,1.793Z" transform="translate(-137.209 -323.02)" fill="#eff27c"/>
                <path id="Trazado_171181" data-name="Trazado 171181" d="M137.214,333.029a1.938,1.938,0,0,0,1.954,2.076H240.962a1.952,1.952,0,0,0,1.954-1.915v-8.255a1.926,1.926,0,0,0-1.954-1.915H139.725a1.956,1.956,0,0,0-1.954,1.793Z" transform="translate(-137.209 -323.02)" fill="#eff27c"/>
              </g>
              <g id="Grupo_116374" data-name="Grupo 116374">
                <path id="Trazado_171182" data-name="Trazado 171182" d="M137.214,333.029a1.938,1.938,0,0,0,1.954,2.076H240.962a1.952,1.952,0,0,0,1.954-1.915v-8.255a1.926,1.926,0,0,0-1.954-1.915H139.725a1.956,1.956,0,0,0-1.954,1.793Z" transform="translate(-137.209 -323.02)" fill="#eff27c"/>
                <path id="Trazado_171183" data-name="Trazado 171183" d="M137.214,333.029a1.938,1.938,0,0,0,1.954,2.076H240.962a1.952,1.952,0,0,0,1.954-1.915v-8.255a1.926,1.926,0,0,0-1.954-1.915H139.725a1.956,1.956,0,0,0-1.954,1.793Z" transform="translate(-137.209 -323.02)" fill="#eff27c"/>
                <path id="Trazado_171184" data-name="Trazado 171184" d="M137.214,333.029a1.938,1.938,0,0,0,1.954,2.076H240.962a1.952,1.952,0,0,0,1.954-1.915v-8.255a1.926,1.926,0,0,0-1.954-1.915H139.725a1.956,1.956,0,0,0-1.954,1.793Z" transform="translate(-137.209 -323.02)" fill="#eff27c"/>
              </g>
              <g id="Grupo_116375" data-name="Grupo 116375">
                <path id="Trazado_171185" data-name="Trazado 171185" d="M137.214,333.029a1.938,1.938,0,0,0,1.954,2.076H240.962a1.952,1.952,0,0,0,1.954-1.915v-8.255a1.926,1.926,0,0,0-1.954-1.915H139.725a1.956,1.956,0,0,0-1.954,1.793Z" transform="translate(-137.209 -323.02)" fill="#eff27c"/>
                <path id="Trazado_171186" data-name="Trazado 171186" d="M137.214,333.029a1.938,1.938,0,0,0,1.954,2.076H240.962a1.952,1.952,0,0,0,1.954-1.915v-8.255a1.926,1.926,0,0,0-1.954-1.915H139.725a1.956,1.956,0,0,0-1.954,1.793Z" transform="translate(-137.209 -323.02)" fill="#eff27c"/>
                <path id="Trazado_171187" data-name="Trazado 171187" d="M137.214,333.029a1.938,1.938,0,0,0,1.954,2.076H240.962a1.952,1.952,0,0,0,1.954-1.915v-8.255a1.926,1.926,0,0,0-1.954-1.915H139.725a1.956,1.956,0,0,0-1.954,1.793Z" transform="translate(-137.209 -323.02)" fill="#eff27c"/>
              </g>
            </g>
          </g>
          <g id="Grupo_116378" data-name="Grupo 116378" transform="translate(118.807 170.758)">
            <path id="Trazado_171188" data-name="Trazado 171188" d="M370.67,442.054h6.34c1.954,0,4.186,0,6.423-.039,6.023-.039,9.256-.078,13.125-.318.2,0,.4-.039.6-.039,2.076-.161,3.751-.279,4.748-.4l-.078-1.675a61.321,61.321,0,0,1-9.1-2.833c-5.466-2.154-8.934-3.59-9.891-6.7a9.091,9.091,0,0,1-.2-2.594v-.039c-.039-3.468.117-6.3.279-8.255a4.84,4.84,0,0,1-8.338,3.512c-.2,1.2-.318,2.154-.4,2.833-.161,1.118-.239,1.954-.318,2.711-.039.2-.039.4-.078.6a18.515,18.515,0,0,1-.4,2.315,12.306,12.306,0,0,1-.4,1.636c-.4,1.2-.879,1.954-1.4,3.429-.039.117-.078.279-.117.4,0,0-.161.518-.318,1.075C371.07,438.264,370.831,439.861,370.67,442.054Z" transform="translate(-370.67 -419.16)" fill="#f8ae8e"/>
            <path id="Trazado_171189" data-name="Trazado 171189" d="M384.823,427.549a8.6,8.6,0,0,0,.2,2.594,5.41,5.41,0,0,0,1.793,2.633c-.957.718-2.554,1.236-5.226,1.475a30.774,30.774,0,0,1-6.98-.039c.2-.44.357-.879.557-1.358a10.766,10.766,0,0,0,.4-1.636,20.77,20.77,0,0,0,.4-2.315,3.065,3.065,0,0,1,.078-.6c.078-.757.2-1.6.318-2.711.078-.64.2-1.636.4-2.833a5.22,5.22,0,0,0,4.269,1.436,5.279,5.279,0,0,0,4.069-4.948c-.161,1.954-.318,4.787-.279,8.3h0Z" transform="translate(-372.895 -419.211)" fill="#e7a182"/>
          </g>
          <path id="Trazado_171190" data-name="Trazado 171190" d="M401.773,461.831l.078,1.675c-1,.117-2.672.239-4.748.4-.2,0-.4.039-.6.039-3.829.2-7.341.239-13.442.279H370.58a19.982,19.982,0,0,1,.836-5.344c.039-.161.078-.279.117-.4a63.574,63.574,0,0,0,15.675,1.436,20.589,20.589,0,0,0,5.383-.879c2.393.757,5.466,1.754,9.173,2.794Z" transform="translate(-251.812 -270.612)" fill="url(#linear-gradient)"/>
          <path id="Trazado_171191" data-name="Trazado 171191" d="M397.42,467.77c-.2,0-.44.039-.64.039-4.03.239-7.38.279-13.6.318-2.315.039-4.626.039-6.623.039h-5.944a8.819,8.819,0,0,0-.039,1.036v.039h6.34c1.954,0,4.147,0,6.423-.039,6.023-.039,9.256-.078,13.164-.318.2,0,.4-.039.6-.039,2.076-.161,3.751-.279,4.748-.4l-.078-1.075c-1,.161-2.511.279-4.347.4Z" transform="translate(-251.806 -275.633)" fill="#292466"/>
          <g id="Grupo_116379" data-name="Grupo 116379" transform="translate(97.149 170.758)">
            <path id="Trazado_171192" data-name="Trazado 171192" d="M320.9,442.054h6.34c1.954,0,4.186,0,6.423-.039,6.023-.039,9.256-.078,13.125-.318.2,0,.4-.039.6-.039,2.076-.161,3.751-.279,4.748-.4l-.078-1.675a61.321,61.321,0,0,1-9.1-2.833c-5.466-2.154-8.934-3.59-9.891-6.7a9.091,9.091,0,0,1-.2-2.594v-.039c-.039-3.468.117-6.3.279-8.255a4.84,4.84,0,0,1-8.338,3.512c-.2,1.2-.318,2.154-.4,2.833-.161,1.118-.239,1.954-.318,2.711-.039.2-.039.4-.078.6a18.515,18.515,0,0,1-.4,2.315,12.306,12.306,0,0,1-.4,1.636c-.4,1.2-.879,1.954-1.4,3.429-.039.117-.078.279-.117.4,0,0-.161.518-.318,1.075C321.34,438.264,321.061,439.861,320.9,442.054Z" transform="translate(-320.9 -419.16)" fill="#f8ae8e"/>
            <path id="Trazado_171193" data-name="Trazado 171193" d="M335.233,427.549a8.6,8.6,0,0,0,.2,2.594,5.41,5.41,0,0,0,1.793,2.633c-.957.718-2.554,1.236-5.226,1.475a30.775,30.775,0,0,1-6.98-.039c.2-.44.357-.879.557-1.358a10.766,10.766,0,0,0,.4-1.636,20.777,20.777,0,0,0,.4-2.315,3.068,3.068,0,0,1,.078-.6c.078-.757.2-1.6.318-2.711.078-.64.2-1.636.4-2.833a5.22,5.22,0,0,0,4.269,1.436,5.279,5.279,0,0,0,4.069-4.948c-.161,1.954-.318,4.787-.279,8.3h0Z" transform="translate(-323.227 -419.211)" fill="#e7a182"/>
          </g>
          <path id="Trazado_171194" data-name="Trazado 171194" d="M352,461.831l.078,1.675c-1,.117-2.672.239-4.748.4-.2,0-.4.039-.6.039-3.829.2-7.341.239-13.442.279H320.81a19.982,19.982,0,0,1,.836-5.344c.039-.161.078-.279.117-.4a63.574,63.574,0,0,0,15.675,1.436,20.589,20.589,0,0,0,5.383-.879c2.393.757,5.466,1.754,9.173,2.794Z" transform="translate(-223.7 -270.612)" fill="url(#linear-gradient-2)"/>
          <path id="Trazado_171195" data-name="Trazado 171195" d="M347.74,467.77c-.2,0-.44.039-.64.039-4.03.239-7.38.279-13.6.318-2.315.039-4.626.039-6.623.039h-5.944a8.819,8.819,0,0,0-.039,1.036v.039h6.34c1.954,0,4.147,0,6.423-.039,6.023-.039,9.256-.078,13.164-.318.2,0,.4-.039.6-.039,2.076-.161,3.751-.279,4.748-.4l-.078-1.075c-1.036.161-2.554.279-4.347.4Z" transform="translate(-223.745 -275.633)" fill="#292466"/>
          <path id="Trazado_171196" data-name="Trazado 171196" d="M305.082,319.027a27.936,27.936,0,0,1-13.482,2.95,27.4,27.4,0,0,1-8.494-1.675q-2.272-11.188-4.426-22.376c-1.993-10.209-3.869-20.422-5.744-30.675-8.973-2.315-19.744-5.226-32.15-8.856-6.1-1.793-15.079-4.626-17.193-10.888a10.594,10.594,0,0,1-.518-3.99c.2-4.626,2.99-8.973,4.587-11.166,5.344.718,13.164,1.876,22.537,3.512,31.789,5.544,36.937,9.056,40.127,12.363,3.229,3.39,4.787,7.019,8.338,26.445,1.954,11.127,4.387,26.206,6.423,44.357Z" transform="translate(-168.485 -142.886)" fill="#f75316"/>
          <path id="Trazado_171197" data-name="Trazado 171197" d="M295.919,257.008a.113.113,0,0,0-.039-.078h0Z" transform="translate(-209.619 -156.77)" fill="#4332d1"/>
          <path id="Trazado_171198" data-name="Trazado 171198" d="M254.6,336.3a47.893,47.893,0,0,1-13.682,1.475A47.277,47.277,0,0,1,230.79,336.3q-5.268-24.289-10.57-48.621c-5.705-.078-14.639-.2-25.688,0-13.6.239-17.589.64-21.458-2.032-8.059-5.622-7.7-19.543-6.819-27.285,9.173-.318,17.389-.557,24.413-.718,2.232-.039,4.347-.117,6.34-.161,8.255-.2,11.806-.239,16.754.239,7.859.8,16.832,1.036,23.094,5.344,5.666,3.908,7.776,9.931,12.006,34.744,1.754,10.131,3.829,23.173,5.744,38.491Z" transform="translate(-136.152 -157)" fill="#f75316"/>
          <path id="Trazado_171199" data-name="Trazado 171199" d="M291.41,136.695c-.64,4.665-1.236,9.374-1.876,14.039-2.633.357-6.3.879-10.688,1.4-6.462.8-9.256,1.075-12.924.4a22.9,22.9,0,0,1-4.426-1.2,10.473,10.473,0,0,1-3.429-2.232,28.577,28.577,0,0,1-3.99-4.826,57.087,57.087,0,0,1-6.384-11.606,78.511,78.511,0,0,1-6.941-15.836,80.471,80.471,0,0,1-2.433-9.774c6.58,1.275,10.209,4.03,12.285,6.1,2.433,2.433,3.229,4.587,6.741,11.166,2.594,4.865,4.826,8.734,6.3,11.21l7.581.118c5.823.117,7.18.078,9.374.161C283.112,135.933,286.824,136.173,291.41,136.695Z" transform="translate(-177.107 -72.118)" fill="#131f63"/>
          <g id="Grupo_116381" data-name="Grupo 116381" transform="translate(102.81 63.601)">
            <g id="Grupo_116380" data-name="Grupo 116380">
              <path id="Trazado_171200" data-name="Trazado 171200" d="M369.166,176.291a.414.414,0,0,0-.2-.161,1.639,1.639,0,0,0-1.036-1.075c-1.554-.518-2.75-1.6-8.577-1.4-1,.039-2.154.078-3.39.161h0c-4.03.078-7.42.318-10.092.518-4.03.318-5.622.557-7.341,1.675-.557.357-3.79,2.433-3.79,5.3,0,3.512,4.865,6.184,8.338,6.98h0c2.99,1.436,9.691.039,12.446-.479,2.393-.479,2.511-1.358,2.354-2.672,2.393-.2,4.469-.4,6.184-.557,1.754-.2,4.308-.479,4.826-1.915a2.643,2.643,0,0,0-.279-1.954,2.265,2.265,0,0,0,1.275-1.236,3.475,3.475,0,0,0-.718-3.19Z" transform="translate(-334.379 -173.322)" fill="#f8ae8e"/>
              <path id="Trazado_171201" data-name="Trazado 171201" d="M349.828,188.654c-2.672.318-5.583.4-7.341-.4-3.59-.8-8.616-3.59-8.577-7.3,0-2.672,2.472-4.665,3.947-5.622,1.754-1.118,3.312-1.4,7.5-1.715,3.312-.279,6.741-.44,10.092-.518h.078c1.118-.078,2.193-.117,3.312-.161,4.9-.161,6.623.557,7.977,1.118.279.118.518.2.757.318a2.034,2.034,0,0,1,1.236,1.2.512.512,0,0,0,.161.118h0a3.85,3.85,0,0,1,.8,3.551,2.494,2.494,0,0,1-1.118,1.314,2.615,2.615,0,0,1,.161,1.915c-.64,1.715-3.351,1.993-5.144,2.154-1.876.2-3.829.357-5.823.518.078,1.4-.44,2.232-2.711,2.672l-.2.039c-1.2.161-3.072.557-5.1.8Zm-7.058-14.121a9.529,9.529,0,0,0-4.508,1.358c-1.075.718-3.629,2.594-3.629,5.026,0,3.312,4.709,5.862,8.059,6.623a.113.113,0,0,1,.078.039c2.833,1.358,9.256.078,12.045-.479l.2-.039c2.193-.44,2.193-1.118,2.076-2.272a.383.383,0,0,1,.078-.279.347.347,0,0,1,.239-.117c2.115-.161,4.186-.357,6.184-.557,1.514-.161,4.069-.4,4.547-1.675a2.112,2.112,0,0,0-.279-1.636.687.687,0,0,1-.039-.279.324.324,0,0,1,.2-.2,1.832,1.832,0,0,0,1.075-1.036,3.227,3.227,0,0,0-.64-2.794h0a.512.512,0,0,0-.161-.118.511.511,0,0,1-.117-.161,1.421,1.421,0,0,0-.836-.879,6.743,6.743,0,0,1-.8-.318c-1.275-.557-2.911-1.236-7.659-1.036-1.118.039-2.232.078-3.39.161h-.117c-3.351.078-6.7.239-9.97.518a23.786,23.786,0,0,0-2.633.161Z" transform="translate(-333.909 -172.917)" fill="#f8ae8e"/>
            </g>
            <path id="Trazado_171202" data-name="Trazado 171202" d="M376.029,197.538a.331.331,0,0,1-.4-.279c-.279-1.2-.518-2.193-8.416-1.2h0a.361.361,0,1,1-.083-.718c8.138-1.036,8.816,0,9.212,1.754a.367.367,0,0,1-.279.44h-.039Z" transform="translate(-352.491 -185.352)" fill="#e7a182"/>
            <path id="Trazado_171203" data-name="Trazado 171203" d="M389.552,186.647a.425.425,0,0,1-.357-.161c-1.118-1.675-8.816-2.75-17.032-1.554a.361.361,0,1,1-.083-.718c8.016-1.158,16.314-.279,17.75,1.876a.357.357,0,0,1-.117.518c-.039,0-.117.039-.161.039Z" transform="translate(-355.286 -179.009)" fill="#e7a182"/>
            <path id="Trazado_171204" data-name="Trazado 171204" d="M392.539,178.049a.514.514,0,0,1-.239-.039c-2.115-1.436-11.967-.8-15.557-.44a.338.338,0,0,1-.4-.318.359.359,0,0,1,.318-.4h0c.557-.039,13.281-1.314,16.036.557a.426.426,0,0,1,.117.518.85.85,0,0,1-.279.117Z" transform="translate(-357.873 -174.88)" fill="#e7a182"/>
          </g>
          <g id="Grupo_116389" data-name="Grupo 116389" transform="translate(29.776 34.43)">
            <g id="Grupo_116382" data-name="Grupo 116382">
              <path id="Trazado_171205" data-name="Trazado 171205" d="M218.056,165.069s-.479,1.793-14.639,5.466c-1.075.279-2.232.518-3.429.757-.4.078-.836.161-1.275.239a140.113,140.113,0,0,1-24.174,1.4c-.479,0-.918,0-1.358-.039-4.269-.078-7.1-.279-7.1-.279l.2-12.006v-1.275c.078-6.023.2-12.085.279-18.107,0-.518,0-1.075.039-1.6.039-3.512.117-7.019.161-10.492l1.158-2.554.6-1.314,1.2-2.633.718-1.6.479-1.036.518-1.2,4.787-10.688.039-.117a29.976,29.976,0,0,1,3.229-1.118,27.784,27.784,0,0,1,9.452-.918,25.028,25.028,0,0,1,3.111.44c.8.161,1.554.357,2.232.557a25.538,25.538,0,0,1,5.226,2.115l5.466,7.659s.479.879,1.514,2.833c.2.357.4.757.64,1.2.518.957,1.075,2.115,1.793,3.429a15.06,15.06,0,0,1,1.036,2.95c.078.44.2.879.239,1.314.879,5.427.117,12.246.836,14.6.4,1.314,1.836,5.744,3.272,10.253.117.4.279.836.4,1.236,1.675,5.344,3.351,10.531,3.351,10.531Z" transform="translate(-166.08 -105.883)" fill="none"/>
              <path id="Trazado_171206" data-name="Trazado 171206" d="M218.056,165.069s-.479,1.793-14.639,5.466c-1.075.279-2.232.518-3.429.757-.4.078-.836.161-1.275.239a140.113,140.113,0,0,1-24.174,1.4c-.479,0-.918,0-1.358-.039-4.269-.078-7.1-.279-7.1-.279l.2-12.006v-1.275c.078-6.023.2-12.085.279-18.107,0-.518,0-1.075.039-1.6.039-3.512.117-7.019.161-10.492l1.158-2.554.6-1.314,1.2-2.633.718-1.6.479-1.036.518-1.2,4.787-10.688.039-.117a29.976,29.976,0,0,1,3.229-1.118,27.784,27.784,0,0,1,9.452-.918,25.028,25.028,0,0,1,3.111.44c.8.161,1.554.357,2.232.557a25.538,25.538,0,0,1,5.226,2.115l5.466,7.659s.479.879,1.514,2.833c.2.357.4.757.64,1.2.518.957,1.075,2.115,1.793,3.429a15.06,15.06,0,0,1,1.036,2.95c.078.44.2.879.239,1.314.879,5.427.117,12.246.836,14.6.4,1.314,1.836,5.744,3.272,10.253.117.4.279.836.4,1.236,1.675,5.344,3.351,10.531,3.351,10.531Z" transform="translate(-166.08 -105.883)" fill="none"/>
              <path id="Trazado_171207" data-name="Trazado 171207" d="M218.056,165.069s-.479,1.793-14.639,5.466c-1.075.279-2.232.518-3.429.757-.4.078-.836.161-1.275.239a140.113,140.113,0,0,1-24.174,1.4c-.479,0-.918,0-1.358-.039-4.269-.078-7.1-.279-7.1-.279l.2-12.006v-1.275c.078-6.023.2-12.085.279-18.107,0-.518,0-1.075.039-1.6.039-3.512.117-7.019.161-10.492l1.158-2.554.6-1.314,1.2-2.633.718-1.6.479-1.036.518-1.2,4.787-10.688.039-.117a29.976,29.976,0,0,1,3.229-1.118,27.784,27.784,0,0,1,9.452-.918,25.028,25.028,0,0,1,3.111.44c.8.161,1.554.357,2.232.557a25.538,25.538,0,0,1,5.226,2.115l5.466,7.659s.479.879,1.514,2.833c.2.357.4.757.64,1.2.518.957,1.075,2.115,1.793,3.429a15.06,15.06,0,0,1,1.036,2.95c.078.44.2.879.239,1.314.879,5.427.117,12.246.836,14.6.4,1.314,1.836,5.744,3.272,10.253.117.4.279.836.4,1.236,1.675,5.344,3.351,10.531,3.351,10.531Z" transform="translate(-166.08 -105.883)" fill="none"/>
            </g>
            <path id="Trazado_171208" data-name="Trazado 171208" d="M218.056,165.069s-.479,1.793-14.639,5.466c-1.075.279-2.232.518-3.429.757-.4.078-.836.161-1.275.239a140.113,140.113,0,0,1-24.174,1.4c-.479,0-.918,0-1.358-.039-4.269-.078-7.1-.279-7.1-.279l.2-12.006v-1.275c.078-6.023.2-12.085.279-18.107,0-.518,0-1.075.039-1.6.039-3.512.117-7.019.161-10.492l1.158-2.554.6-1.314,1.2-2.633.718-1.6.479-1.036.518-1.2,4.787-10.688.039-.117a29.976,29.976,0,0,1,3.229-1.118,27.784,27.784,0,0,1,9.452-.918,25.028,25.028,0,0,1,3.111.44c.8.161,1.554.357,2.232.557a25.538,25.538,0,0,1,5.226,2.115l5.466,7.659s.479.879,1.514,2.833c.2.357.4.757.64,1.2.518.957,1.075,2.115,1.793,3.429a15.06,15.06,0,0,1,1.036,2.95c.078.44.2.879.239,1.314.879,5.427.117,12.246.836,14.6.4,1.314,1.836,5.744,3.272,10.253.117.4.279.836.4,1.236,1.675,5.344,3.351,10.531,3.351,10.531Z" transform="translate(-166.08 -105.883)" fill="#fe4f5a"/>
            <g id="Grupo_116387" data-name="Grupo 116387">
              <path id="Trazado_171209" data-name="Trazado 171209" d="M218.056,165.069s-.479,1.793-14.639,5.466c-1.075.279-2.232.518-3.429.757-.4.078-.836.161-1.275.239a140.113,140.113,0,0,1-24.174,1.4c-.479,0-.918,0-1.358-.039-4.269-.078-7.1-.279-7.1-.279l.2-12.006v-1.275c.078-6.023.2-12.085.279-18.107,0-.518,0-1.075.039-1.6.039-3.512.117-7.019.161-10.492l1.158-2.554.6-1.314,1.2-2.633.718-1.6.479-1.036.518-1.2,4.787-10.688.039-.117a29.976,29.976,0,0,1,3.229-1.118,27.784,27.784,0,0,1,9.452-.918,25.028,25.028,0,0,1,3.111.44c.8.161,1.554.357,2.232.557a25.538,25.538,0,0,1,5.226,2.115l5.466,7.659s.479.879,1.514,2.833c.2.357.4.757.64,1.2.518.957,1.075,2.115,1.793,3.429a15.06,15.06,0,0,1,1.036,2.95c.078.44.2.879.239,1.314.879,5.427.117,12.246.836,14.6.4,1.314,1.836,5.744,3.272,10.253.117.4.279.836.4,1.236,1.675,5.344,3.351,10.531,3.351,10.531Z" transform="translate(-166.08 -105.883)" fill="#273d96"/>
              <g id="Grupo_116384" data-name="Grupo 116384">
                <path id="Trazado_171210" data-name="Trazado 171210" d="M218.056,165.069s-.479,1.793-14.639,5.466c-1.075.279-2.232.518-3.429.757-.4.078-.836.161-1.275.239a140.113,140.113,0,0,1-24.174,1.4c-.479,0-.918,0-1.358-.039-4.269-.078-7.1-.279-7.1-.279l.2-12.006v-1.275c.078-6.023.2-12.085.279-18.107,0-.518,0-1.075.039-1.6.039-3.512.117-7.019.161-10.492l1.158-2.554.6-1.314,1.2-2.633.718-1.6.479-1.036.518-1.2,4.787-10.688.039-.117a29.976,29.976,0,0,1,3.229-1.118,27.784,27.784,0,0,1,9.452-.918,25.028,25.028,0,0,1,3.111.44c.8.161,1.554.357,2.232.557a25.538,25.538,0,0,1,5.226,2.115l5.466,7.659s.479.879,1.514,2.833c.2.357.4.757.64,1.2.518.957,1.075,2.115,1.793,3.429a15.06,15.06,0,0,1,1.036,2.95c.078.44.2.879.239,1.314.879,5.427.117,12.246.836,14.6.4,1.314,1.836,5.744,3.272,10.253.117.4.279.836.4,1.236,1.675,5.344,3.351,10.531,3.351,10.531Z" transform="translate(-166.08 -105.883)" fill="#273d96"/>
                <g id="Grupo_116383" data-name="Grupo 116383" clip-path="url(#clip-path)">
                  <path id="Trazado_171211" data-name="Trazado 171211" d="M246.157,175.389l-.4-.679a10.253,10.253,0,0,0,2.911-2.115,3.245,3.245,0,0,0,.718-3.111c-.557-1.314-2.193-1.754-2.872-1.915-.518-.078-1.036-.161-1.554-.2a12.78,12.78,0,0,1-2.433-.4c-1.275-.4-2.794-1.4-2.911-3.072-.117-1.876,1.636-3.151,2.393-3.629.318-.2.679-.4,1-.557a7.584,7.584,0,0,0,2.315-1.636,2.692,2.692,0,0,0,.557-2.032,1.357,1.357,0,0,0-.64-1,2.892,2.892,0,0,0-1.675-.2,3.26,3.26,0,0,1-2.354-.518,2.471,2.471,0,0,1-.078-3.229,8.957,8.957,0,0,1,1.514-1.475c.239-.2.479-.4.718-.6a2.713,2.713,0,0,0,1.075-2.193c-.161-1-1.236-1.436-2.354-1.954-1.2-.518-2.393-1.075-2.833-2.315-.557-1.6.557-3.072,1.675-4.308.718-.836,1.836-2.354,1.118-3.512a3.428,3.428,0,0,0-2.115-1.158c-1.075-.318-2.193-.679-2.633-1.754-.479-1.2.279-2.315.957-3.312.6-.879,1.2-1.754.918-2.594-.2-.679-.879-1.075-1.6-1.514-.239-.161-.479-.279-.718-.44a5.667,5.667,0,0,1-2.315-3.908,5.581,5.581,0,0,1,1.118-4.386l.64.518a5.151,5.151,0,0,0,1,7.141,3.872,3.872,0,0,0,.679.4,4.042,4.042,0,0,1,1.954,1.954c.357,1.2-.357,2.272-1.036,3.272-.6.918-1.2,1.754-.879,2.594.279.757,1.2,1,2.115,1.314a4.211,4.211,0,0,1,2.594,1.514c.718,1.158.318,2.75-1.2,4.469-.957,1.075-1.954,2.354-1.554,3.512.318.918,1.358,1.358,2.393,1.836,1.275.557,2.554,1.158,2.794,2.554a3.428,3.428,0,0,1-1.314,2.95c-.239.239-.518.44-.757.64a6.19,6.19,0,0,0-1.358,1.314,1.743,1.743,0,0,0-.039,2.193,2.372,2.372,0,0,0,1.793.318,3.856,3.856,0,0,1,2.115.318,2.085,2.085,0,0,1,1.036,1.514,3.518,3.518,0,0,1-.718,2.711,7.763,7.763,0,0,1-2.554,1.836c-.318.161-.64.357-.957.557-.64.4-2.115,1.436-2.032,2.872a3.039,3.039,0,0,0,2.315,2.354,13.318,13.318,0,0,0,2.272.357c.518.039,1.075.118,1.636.2a4.389,4.389,0,0,1,3.468,2.393,3.95,3.95,0,0,1-.836,3.908,11.217,11.217,0,0,1-3.072,2.193Z" transform="translate(-204.711 -111.417)" fill="#273d96"/>
                </g>
              </g>
              <g id="Grupo_116386" data-name="Grupo 116386">
                <path id="Trazado_171213" data-name="Trazado 171213" d="M218.056,165.069s-.479,1.793-14.639,5.466c-1.075.279-2.232.518-3.429.757-.4.078-.836.161-1.275.239a140.113,140.113,0,0,1-24.174,1.4c-.479,0-.918,0-1.358-.039-4.269-.078-7.1-.279-7.1-.279l.2-12.006v-1.275c.078-6.023.2-12.085.279-18.107,0-.518,0-1.075.039-1.6.039-3.512.117-7.019.161-10.492l1.158-2.554.6-1.314,1.2-2.633.718-1.6.479-1.036.518-1.2,4.787-10.688.039-.117a29.976,29.976,0,0,1,3.229-1.118,27.784,27.784,0,0,1,9.452-.918,25.028,25.028,0,0,1,3.111.44c.8.161,1.554.357,2.232.557a25.538,25.538,0,0,1,5.226,2.115l5.466,7.659s.479.879,1.514,2.833c.2.357.4.757.64,1.2.518.957,1.075,2.115,1.793,3.429a15.06,15.06,0,0,1,1.036,2.95c.078.44.2.879.239,1.314.879,5.427.117,12.246.836,14.6.4,1.314,1.836,5.744,3.272,10.253.117.4.279.836.4,1.236,1.675,5.344,3.351,10.531,3.351,10.531Z" transform="translate(-166.08 -105.883)" fill="#273d96"/>
                <g id="Grupo_116385" data-name="Grupo 116385" clip-path="url(#clip-path)">
                  <path id="Trazado_171214" data-name="Trazado 171214" d="M214.46,176.437l-.357-.718a8.126,8.126,0,0,0,2.315-1.436,2.5,2.5,0,0,0,.8-2.232,4.341,4.341,0,0,0-1.2-1.715,3.735,3.735,0,0,1-1.4-2.472,3.911,3.911,0,0,1,1.754-2.794c.757-.718,1.514-1.358,1.475-2.232-.039-.836-.8-1.554-2.433-2.232-1.314-.557-2.872-1.358-2.95-2.872-.117-1.6,1.475-2.633,2.672-3.272,1.554-.836,2.272-1.675,2.193-2.554-.117-.957-1.036-1.4-2.115-1.954a4.889,4.889,0,0,1-2.594-2.115c-.6-1.4.078-2.99,2.076-4.787,1.675-1.514,2.315-2.833,1.876-3.869-.479-1.075-1.876-1.436-3.19-1.675s-3.151-.757-3.629-2.315c-.44-1.436.44-2.911,2.633-4.386,1.275-.879,2.711-2.193,2.232-3.512-.318-.879-1.236-1.275-2.232-1.675a12.26,12.26,0,0,1-1.275-.6c-2.232-1.314-3.033-3.99-3.033-6.062a19.891,19.891,0,0,1,1.6-6.58l.757.279a18.29,18.29,0,0,0-1.554,6.3c0,1.836.679,4.23,2.633,5.344a7.818,7.818,0,0,0,1.2.557c1.118.479,2.232.957,2.672,2.154.518,1.436-.357,2.99-2.554,4.426-1.876,1.275-2.633,2.433-2.315,3.512.357,1.158,1.915,1.554,3.033,1.793,1.514.279,3.151.718,3.751,2.115s-.078,2.95-2.076,4.787c-1.675,1.514-2.315,2.833-1.876,3.869a4.26,4.26,0,0,0,2.193,1.715c1.2.6,2.393,1.2,2.554,2.594.2,1.836-1.915,2.95-2.594,3.351-1.075.6-2.354,1.4-2.272,2.554.078,1.075,1.358,1.754,2.472,2.193,1.236.518,2.872,1.358,2.911,2.911.039,1.236-.836,2.032-1.715,2.833-.757.718-1.475,1.358-1.475,2.193,0,.718.6,1.314,1.2,1.954a4.579,4.579,0,0,1,1.4,2.076,3.14,3.14,0,0,1-1,2.95,8.791,8.791,0,0,1-2.554,1.6Z" transform="translate(-189.803 -109.553)" fill="#273d96"/>
                </g>
              </g>
            </g>
            <g id="Grupo_116388" data-name="Grupo 116388">
              <path id="Trazado_171216" data-name="Trazado 171216" d="M218.056,165.069s-.479,1.793-14.639,5.466c-1.075.279-2.232.518-3.429.757-.4.078-.836.161-1.275.239a140.113,140.113,0,0,1-24.174,1.4c-.479,0-.918,0-1.358-.039-4.269-.078-7.1-.279-7.1-.279l.2-12.006v-1.275c.078-6.023.2-12.085.279-18.107,0-.518,0-1.075.039-1.6.039-3.512.117-7.019.161-10.492l1.158-2.554.6-1.314,1.2-2.633.718-1.6.479-1.036.518-1.2,4.787-10.688.039-.117a29.976,29.976,0,0,1,3.229-1.118,27.784,27.784,0,0,1,9.452-.918,25.028,25.028,0,0,1,3.111.44c.8.161,1.554.357,2.232.557a25.538,25.538,0,0,1,5.226,2.115l5.466,7.659s.479.879,1.514,2.833c.2.357.4.757.64,1.2.518.957,1.075,2.115,1.793,3.429a15.06,15.06,0,0,1,1.036,2.95c.078.44.2.879.239,1.314.879,5.427.117,12.246.836,14.6.4,1.314,1.836,5.744,3.272,10.253.117.4.279.836.4,1.236,1.675,5.344,3.351,10.531,3.351,10.531Z" transform="translate(-166.08 -105.883)" fill="none"/>
              <path id="Trazado_171217" data-name="Trazado 171217" d="M218.056,165.069s-.479,1.793-14.639,5.466c-1.075.279-2.232.518-3.429.757-.4.078-.836.161-1.275.239a140.113,140.113,0,0,1-24.174,1.4c-.479,0-.918,0-1.358-.039-4.269-.078-7.1-.279-7.1-.279l.2-12.006v-1.275c.078-6.023.2-12.085.279-18.107,0-.518,0-1.075.039-1.6.039-3.512.117-7.019.161-10.492l1.158-2.554.6-1.314,1.2-2.633.718-1.6.479-1.036.518-1.2,4.787-10.688.039-.117a29.976,29.976,0,0,1,3.229-1.118,27.784,27.784,0,0,1,9.452-.918,25.028,25.028,0,0,1,3.111.44c.8.161,1.554.357,2.232.557a25.538,25.538,0,0,1,5.226,2.115l5.466,7.659s.479.879,1.514,2.833c.2.357.4.757.64,1.2.518.957,1.075,2.115,1.793,3.429a15.06,15.06,0,0,1,1.036,2.95c.078.44.2.879.239,1.314.879,5.427.117,12.246.836,14.6.4,1.314,1.836,5.744,3.272,10.253.117.4.279.836.4,1.236,1.675,5.344,3.351,10.531,3.351,10.531Z" transform="translate(-166.08 -105.883)" fill="none"/>
              <path id="Trazado_171218" data-name="Trazado 171218" d="M218.056,165.069s-.479,1.793-14.639,5.466c-1.075.279-2.232.518-3.429.757-.4.078-.836.161-1.275.239a140.113,140.113,0,0,1-24.174,1.4c-.479,0-.918,0-1.358-.039-4.269-.078-7.1-.279-7.1-.279l.2-12.006v-1.275c.078-6.023.2-12.085.279-18.107,0-.518,0-1.075.039-1.6.039-3.512.117-7.019.161-10.492l1.158-2.554.6-1.314,1.2-2.633.718-1.6.479-1.036.518-1.2,4.787-10.688.039-.117a29.976,29.976,0,0,1,3.229-1.118,27.784,27.784,0,0,1,9.452-.918,25.028,25.028,0,0,1,3.111.44c.8.161,1.554.357,2.232.557a25.538,25.538,0,0,1,5.226,2.115l5.466,7.659s.479.879,1.514,2.833c.2.357.4.757.64,1.2.518.957,1.075,2.115,1.793,3.429a15.06,15.06,0,0,1,1.036,2.95c.078.44.2.879.239,1.314.879,5.427.117,12.246.836,14.6.4,1.314,1.836,5.744,3.272,10.253.117.4.279.836.4,1.236,1.675,5.344,3.351,10.531,3.351,10.531Z" transform="translate(-166.08 -105.883)" fill="none"/>
            </g>
          </g>
          <path id="Trazado_171219" data-name="Trazado 171219" d="M209.5,106.39a6.282,6.282,0,0,1-12.485,1.4,7.517,7.517,0,0,1-.039-.918,27.784,27.784,0,0,1,9.452-.918A23.4,23.4,0,0,1,209.5,106.39Z" transform="translate(-153.757 -71.448)" fill="#311716"/>
          <g id="Grupo_116393" data-name="Grupo 116393" transform="translate(41.175)">
            <g id="woman_1" data-name="woman 1">
              <path id="Trazado_171220" data-name="Trazado 171220" d="M216.42,36.615a10.449,10.449,0,0,1-.117,3.99c-12.045.161-15.318,1.675-15.636,3.272-.2.918.64,1.675,1.514,3.629a7.4,7.4,0,0,1,.518,4.9c-.118.44-8.1-3.033-8.338-4.665a12.137,12.137,0,0,0-.879-3.79A12.259,12.259,0,0,1,195.2,30.675a11.3,11.3,0,0,1,6.062-3.551,14.6,14.6,0,0,1,5.862-.117A8.062,8.062,0,0,1,211.746,29c.2.2.44.4.6.6a18.109,18.109,0,0,1,2.672,3.351,10.467,10.467,0,0,1,1.4,3.668Z" transform="translate(-192.274 -26.765)"/>
              <g id="Grupo_116390" data-name="Grupo 116390" transform="translate(5.756 18.51)">
                <path id="Trazado_171221" data-name="Trazado 171221" d="M206.42,70.03V88.816a10.133,10.133,0,0,0,5.266.957,9.694,9.694,0,0,0,3.351-.957V70.03Z" transform="translate(-206.02 -69.712)" fill="#e7a182"/>
                <path id="Trazado_171222" data-name="Trazado 171222" d="M210.248,89.718a10.768,10.768,0,0,1-4.548-1.036.3.3,0,0,1-.2-.279V69.618c0-.161.2-.318.4-.318h8.616a.368.368,0,0,1,.4.318V88.4c0,.117-.078.2-.2.279a9.825,9.825,0,0,1-3.512,1A7.827,7.827,0,0,1,210.248,89.718Zm-3.908-1.475a9.3,9.3,0,0,0,4.826.836,8.775,8.775,0,0,0,2.99-.836V69.935h-7.82V88.243Z" transform="translate(-205.5 -69.3)" fill="#e7a182"/>
              </g>
              <g id="Grupo_116391" data-name="Grupo 116391" transform="translate(5.212 10.022)">
                <path id="Trazado_171223" data-name="Trazado 171223" d="M223.061,51.818a1.059,1.059,0,0,0-1.475-.957,13.842,13.842,0,0,1-9.5,1.554c-1.314.679-1.158,1.118-1.554,1.636a3.253,3.253,0,0,1-1.475.957,1.923,1.923,0,0,0-.718.757,1.7,1.7,0,0,0-1.436-.557A2.282,2.282,0,0,0,205.232,57a3.575,3.575,0,0,0,.879,2.833,6.467,6.467,0,0,0,1.675,1.715c0,.279.039.557.039.836a9.49,9.49,0,0,0,.6,3.869c.679,1.275,1.715,1.876,3.79,3.033,2.511,1.4,4.308,2.393,6.3,1.915a6.369,6.369,0,0,0,2.354-1.358c4.069-3.79,2.315-17.15,2.193-18.029Z" transform="translate(-204.767 -50.354)" fill="#f8ae8e"/>
                <path id="Trazado_171224" data-name="Trazado 171224" d="M217,71.165c-1.715,0-3.312-.918-5.427-2.076-1.993-1.118-3.19-1.793-3.947-3.19-.518-.957-.557-2.076-.679-4.03l-.039-.64a6.669,6.669,0,0,1-1.636-1.715,4.066,4.066,0,0,1-.957-3.151,2.758,2.758,0,0,1,2.032-2.115,1.988,1.988,0,0,1,1.358.4,1.911,1.911,0,0,1,.64-.518l.239-.117a2.338,2.338,0,0,0,1.075-.757,1.639,1.639,0,0,0,.2-.357,2.894,2.894,0,0,1,1.475-1.4.687.687,0,0,1,.279-.039,13.693,13.693,0,0,0,9.212-1.514.038.038,0,0,0,.039-.039,1.517,1.517,0,0,1,1.314.078,1.555,1.555,0,0,1,.718,1.2h0c.2,1.475,1.836,14.478-2.272,18.307a7,7,0,0,1-2.511,1.475,3.717,3.717,0,0,1-1.118.2ZM206.553,55.05h-.078a1.982,1.982,0,0,0-1.314,1.475A3.222,3.222,0,0,0,206,59.036a6.123,6.123,0,0,0,1.6,1.6.368.368,0,0,1,.161.318l.039.836a9.135,9.135,0,0,0,.557,3.708c.64,1.158,1.554,1.715,3.629,2.872,2.511,1.4,4.147,2.315,6.023,1.876a5.924,5.924,0,0,0,2.154-1.275c3.869-3.629,2.115-16.993,2.032-17.589a.725.725,0,0,0-.318-.6.807.807,0,0,0-.6-.039,14.287,14.287,0,0,1-9.613,1.6,1.93,1.93,0,0,0-1,1,3.024,3.024,0,0,1-.279.479,3.258,3.258,0,0,1-1.436,1,.676.676,0,0,1-.2.078,1.184,1.184,0,0,0-.518.557.3.3,0,0,1-.279.2.342.342,0,0,1-.357-.117,1.717,1.717,0,0,0-1.036-.479Z" transform="translate(-204.252 -49.796)" fill="#f8ae8e"/>
              </g>
              <g id="Grupo_116392" data-name="Grupo 116392" transform="translate(14.764 13.27)">
                <path id="Trazado_171225" data-name="Trazado 171225" d="M234.773,88.351h-.078c-1.236-.161-1.314-2.794-1.314-3.629a.376.376,0,0,1,.239-.357.446.446,0,0,1,.44.039,3.75,3.75,0,0,0,1.4.718,1.519,1.519,0,0,0,1.314-.357.417.417,0,0,1,.518-.039.374.374,0,0,1,.117.479c-.479.957-1.6,3.151-2.633,3.151Zm-.6-2.872c.078,1.158.357,2.032.6,2.076.2.039.757-.64,1.358-1.636a3.287,3.287,0,0,1-.879,0,4.937,4.937,0,0,1-1.075-.44Z" transform="translate(-230.256 -72.545)"/>
                <path id="Trazado_171226" data-name="Trazado 171226" d="M230.335,66.482c.078.718.4,1.236.757,1.2s.6-.64.518-1.314c-.078-.718-.4-1.236-.757-1.2C230.535,65.167,230.3,65.763,230.335,66.482Z" transform="translate(-228.534 -61.725)"/>
                <path id="Trazado_171227" data-name="Trazado 171227" d="M242.7,64.832c.078.718.4,1.236.757,1.2s.6-.64.518-1.314c-.078-.718-.4-1.236-.757-1.2S242.622,64.157,242.7,64.832Z" transform="translate(-235.513 -60.793)"/>
                <path id="Trazado_171228" data-name="Trazado 171228" d="M228.843,59.033a1.136,1.136,0,0,0-1.2-.2,4.255,4.255,0,0,0-1.4,1.514c-.161.318.117.44.44.161a4.653,4.653,0,0,1,1.275-.757c.4-.078.957-.039,1-.279a.433.433,0,0,0-.118-.44Z" transform="translate(-226.202 -58.101)"/>
                <path id="Trazado_171229" data-name="Trazado 171229" d="M241.524,57.751a1.026,1.026,0,0,1,1.118-.479,4.343,4.343,0,0,1,1.754,1.075c.239.279,0,.44-.4.279a3.853,3.853,0,0,0-1.436-.4c-.4.039-.918.2-1.036,0a.426.426,0,0,1,0-.479Z" transform="translate(-234.814 -57.259)"/>
              </g>
              <path id="Trazado_171230" data-name="Trazado 171230" d="M205.333,59.649a.632.632,0,0,0-1.158-.078,1.352,1.352,0,0,0,.879,1.836l-1.475.4a.533.533,0,0,0-.64.6,1.156,1.156,0,0,0,1.514,1.075Z" transform="translate(-198.298 -45.09)" fill="none" stroke="#fee429" stroke-miterlimit="10" stroke-width="1"/>
            </g>
            <path id="Trazado_171231" data-name="Trazado 171231" d="M227.142,66.978h-.117c-3.19-.117-4.308-3.908-4.386-4.069l-.078-.318.279-.161a6.614,6.614,0,0,1,3.668-.518c1.915.2,2.511.4,2.633,2.076a3.432,3.432,0,0,1-.679,2.393,1.484,1.484,0,0,1-1.314.6Zm-3.59-3.947c.318.836,1.4,3.072,3.512,3.151a1.148,1.148,0,0,0,.879-.318,2.5,2.5,0,0,0,.44-1.793h0c-.078-1.036-.078-1.158-1.915-1.314a7.162,7.162,0,0,0-2.911.279Z" transform="translate(-209.38 -46.596)" fill="#f75316"/>
            <path id="Trazado_171232" data-name="Trazado 171232" d="M241.719,66.373a1.85,1.85,0,0,1-1.358-.557,3.466,3.466,0,0,1-.679-2.393c.118-1.675.757-1.876,2.633-2.076a6.215,6.215,0,0,1,3.668.518l.279.161-.078.318c-.039.161-1.2,3.908-4.386,4.069C241.8,66.373,241.758,66.373,241.719,66.373Zm1.554-4.269a6.551,6.551,0,0,0-.836.039c-1.836.161-1.876.279-1.915,1.314h0a2.713,2.713,0,0,0,.44,1.793,1.175,1.175,0,0,0,.879.318c2.115-.078,3.19-2.315,3.512-3.151a5.687,5.687,0,0,0-2.076-.318Z" transform="translate(-219.048 -46.27)" fill="#f75316"/>
            <path id="Trazado_171233" data-name="Trazado 171233" d="M214.851,60.929c-.2-.078-.518-.239-.879-.4-1.358-.64-4.508-2.076-5.383-1.836l-.239-.757c1.075-.318,3.551.718,5.944,1.876a8.214,8.214,0,0,1,.836.4Z" transform="translate(-201.354 -44.338)" fill="#f75316"/>
          </g>
          <g id="Grupo_116397" data-name="Grupo 116397" transform="translate(26.847 36.347)">
            <g id="Grupo_116394" data-name="Grupo 116394">
              <path id="Trazado_171234" data-name="Trazado 171234" d="M160.25,147.5c.117.557.279,1.118.44,1.636,1.036,3.39,2.594,5.705,4.387,6.184s4.987-.64,5.344-.757c.836-.318,3.272-1.036,4.548-2.711,1.954-2.672,1.236-5.944.479-10.448-.918-5.744-1.2-11.567-1.836-17.35-.357-3.229-.757-7.937-.918-13.76a36.654,36.654,0,0,0-10.849,14.8,40.481,40.481,0,0,0-1.6,22.415Z" transform="translate(-159.349 -110.29)" fill="#131f63"/>
              <path id="Trazado_171235" data-name="Trazado 171235" d="M160.25,147.5c.117.557.279,1.118.44,1.636,1.036,3.39,2.594,5.705,4.387,6.184s4.987-.64,5.344-.757c.836-.318,3.272-1.036,4.548-2.711,1.954-2.672,1.236-5.944.479-10.448-.918-5.744-1.2-11.567-1.836-17.35-.357-3.229-.757-7.937-.918-13.76a36.654,36.654,0,0,0-10.849,14.8,40.481,40.481,0,0,0-1.6,22.415Z" transform="translate(-159.349 -110.29)" fill="#131f63"/>
              <path id="Trazado_171236" data-name="Trazado 171236" d="M160.25,147.5c.117.557.279,1.118.44,1.636,1.036,3.39,2.594,5.705,4.387,6.184s4.987-.64,5.344-.757c.836-.318,3.272-1.036,4.548-2.711,1.954-2.672,1.236-5.944.479-10.448-.918-5.744-1.2-11.567-1.836-17.35-.357-3.229-.757-7.937-.918-13.76a36.654,36.654,0,0,0-10.849,14.8,40.481,40.481,0,0,0-1.6,22.415Z" transform="translate(-159.349 -110.29)" fill="#131f63"/>
            </g>
            <g id="Grupo_116395" data-name="Grupo 116395">
              <path id="Trazado_171237" data-name="Trazado 171237" d="M160.25,147.5c.117.557.279,1.118.44,1.636,1.036,3.39,2.594,5.705,4.387,6.184s4.987-.64,5.344-.757c.836-.318,3.272-1.036,4.548-2.711,1.954-2.672,1.236-5.944.479-10.448-.918-5.744-1.2-11.567-1.836-17.35-.357-3.229-.757-7.937-.918-13.76a36.654,36.654,0,0,0-10.849,14.8,40.481,40.481,0,0,0-1.6,22.415Z" transform="translate(-159.349 -110.29)" fill="#131f63"/>
              <path id="Trazado_171238" data-name="Trazado 171238" d="M160.25,147.5c.117.557.279,1.118.44,1.636,1.036,3.39,2.594,5.705,4.387,6.184s4.987-.64,5.344-.757c.836-.318,3.272-1.036,4.548-2.711,1.954-2.672,1.236-5.944.479-10.448-.918-5.744-1.2-11.567-1.836-17.35-.357-3.229-.757-7.937-.918-13.76a36.654,36.654,0,0,0-10.849,14.8,40.481,40.481,0,0,0-1.6,22.415Z" transform="translate(-159.349 -110.29)" fill="#131f63"/>
              <path id="Trazado_171239" data-name="Trazado 171239" d="M160.25,147.5c.117.557.279,1.118.44,1.636,1.036,3.39,2.594,5.705,4.387,6.184s4.987-.64,5.344-.757c.836-.318,3.272-1.036,4.548-2.711,1.954-2.672,1.236-5.944.479-10.448-.918-5.744-1.2-11.567-1.836-17.35-.357-3.229-.757-7.937-.918-13.76a36.654,36.654,0,0,0-10.849,14.8,40.481,40.481,0,0,0-1.6,22.415Z" transform="translate(-159.349 -110.29)" fill="#131f63"/>
            </g>
            <g id="Grupo_116396" data-name="Grupo 116396">
              <path id="Trazado_171240" data-name="Trazado 171240" d="M160.25,147.5c.117.557.279,1.118.44,1.636,1.036,3.39,2.594,5.705,4.387,6.184s4.987-.64,5.344-.757c.836-.318,3.272-1.036,4.548-2.711,1.954-2.672,1.236-5.944.479-10.448-.918-5.744-1.2-11.567-1.836-17.35-.357-3.229-.757-7.937-.918-13.76a36.654,36.654,0,0,0-10.849,14.8,40.481,40.481,0,0,0-1.6,22.415Z" transform="translate(-159.349 -110.29)" fill="#131f63"/>
              <path id="Trazado_171241" data-name="Trazado 171241" d="M160.25,147.5c.117.557.279,1.118.44,1.636,1.036,3.39,2.594,5.705,4.387,6.184s4.987-.64,5.344-.757c.836-.318,3.272-1.036,4.548-2.711,1.954-2.672,1.236-5.944.479-10.448-.918-5.744-1.2-11.567-1.836-17.35-.357-3.229-.757-7.937-.918-13.76a36.654,36.654,0,0,0-10.849,14.8,40.481,40.481,0,0,0-1.6,22.415Z" transform="translate(-159.349 -110.29)" fill="#131f63"/>
              <path id="Trazado_171242" data-name="Trazado 171242" d="M160.25,147.5c.117.557.279,1.118.44,1.636,1.036,3.39,2.594,5.705,4.387,6.184s4.987-.64,5.344-.757c.836-.318,3.272-1.036,4.548-2.711,1.954-2.672,1.236-5.944.479-10.448-.918-5.744-1.2-11.567-1.836-17.35-.357-3.229-.757-7.937-.918-13.76a36.654,36.654,0,0,0-10.849,14.8,40.481,40.481,0,0,0-1.6,22.415Z" transform="translate(-159.349 -110.29)" fill="#131f63"/>
            </g>
          </g>
          <path id="Trazado_171243" data-name="Trazado 171243" d="M181.545,72.6c-4.987,10.609-11.645,10.849-11.884,19.387a24.762,24.762,0,0,0,3.79,13.081,28.423,28.423,0,0,1,8.059-17.79c4.987-5.1,3.79-14.639,3.429-15.714s-3.39,1.036-3.39,1.036Z" transform="translate(-138.322 -51.897)"/>
          <g id="Grupo_116400" data-name="Grupo 116400" transform="translate(34.001 27.38)">
            <g id="Grupo_116398" data-name="Grupo 116398" transform="translate(6.282 1.5)">
              <path id="Trazado_171244" data-name="Trazado 171244" d="M197,107.566c3.033-5.344,2.672-8.973,2.354-10.448-.2-.879-.6-2.95-1.754-3.19-.957-.2-1.915.879-2.076,1.036a5.13,5.13,0,0,0-1.075,3.429c-.2,4.069-2.354,4.826-3.033,8.856a14.609,14.609,0,0,0,.918,7.9L197,107.566Z" transform="translate(-190.784 -93.567)" fill="#f8ae8e"/>
              <path id="Trazado_171245" data-name="Trazado 171245" d="M191.766,115.067h-.078a.456.456,0,0,1-.318-.239,15.218,15.218,0,0,1-.957-8.059,11.68,11.68,0,0,1,1.6-4.23,9.393,9.393,0,0,0,1.436-4.547v-.118a5.646,5.646,0,0,1,1.2-3.551c.279-.318,1.314-1.4,2.433-1.158,1.4.318,1.836,2.433,2.076,3.468.44,2.193.4,5.823-2.393,10.731h0l-4.709,7.5c-.039.117-.161.161-.279.2Zm4.9-21.219a2.439,2.439,0,0,0-1.436.957,4.771,4.771,0,0,0-1,3.072V98a10.134,10.134,0,0,1-1.514,4.865,11.975,11.975,0,0,0-1.514,4.03,14.317,14.317,0,0,0,.679,6.98l4.308-6.9c2.672-4.709,2.75-8.138,2.315-10.209-.161-.757-.557-2.711-1.475-2.911h-.357Z" transform="translate(-190.222 -93.131)" fill="#f8ae8e"/>
            </g>
            <g id="Grupo_116399" data-name="Grupo 116399">
              <path id="Trazado_171246" data-name="Trazado 171246" d="M176.72,127.7l15.2,4.308c1.314-4.03,2.633-8.016,3.947-12.045.8-.318,2.032-.757,3.551-1.314,2.75-1,2.99-1.036,3.829-1.358a22.493,22.493,0,0,0,8.494-6.58c.557-.718,1.2-1.6.957-2.472a2.62,2.62,0,0,0-1.475-1.514h-.039a4.31,4.31,0,0,0,.078-.64,3.64,3.64,0,0,0-.718-2.393,3.555,3.555,0,0,0-1.636-1.158,2.587,2.587,0,0,1-.4-.117,1.378,1.378,0,0,0,.039-.239,3.769,3.769,0,0,0-1.793-4.069c-.118-.078-.2-.117-.279-.161,0,0,.479-.357,1.158-.879,1.715-1.314,4.587-3.869,3.947-5.383a1.8,1.8,0,0,0-.957-.836c-2.672-1.118-6.541,1.275-11.367,4.347-10.731,6.819-11.249,7.341-12.006,8.216-2.032,2.393-3.151,5.026-5.383,10.209A146.226,146.226,0,0,0,176.72,127.7Z" transform="translate(-176.314 -90.183)" fill="#e7a182"/>
              <path id="Trazado_171247" data-name="Trazado 171247" d="M191.433,131.868h-.161l-15.2-4.308a.772.772,0,0,1-.239-.161c-.078-.083-.039-.2-.039-.279A138.223,138.223,0,0,1,180.941,113c2.154-5.065,3.351-7.859,5.427-10.331.757-.879,1.075-1.275,12.085-8.3,4.709-2.99,8.777-5.583,11.728-4.386a1.9,1.9,0,0,1,1.158,1.036c.679,1.636-1.836,4.069-4.069,5.823-.279.2-.518.4-.718.557a3.778,3.778,0,0,1,1.236,1.275,4.094,4.094,0,0,1,.518,2.95.113.113,0,0,1,.078.039,3.78,3.78,0,0,1,1.836,1.275,3.916,3.916,0,0,1,.8,2.633c0,.161-.039.279-.039.4a2.7,2.7,0,0,1,1.475,1.675,3.356,3.356,0,0,1-1.036,2.794,22.68,22.68,0,0,1-8.655,6.7,10.078,10.078,0,0,1-1.036.357c-.518.161-1.275.44-2.794,1-1.4.518-2.554.957-3.351,1.236l-3.908,11.884c.039.117-.078.2-.239.239Zm-14.757-4.9,14.478,4.108,3.869-11.728a.4.4,0,0,1,.2-.239c.8-.318,2.032-.757,3.551-1.314,1.554-.557,2.315-.8,2.794-1a10.414,10.414,0,0,0,1.036-.357,22.219,22.219,0,0,0,8.338-6.5c.518-.64,1.075-1.436.879-2.154a2.229,2.229,0,0,0-1.275-1.275.428.428,0,0,1-.239-.44c0-.078.039-.279.078-.557a3.3,3.3,0,0,0-.64-2.154,3.442,3.442,0,0,0-1.475-1.036,2.1,2.1,0,0,0-.357-.078c-.078-.039-.2-.078-.239-.161a.354.354,0,0,1-.039-.279,1.377,1.377,0,0,0,.039-.239,3.276,3.276,0,0,0-.44-2.511,3.219,3.219,0,0,0-1.2-1.158c-.117-.039-.2-.117-.279-.117a.319.319,0,0,1-.2-.318.358.358,0,0,1,.161-.318s.479-.357,1.158-.879c2.794-2.193,4.23-4.03,3.829-4.948a1.34,1.34,0,0,0-.757-.64c-2.554-1.075-6.5,1.436-11.049,4.308-10.492,6.662-11.21,7.3-11.928,8.138-1.954,2.272-3.033,4.748-5.3,10.131a139.878,139.878,0,0,0-4.987,13.721Z" transform="translate(-175.788 -89.684)" fill="#e7a182"/>
            </g>
          </g>
          <g id="Grupo_116403" data-name="Grupo 116403" transform="translate(28.122 47.227)">
            <g id="Grupo_116401" data-name="Grupo 116401">
              <path id="Trazado_171248" data-name="Trazado 171248" d="M193.372,149.172A110.427,110.427,0,0,0,180.966,140c-2.833-1.793-5.583-3.351-8.177-4.709-9.256,14.2-12.724,27.124-9.1,31.349a19.82,19.82,0,0,0,3.111,2.75s4.626,3.229,9.73,3.351c6.223.161,14.757-9.095,16.832-23.573Z" transform="translate(-162.279 -135.29)" fill="none"/>
              <path id="Trazado_171249" data-name="Trazado 171249" d="M193.372,149.172A110.427,110.427,0,0,0,180.966,140c-2.833-1.793-5.583-3.351-8.177-4.709-9.256,14.2-12.724,27.124-9.1,31.349a19.82,19.82,0,0,0,3.111,2.75s4.626,3.229,9.73,3.351c6.223.161,14.757-9.095,16.832-23.573Z" transform="translate(-162.279 -135.29)" fill="none"/>
              <path id="Trazado_171250" data-name="Trazado 171250" d="M193.372,149.172A110.427,110.427,0,0,0,180.966,140c-2.833-1.793-5.583-3.351-8.177-4.709-9.256,14.2-12.724,27.124-9.1,31.349a19.82,19.82,0,0,0,3.111,2.75s4.626,3.229,9.73,3.351c6.223.161,14.757-9.095,16.832-23.573Z" transform="translate(-162.279 -135.29)" fill="none"/>
            </g>
            <path id="Trazado_171251" data-name="Trazado 171251" d="M193.372,149.172A110.427,110.427,0,0,0,180.966,140c-2.833-1.793-5.583-3.351-8.177-4.709-9.256,14.2-12.724,27.124-9.1,31.349a19.82,19.82,0,0,0,3.111,2.75s4.626,3.229,9.73,3.351c6.223.161,14.757-9.095,16.832-23.573Z" transform="translate(-162.279 -135.29)" fill="#131f63"/>
            <g id="Grupo_116402" data-name="Grupo 116402">
              <path id="Trazado_171252" data-name="Trazado 171252" d="M193.372,149.172A110.427,110.427,0,0,0,180.966,140c-2.833-1.793-5.583-3.351-8.177-4.709-9.256,14.2-12.724,27.124-9.1,31.349a19.82,19.82,0,0,0,3.111,2.75s4.626,3.229,9.73,3.351c6.223.161,14.757-9.095,16.832-23.573Z" transform="translate(-162.279 -135.29)" fill="none"/>
              <path id="Trazado_171253" data-name="Trazado 171253" d="M193.372,149.172A110.427,110.427,0,0,0,180.966,140c-2.833-1.793-5.583-3.351-8.177-4.709-9.256,14.2-12.724,27.124-9.1,31.349a19.82,19.82,0,0,0,3.111,2.75s4.626,3.229,9.73,3.351c6.223.161,14.757-9.095,16.832-23.573Z" transform="translate(-162.279 -135.29)" fill="none"/>
              <path id="Trazado_171254" data-name="Trazado 171254" d="M193.372,149.172A110.427,110.427,0,0,0,180.966,140c-2.833-1.793-5.583-3.351-8.177-4.709-9.256,14.2-12.724,27.124-9.1,31.349a19.82,19.82,0,0,0,3.111,2.75s4.626,3.229,9.73,3.351c6.223.161,14.757-9.095,16.832-23.573Z" transform="translate(-162.279 -135.29)" fill="none"/>
            </g>
          </g>
          <path id="Trazado_171255" data-name="Trazado 171255" d="M230.618,111.588a.425.425,0,0,1-.357-.161.381.381,0,0,1,.078-.518l6.1-4.308a.37.37,0,0,1,.44.6l-6.1,4.308a.294.294,0,0,1-.161.078Z" transform="translate(-172.517 -71.821)" fill="#f8ae8e"/>
          <path id="Trazado_171256" data-name="Trazado 171256" d="M236.3,121.57a.425.425,0,0,1-.357-.161.381.381,0,0,1,.078-.518l5.622-4.03a.37.37,0,0,1,.44.6l-5.622,4.069c-.039.039-.078.039-.161.039Z" transform="translate(-175.725 -77.616)" fill="#f8ae8e"/>
          <path id="Trazado_171257" data-name="Trazado 171257" d="M244.879,130.9a.358.358,0,0,1-.318-.161.381.381,0,0,1,.078-.518l4.626-3.551a.37.37,0,0,1,.44.6l-4.626,3.551a.261.261,0,0,1-.2.078Z" transform="translate(-180.594 -83.157)" fill="#f8ae8e"/>
          <g id="Grupo_116404" data-name="Grupo 116404" transform="translate(65.901 105.893)">
            <rect id="Rectngulo_42833" data-name="Rectngulo 42833" width="36.537" height="5.905" transform="translate(0.449 35.7) rotate(-75.15)" fill="#a9bce6"/>
            <path id="Trazado_171258" data-name="Trazado 171258" d="M255.132,307.683l-5.744-1.514c-.117-.039-.2-.078-.239-.2a.354.354,0,0,1-.039-.279l9.374-35.3a.409.409,0,0,1,.479-.279l5.705,1.514a.409.409,0,0,1,.279.479l-9.334,35.3a.38.38,0,0,1-.357.279c-.039.039-.078,0-.117,0Zm4.03-36.737-9.173,34.544,4.987,1.314,9.173-34.544Z" transform="translate(-249.093 -270.103)" fill="#a9bce6"/>
          </g>
          <g id="Grupo_116405" data-name="Grupo 116405" transform="translate(21.047 103.868)">
            <path id="Trazado_171259" data-name="Trazado 171259" d="M152.835,266.36v38.012H146.93V266.36Z" transform="translate(-146.534 -265.964)" fill="#a9bce6"/>
            <path id="Trazado_171260" data-name="Trazado 171260" d="M146.416,304.258a.4.4,0,0,1-.4-.4V265.85a.4.4,0,0,1,.4-.4h5.905a.4.4,0,0,1,.4.4v38.012a.4.4,0,0,1-.4.4Zm.4-38.012v37.216h5.144V266.246Z" transform="translate(-146.02 -265.45)" fill="#a9bce6"/>
          </g>
          <g id="Grupo_116406" data-name="Grupo 116406" transform="translate(15.342 103.868)">
            <path id="Trazado_171261" data-name="Trazado 171261" d="M208.4,269.064a2.8,2.8,0,0,1-2.794,2.794H136.524a2.794,2.794,0,1,1,0-5.588H205.65A2.817,2.817,0,0,1,208.4,269.064Z" transform="translate(-133.373 -265.913)" fill="#a9bce6"/>
            <path id="Trazado_171262" data-name="Trazado 171262" d="M132.91,268.6a3.158,3.158,0,0,1,3.151-3.151h69.126a3.151,3.151,0,1,1,0,6.3H136.061A3.109,3.109,0,0,1,132.91,268.6Zm3.151-2.354a2.393,2.393,0,1,0,0,4.787h69.126a2.393,2.393,0,1,0,0-4.787Z" transform="translate(-132.91 -265.45)" fill="#a9bce6"/>
          </g>
          <path id="Trazado_171263" data-name="Trazado 171263" d="M194.768,111.82c-.039,0-.078,0-.078.039h0Z" transform="translate(-152.464 -74.807)" fill="#93a1d0"/>
          <g id="Grupo_116407" data-name="Grupo 116407" transform="translate(95.156 107.932)">
            <rect id="Rectngulo_42834" data-name="Rectngulo 42834" width="79.414" height="5.744" transform="translate(0.4 0.4)" fill="#a9bce6"/>
            <path id="Trazado_171264" data-name="Trazado 171264" d="M316.32,280.935V275.19a.4.4,0,0,1,.4-.4h79.414a.4.4,0,0,1,.4.4v5.744a.4.4,0,0,1-.4.4H316.72A.431.431,0,0,1,316.32,280.935Zm79.414-5.344H317.116v4.948h78.617Z" transform="translate(-316.32 -274.79)" fill="#a9bce6"/>
          </g>
          <g id="Grupo_116408" data-name="Grupo 116408" transform="translate(92.284 87.471)">
            <rect id="Rectngulo_42835" data-name="Rectngulo 42835" width="5.544" height="106.181" transform="translate(0.4 0.239)" fill="#a9bce6"/>
            <path id="Trazado_171265" data-name="Trazado 171265" d="M309.72,334.19V228.009c0-.117.161-.239.4-.239h5.544c.2,0,.4.117.4.239V334.19c0,.117-.161.239-.4.239H310.12C309.92,334.43,309.72,334.312,309.72,334.19Zm5.544-105.981h-4.787V333.951h4.787V228.21Z" transform="translate(-309.72 -227.77)" fill="#a9bce6"/>
          </g>
          <g id="Grupo_116409" data-name="Grupo 116409" transform="translate(170.183 87.471)">
            <rect id="Rectngulo_42836" data-name="Rectngulo 42836" width="5.544" height="106.181" transform="translate(0.361 0.239)" fill="#a9bce6"/>
            <path id="Trazado_171266" data-name="Trazado 171266" d="M488.73,334.19V228.009c0-.117.161-.239.4-.239h5.544c.2,0,.4.117.4.239V334.19c0,.117-.161.239-.4.239h-5.583c-.2,0-.357-.117-.357-.239Zm5.544-105.981h-4.787V333.951h4.787V228.21Z" transform="translate(-488.73 -227.77)" fill="#a9bce6"/>
          </g>
          <g id="Grupo_116410" data-name="Grupo 116410" transform="translate(85.025 82.127)">
            <rect id="Rectngulo_42837" data-name="Rectngulo 42837" width="96.646" height="7.259" transform="translate(0.4 0.361)" fill="#a9bce6"/>
            <path id="Trazado_171267" data-name="Trazado 171267" d="M293.04,223.149V215.89a.4.4,0,0,1,.4-.4h96.646a.4.4,0,0,1,.4.4v7.259a.4.4,0,0,1-.4.4H293.44A.429.429,0,0,1,293.04,223.149Zm96.646-6.9h-95.85v6.5h95.85Z" transform="translate(-293.04 -215.49)" fill="#a9bce6"/>
          </g>
          <path id="Trazado_171268" data-name="Trazado 171268" d="M200.117,73.547l-.039,1.675s-.879-.2-2.115-.4a8.171,8.171,0,0,1-1.993-.557,1.982,1.982,0,0,0,.117-.679,1.358,1.358,0,0,1,.161-1s1.793.679,2.554.879A2.865,2.865,0,0,0,200.117,73.547Z" transform="translate(-153.187 -52.648)" fill="#75b52f"/>
        </g>
        <g id="Grupo_116411" data-name="Grupo 116411" transform="translate(142.19 61.664)">
          <path id="Trazado_171269" data-name="Trazado 171269" d="M331.43,203.1l1.036-2.916h4.269l.6,3.072Z" transform="translate(-329.393 -174.731)" fill="#547a22"/>
          <path id="Trazado_171270" data-name="Trazado 171270" d="M343.43,203.152l1.04-2.872h4.269l.6,3.029Z" transform="translate(-336.171 -174.788)" fill="#547a22"/>
          <path id="Trazado_171271" data-name="Trazado 171271" d="M355.99,203.152l1.04-2.872h4.265l.6,3.029Z" transform="translate(-343.266 -174.788)" fill="#547a22"/>
          <path id="Trazado_171272" data-name="Trazado 171272" d="M368.18,203.152l1.04-2.872h4.265l.6,3.029Z" transform="translate(-350.151 -174.788)" fill="#547a22"/>
          <path id="Trazado_171273" data-name="Trazado 171273" d="M434.469,142.34l-11.928,27.481a.3.3,0,0,1-.279.2H379.224c-.239,0-.4-.357-.279-.64L392.31,141.9a.3.3,0,0,1,.279-.2h41.6A.471.471,0,0,1,434.469,142.34Z" transform="translate(-356.208 -141.7)" fill="#75b52f"/>
          <rect id="Rectngulo_42838" data-name="Rectngulo 42838" width="66.293" height="4.147" transform="translate(0 27.725)" fill="#547a22"/>
          <circle id="Elipse_6049" data-name="Elipse 6049" cx="3.629" cy="3.629" r="3.629" transform="translate(46.277 15.207) rotate(-45)" fill="#fff"/>
        </g>
        <g id="Grupo_116416" data-name="Grupo 116416">
          <path id="Trazado_171274" data-name="Trazado 171274" d="M42.97,25.885c.566,13.094-8.455,24.178-20.209,24.848C10.85,51.4.594,41.094.028,27.738c-.57-13.4,8.764-24.539,20.723-24.9C32.557,2.477,42.4,12.786,42.97,25.885Z" transform="translate(-0.003 -1.597)" fill="#111835"/>
          <g id="Grupo_116415" data-name="Grupo 116415" transform="translate(4.33)">
            <path id="Trazado_171275" data-name="Trazado 171275" d="M52.82,23.1c.566,13.042-8.4,24.178-20.157,24.8-11.911.67-22.115-9.639-22.685-23.046C9.408,11.5,18.742.365,30.648,0,42.4-.253,52.3,10.056,52.816,23.1Z" transform="translate(-9.953 0.001)" fill="#131f63"/>
            <g id="Grupo_116414" data-name="Grupo 116414" transform="translate(5.386 6.269)">
              <g id="Grupo_116413" data-name="Grupo 116413" transform="translate(8.508 3.275)">
                <path id="Trazado_171276" data-name="Trazado 171276" d="M41.88,25.333a12.808,12.808,0,0,1,8.612-3.4,13.663,13.663,0,0,1,3.2.413,12.177,12.177,0,0,1,3.042,1.34,13.02,13.02,0,0,1,2.628,2.167,13.658,13.658,0,0,1,2.01,2.785c.309.513.513,1.031.775,1.545a15.391,15.391,0,0,1,.618,1.649l-3.969,1.031a11.133,11.133,0,0,0-.257-1.236,10.772,10.772,0,0,0-.361-1.236,11.947,11.947,0,0,0-1.136-2.319,10.382,10.382,0,0,0-1.7-2.01,9.4,9.4,0,0,0-2.215-1.5,11.173,11.173,0,0,0-2.628-.875,13.019,13.019,0,0,0-2.837-.157,12.078,12.078,0,0,0-5.775,1.806Z" transform="translate(-41.88 -21.93)" fill="#fff"/>
                <g id="Grupo_116412" data-name="Grupo 116412" transform="translate(6.928 12.942)">
                  <path id="Trazado_171277" data-name="Trazado 171277" d="M71.647,53.267c-3.764-.513-7.628-1.031-11.6-1.6a.906.906,0,0,0-.513.1c-.413.257-.875.514-1.288.722a.94.94,0,0,0,0,1.6c.413.257.875.466,1.288.722a.838.838,0,0,0,.513.1l11.6-1.649Z" transform="translate(-57.8 -51.67)" fill="#fff"/>
                  <path id="Trazado_171278" data-name="Trazado 171278" d="M62.563,53.5a.871.871,0,0,1,0,1.184.749.749,0,0,1-1.084,0,.871.871,0,0,1,0-1.184A.749.749,0,0,1,62.563,53.5Z" transform="translate(-59.747 -52.572)" fill="#fff"/>
                </g>
              </g>
              <path id="Trazado_171279" data-name="Trazado 171279" d="M55.942,32.166c0-9.278-6.906-17.22-15.879-17.733C30.524,13.867,22.33,21.8,22.33,32.166s8.2,18.3,17.733,17.733C49.032,49.386,55.942,41.444,55.942,32.166Z" transform="translate(-22.33 -14.405)" fill="none" stroke="#fff" stroke-miterlimit="10" stroke-width="3"/>
            </g>
          </g>
        </g>
      </g>
    </g>
  </g>
</svg>
