<svg xmlns="http://www.w3.org/2000/svg" xmlns:xlink="http://www.w3.org/1999/xlink" width="328.458" height="262.727" viewBox="0 0 328.458 262.727">
  <defs>
    <linearGradient id="linear-gradient" x1="-0.411" y1="-80.591" x2="0.426" y2="-79.646" gradientUnits="objectBoundingBox">
      <stop offset="0.01" stop-color="#6b8aff"/>
      <stop offset="0.36" stop-color="#86a0f4"/>
      <stop offset="0.76" stop-color="#a0b4ea"/>
      <stop offset="1" stop-color="#a9bce6"/>
    </linearGradient>
    <linearGradient id="linear-gradient-2" x1="0.061" y1="-20.619" x2="0.979" y2="-20.466" gradientUnits="objectBoundingBox">
      <stop offset="0" stop-color="#3490e8"/>
      <stop offset="1" stop-color="#1c478d"/>
    </linearGradient>
    <linearGradient id="linear-gradient-3" x1="0.078" y1="-36.298" x2="0.651" y2="-36.559" xlink:href="#linear-gradient"/>
    <linearGradient id="linear-gradient-4" x1="-0.014" y1="-37.083" x2="0.912" y2="-37.188" xlink:href="#linear-gradient"/>
    <linearGradient id="linear-gradient-5" x1="-0.004" y1="-50.863" x2="0.537" y2="-50.131" xlink:href="#linear-gradient"/>
    <linearGradient id="linear-gradient-6" x1="1.711" y1="-22.12" x2="0.036" y2="-21.614" xlink:href="#linear-gradient-2"/>
  </defs>
  <g id="Grupo_116520" data-name="Grupo 116520" transform="translate(-638 -9617)">
    <g id="Capa_1" data-name="Capa 1" transform="translate(651.144 9629.43)">
      <g id="Grupo_114360" data-name="Grupo 114360" transform="translate(-13.144 -12.429)">
        <path id="Trazado_168827" data-name="Trazado 168827" d="M19.614,259.82A114.11,114.11,0,0,1,1.8,217.666c-3.1-16.024-2.36-33.956,3.42-48.346,7.542-18.783,22.118-28.951,32.532-44.608,15.059-22.643,21.9-57.364,41.2-71.791,13.332-9.96,29.366-7.476,44.092-3.273s29.829,9.887,44.535,5.531c11.738-3.481,22.093-13.068,32.333-22.05,12.535-10.988,25.468-21.414,39.487-27.593s29.331-7.9,43.3-1.456a47.243,47.243,0,0,1,22.168,21.946,59.5,59.5,0,0,1,5.063,37.394c-3.027,14.506-12.1,26.008-12.789,41.127-.587,12.848,5.133,24.473,11.355,33.687s13.421,17.651,17.15,29.343c7.089,22.221-.458,48.163-9.075,69.221-3.236,7.9-6.77,15.877-11.933,21.23S292.453,262.7,286.1,262.7H21.217l-1.608-2.888Z" transform="translate(0 0.003)" fill="#75b62f" opacity="0.499"/>
        <path id="Trazado_168891" data-name="Trazado 168891" d="M93.442,57.53s-.015.025,0,.025A.013.013,0,0,0,93.442,57.53Z" transform="translate(101.054 92.584)" fill="#594e8a"/>
        <path id="Trazado_168903" data-name="Trazado 168903" d="M93.1,57.289s.015.02,0,.02A.01.01,0,1,1,93.1,57.289Z" transform="translate(100.675 92.2)" fill="#594e8a"/>
      </g>
    </g>
    <g id="Capa_1-2" data-name="Capa 1" transform="translate(678.01 9648.64)">
      <g id="Grupo_116458" data-name="Grupo 116458" transform="translate(-0.01 -0.001)">
        <g id="Grupo_116435" data-name="Grupo 116435" transform="translate(50.783 5.517)">
          <g id="Grupo_116418" data-name="Grupo 116418" transform="translate(67.034 14.795)">
            <path id="Trazado_171280" data-name="Trazado 171280" d="M268.119,60.248c.7-.368,1.437-.768,2.071-1.1h0c-.1-.535-.2-1.168-.332-1.873-.7-3.877-.4-4.878.2-5.377a1.826,1.826,0,0,1,1.635-.368c.467.135.737.5,1.437,1.936.97,1.936,1.738,3.809,1.738,3.809s5.247-12.861,7.151-11.558c1.873,1.271,1.6,1.4,1.235,2.507-.368,1.136-3.607,7.951-3.607,7.951s5.912-7.884,7.416-7.048,1.77,1.873,1.438,2.641-5.314,6.248-5.314,6.248,6.383-4.645,7.183-3.773c.8.836,1.2,2.273.234,3.005-.9.669-5.548,3.944-6.316,4.51.737-.5,4.878-3.207,5.88-.368C291.307,64.5,287.8,64.3,286.4,65.23a44.6,44.6,0,0,1-4.744,2.808h0c-.1.067-1.77.97-3.908,2.107-.332.166-.669.368-1.038.566-2.273,1.235-4.878,2.641-6.581,3.54-3.742,1.972-8.22-9.622-7.282-10.79a23.965,23.965,0,0,1,4.676-2.875,5.019,5.019,0,0,1,.6-.332Z" transform="translate(-262.516 -45.441)" fill="#e7a182"/>
            <path id="Trazado_171281" data-name="Trazado 171281" d="M266.033,72.619c-2.408-2.906-4.344-8.584-3.607-9.523.135-.166.566-.7,4.744-2.942l.566-.3q1-.553,1.9-1c-.1-.5-.2-1.069-.3-1.671-.7-3.908-.436-5.013.265-5.615a2.139,2.139,0,0,1,1.873-.436c.566.166.867.633,1.572,2.071.633,1.3,1.2,2.574,1.5,3.275,1-2.408,4.577-10.624,6.581-11.226a.851.851,0,0,1,.7.1c1.738,1.168,1.806,1.469,1.437,2.507-.031.1-.067.166-.1.27-.234.737-1.671,3.841-2.673,5.979,1.936-2.408,5.143-6.015,6.347-5.346,1.671.9,1.9,2.138,1.572,2.974a50.411,50.411,0,0,1-3.877,4.676c2.206-1.469,5.045-3.176,5.714-2.507a2.882,2.882,0,0,1,.867,2.17,1.571,1.571,0,0,1-.669,1.2c-.5.368-2.138,1.536-3.643,2.605a3.61,3.61,0,0,1,1.972-.1,2.07,2.07,0,0,1,1.3,1.339,2.528,2.528,0,0,1,.031,2.039,3.919,3.919,0,0,1-2.507,1.536,5.5,5.5,0,0,0-1.4.566,37.177,37.177,0,0,1-4.744,2.808h0l-.2.1c-.5.27-1.936,1.069-3.71,2l-1.038.566c-3.041,1.635-5.179,2.808-6.581,3.54a2.358,2.358,0,0,1-2.574-.3,13.151,13.151,0,0,1-1.339-1.37ZM281.3,67.575a43.865,43.865,0,0,0,4.676-2.772,5.8,5.8,0,0,1,1.536-.6c.9-.3,1.873-.566,2.206-1.271a2.078,2.078,0,0,0-.067-1.671,1.6,1.6,0,0,0-.97-1.038c-1.536-.5-4.043,1.168-4.546,1.536a.24.24,0,1,1-.265-.4c.535-.4,5.413-3.841,6.316-4.51a1.192,1.192,0,0,0,.467-.836,2.449,2.449,0,0,0-.737-1.77c-.368-.368-3.54,1.437-6.85,3.809a.255.255,0,0,1-.332-.031.223.223,0,0,1,0-.332,66.145,66.145,0,0,0,5.247-6.181c.332-.8-.166-1.7-1.339-2.34-.835-.436-4.276,3.207-7.115,6.981a.254.254,0,0,1-.431-.265c.031-.067,3.239-6.85,3.607-7.92.031-.1.067-.2.1-.3.265-.8.3-.9-1.235-1.936a.326.326,0,0,0-.265-.031c-1.671.5-5.247,8.454-6.482,11.5a.247.247,0,0,1-.467,0c0-.031-.8-1.9-1.738-3.809-.7-1.437-.934-1.7-1.271-1.837a1.579,1.579,0,0,0-1.4.332c-.535.467-.768,1.5-.1,5.143.135.7.234,1.3.332,1.873a.455.455,0,0,1-.031.2c-.031.031-.067.067-.1.067h0c-.633.332-1.37.7-2.071,1.069h0l-.566.3c-3.54,1.9-4.411,2.605-4.609,2.839-.436.566,1.038,5.813,3.607,8.885.867,1.038,2.138,2.138,3.374,1.5,1.4-.737,3.576-1.9,6.581-3.54l1.038-.566c1.738-.934,3.176-1.738,3.71-2l.2-.067h0Z" transform="translate(-262.267 -45.216)" fill="#e7a182"/>
          </g>
          <path id="Trazado_171282" data-name="Trazado 171282" d="M290.94,80.8h0a.3.3,0,0,0,.368-.067c3.005-5.081-.566-8.418-1.7-9.487a.266.266,0,0,0-.368,0,.262.262,0,0,0,0,.368c1.9,1.77,4.142,4.609,1.635,8.885A.225.225,0,0,0,290.94,80.8Z" transform="translate(-210.046 -44.719)" fill="#e7a182"/>
          <path id="Trazado_171283" data-name="Trazado 171283" d="M279.066,87.173a6.943,6.943,0,0,0,4.11,1.37.252.252,0,0,0-.031-.5c-1.77.1-6.882-1.437-9.119-9.856a.243.243,0,1,0-.467.135c1.271,4.811,3.477,7.452,5.512,8.854Z" transform="translate(-201.447 -48.483)" fill="#e7a182"/>
          <path id="Trazado_171284" data-name="Trazado 171284" d="M222.884,77.14c-7.084,4.178-14.132,8.351-21.216,12.528a18.718,18.718,0,0,1-3.275-1.972c-3.342-2.538-8.05-7.25-10.39-6.85-2.372,3.908-2.372,11.059-4.744,14.936,1.2.234,2.039,1.5,4.142,2.471,10.39,4.712,12.9,6.949,18.175,5.948,2.974-.566,6.082-2.107,12.326-5.247a124.9,124.9,0,0,0,12.362-7.048,22.212,22.212,0,0,0-1.873-7.416,21.643,21.643,0,0,0-5.512-7.349Z" transform="translate(-151.717 -48.004)" fill="url(#linear-gradient)"/>
          <g id="Grupo_116421" data-name="Grupo 116421" transform="translate(25.095 167.104)">
            <path id="Trazado_171285" data-name="Trazado 171285" d="M196,410.387c-.1,1.873-11.428,2.206-18.912,1.77-4.308-.265-6.684-.737-7.484-2.34-.737-1.469.535-2.507,1.873-6.015.1-.3.234-.6.332-.934.867-2.605,3.176-9.321,2.237-15.969-.1-.768-.265-1.635.234-2.17,1.37-1.469,6.316.934,10.323,3.239-2.372,4.178-5.512,11.059-2.772,14.7a1.937,1.937,0,0,1,.2.265c.4.4,1.271,1,4.276,2.538,7.551,3.773,9.757,4.074,9.689,4.91Z" transform="translate(-169.171 -384.278)" fill="#f8ae8e"/>
            <g id="Grupo_116419" data-name="Grupo 116419" transform="translate(0 18.14)">
              <path id="Trazado_171286" data-name="Trazado 171286" d="M196,432.932c-1.339,3.409-10.458,2.273-18.912,1.77-4.308-.265-6.684-.737-7.484-2.34a2.352,2.352,0,0,1,.166-2.237c.4-.867,1.038-2,1.7-3.773a8.774,8.774,0,0,0,3.773,1.936c1,.2,3.342.7,5.081-.737a4.774,4.774,0,0,0,1.5-2.34,18.337,18.337,0,0,0,4.51,2.772c4.609,2.039,8.854,1.7,9.689,3.441a2.413,2.413,0,0,1,.1.265,1.912,1.912,0,0,1-.135,1.235Z" transform="translate(-169.172 -424.963)" fill="#f75316"/>
              <path id="Trazado_171287" data-name="Trazado 171287" d="M180.1,434.867l-3.275-.2c-4.308-.265-6.814-.737-7.686-2.507a2.742,2.742,0,0,1,.135-2.439c.135-.3.3-.6.467-.97a26.337,26.337,0,0,0,1.235-2.808.322.322,0,0,1,.2-.166.209.209,0,0,1,.234.067,8.411,8.411,0,0,0,3.675,1.873c.97.2,3.207.669,4.842-.669a4.323,4.323,0,0,0,1.4-2.206c.031-.1.1-.166.166-.166a.29.29,0,0,1,.234.031,19.222,19.222,0,0,0,4.443,2.74,29.862,29.862,0,0,0,5.678,1.7c2.107.467,3.643.8,4.142,1.873a1.125,1.125,0,0,1,.1.3,2.133,2.133,0,0,1-.135,1.4h0c-.8,1.972-3.908,2.538-8.018,2.538-2.34-.031-5.081-.2-7.852-.4Zm.135-7.416c-1.837,1.5-4.276,1-5.278.768a8.372,8.372,0,0,1-3.607-1.738c-.4,1.038-.8,1.837-1.136,2.507-.166.368-.332.669-.467.934a2.28,2.28,0,0,0-.166,2c.768,1.536,3.239,1.972,7.25,2.206l3.275.2c7.017.467,14.267.97,15.367-1.806h0a1.88,1.88,0,0,0,.135-1.069c-.031-.067-.031-.135-.067-.2-.4-.836-1.9-1.168-3.809-1.572a29.808,29.808,0,0,1-5.781-1.738,20.649,20.649,0,0,1-4.276-2.574,4.727,4.727,0,0,1-1.437,2.071Z" transform="translate(-168.905 -424.661)" fill="#f75316"/>
            </g>
            <g id="Grupo_116420" data-name="Grupo 116420" transform="translate(0 23.05)">
              <path id="Trazado_171288" data-name="Trazado 171288" d="M196,438.958c-1.339,3.409-10.458,2.273-18.912,1.77-4.308-.265-6.684-.737-7.484-2.34a2.352,2.352,0,0,1,.166-2.237,12.912,12.912,0,0,0,5.112,1.837l16.068,1.671c2.439.265,3.975-1.2,5.112-2.206a2.424,2.424,0,0,1,.1.265,2.182,2.182,0,0,1-.166,1.235Z" transform="translate(-169.172 -435.899)" fill="#292466"/>
              <path id="Trazado_171289" data-name="Trazado 171289" d="M180.1,440.887l-3.275-.2c-4.308-.265-6.814-.737-7.686-2.507a2.742,2.742,0,0,1,.135-2.439.217.217,0,0,1,.166-.135.22.22,0,0,1,.2.031,13.433,13.433,0,0,0,5.013,1.806l16.068,1.671c2.237.234,3.71-1.069,4.78-2.039l.135-.135a.289.289,0,0,1,.436.067,1.124,1.124,0,0,1,.1.3,2.133,2.133,0,0,1-.135,1.4c-.8,1.972-3.908,2.538-8.018,2.538-2.408,0-5.143-.166-7.92-.368Zm10.556-1.271-16.068-1.671a13.753,13.753,0,0,1-4.946-1.738,1.888,1.888,0,0,0-.031,1.738c.768,1.536,3.239,1.972,7.25,2.206l3.275.2c7.017.467,14.267.97,15.367-1.806h0a1.7,1.7,0,0,0,.135-.934,6.222,6.222,0,0,1-4.977,2Z" transform="translate(-168.905 -435.591)" fill="#292466"/>
            </g>
          </g>
          <g id="Grupo_116424" data-name="Grupo 116424" transform="translate(2.176 166.632)">
            <path id="Trazado_171290" data-name="Trazado 171290" d="M145.05,409.337c-.1,1.873-11.428,2.206-18.912,1.77-4.308-.265-6.684-.737-7.484-2.34-.737-1.469.535-2.507,1.873-6.015.1-.3.234-.6.332-.934.867-2.605,3.176-9.321,2.237-15.969-.1-.768-.265-1.635.234-2.17,1.37-1.469,6.316.934,10.323,3.239-2.372,4.178-5.512,11.059-2.772,14.7a1.937,1.937,0,0,1,.2.265c.4.4,1.271,1,4.276,2.538,7.515,3.809,9.721,4.074,9.689,4.91Z" transform="translate(-118.189 -383.228)" fill="#f8ae8e"/>
            <g id="Grupo_116422" data-name="Grupo 116422" transform="translate(0 18.145)">
              <path id="Trazado_171291" data-name="Trazado 171291" d="M145.051,431.882c-1.339,3.409-10.458,2.273-18.912,1.77-4.308-.265-6.684-.737-7.484-2.34a2.352,2.352,0,0,1,.166-2.237c.4-.867,1.038-2,1.7-3.773a8.773,8.773,0,0,0,3.773,1.936c1,.2,3.342.7,5.081-.737a4.774,4.774,0,0,0,1.5-2.34,18.337,18.337,0,0,0,4.51,2.772c4.609,2.039,8.854,1.7,9.689,3.441a2.411,2.411,0,0,1,.1.265,1.873,1.873,0,0,1-.135,1.235Z" transform="translate(-118.19 -423.918)" fill="#f75316"/>
              <path id="Trazado_171292" data-name="Trazado 171292" d="M129.077,433.827l-3.275-.2c-4.308-.265-6.814-.737-7.686-2.507a2.742,2.742,0,0,1,.135-2.439c.135-.3.3-.6.467-.97a26.336,26.336,0,0,0,1.235-2.808.322.322,0,0,1,.2-.166.209.209,0,0,1,.234.067,8.41,8.41,0,0,0,3.675,1.873c.97.2,3.207.669,4.842-.669a4.323,4.323,0,0,0,1.4-2.206c.031-.1.1-.166.166-.166a.29.29,0,0,1,.234.031,19.224,19.224,0,0,0,4.443,2.74,29.857,29.857,0,0,0,5.678,1.7c2.107.467,3.643.8,4.178,1.873a1.125,1.125,0,0,1,.1.3,2.133,2.133,0,0,1-.135,1.4h0c-.8,1.972-3.908,2.538-8.018,2.538-2.372,0-5.081-.2-7.884-.4Zm.166-7.416c-1.837,1.5-4.276,1-5.278.768a8.373,8.373,0,0,1-3.607-1.738c-.4,1.038-.8,1.837-1.136,2.507-.166.368-.332.669-.467.934a2.28,2.28,0,0,0-.166,2c.768,1.536,3.239,1.972,7.25,2.206l3.275.2c7.017.467,14.267.97,15.367-1.806h0a1.938,1.938,0,0,0,.135-1.069c-.031-.067-.031-.135-.067-.2-.4-.836-1.9-1.168-3.809-1.572a29.811,29.811,0,0,1-5.781-1.738,20.654,20.654,0,0,1-4.276-2.574,4.846,4.846,0,0,1-1.437,2.071Z" transform="translate(-117.885 -423.621)" fill="#f75316"/>
            </g>
            <g id="Grupo_116423" data-name="Grupo 116423" transform="translate(0 23.054)">
              <path id="Trazado_171293" data-name="Trazado 171293" d="M145.051,437.908c-1.339,3.409-10.458,2.273-18.912,1.77-4.308-.265-6.684-.737-7.484-2.34a2.352,2.352,0,0,1,.166-2.237,12.912,12.912,0,0,0,5.112,1.837L140,438.608c2.439.265,3.975-1.2,5.112-2.206a2.409,2.409,0,0,1,.1.265,2.125,2.125,0,0,1-.166,1.235Z" transform="translate(-118.19 -434.853)" fill="#292466"/>
              <path id="Trazado_171294" data-name="Trazado 171294" d="M129.077,439.847l-3.275-.2c-4.308-.265-6.814-.737-7.686-2.507a2.742,2.742,0,0,1,.135-2.439.217.217,0,0,1,.166-.135.22.22,0,0,1,.2.031,13.434,13.434,0,0,0,5.013,1.806l16.068,1.671c2.237.234,3.71-1.069,4.78-2.039l.135-.135a.289.289,0,0,1,.436.067,1.124,1.124,0,0,1,.1.3,2.133,2.133,0,0,1-.135,1.4h0c-.8,1.972-3.908,2.538-8.018,2.538-2.408.031-5.112-.166-7.92-.368Zm10.556-1.235-16.068-1.671a13.754,13.754,0,0,1-4.946-1.738,1.888,1.888,0,0,0-.031,1.738c.768,1.536,3.239,1.972,7.25,2.206l3.275.2c7.017.467,14.267.97,15.367-1.806h0a1.764,1.764,0,0,0,.135-.934,6.171,6.171,0,0,1-4.977,2Z" transform="translate(-117.885 -434.551)" fill="#292466"/>
            </g>
          </g>
          <g id="Grupo_116427" data-name="Grupo 116427" transform="translate(3.414 71.267)">
            <path id="Trazado_171295" data-name="Trazado 171295" d="M158.894,171.73c1.168,7.452,2.538,17.64,3.54,29.8a283.594,283.594,0,0,1,1.271,33.578,210.963,210.963,0,0,1-6.446,45.069,11.609,11.609,0,0,1-6.814,2.641,12.09,12.09,0,0,1-7.717-2.408q1.051-19.042,3.674-39.526c.436-3.374.9-6.684,1.4-9.99.031-.467-1.635-11.226-2.206-16.068-1.069-8.688-2.439-13.9-3.477-21.18q-.2,17.991-1.136,37.118c-.867,17.407-2.17,34.144-3.773,50.149a19.389,19.389,0,0,1-6.581,1.5,20.235,20.235,0,0,1-9.99-2.138q1.253-24.608,2.538-49.247c-.9-14.635-1.271-30.07-.867-46.205.1-4.712.265-9.321.5-13.9,11.994.3,24.024.535,36.085.8Z" transform="translate(-120.64 -170.93)" fill="#1b468c"/>
            <g id="Grupo_116425" data-name="Grupo 116425" opacity="0.25">
              <path id="Trazado_171296" data-name="Trazado 171296" d="M158.894,171.73c1.168,7.452,2.538,17.64,3.54,29.8a283.594,283.594,0,0,1,1.271,33.578,210.963,210.963,0,0,1-6.446,45.069,11.609,11.609,0,0,1-6.814,2.641,12.09,12.09,0,0,1-7.717-2.408q1.051-19.042,3.674-39.526c.436-3.374.9-6.684,1.4-9.99.031-.467-1.635-11.226-2.206-16.068-1.069-8.688-2.439-13.9-3.477-21.18q-.2,17.991-1.136,37.118c-.867,17.407-2.17,34.144-3.773,50.149a19.389,19.389,0,0,1-6.581,1.5,20.235,20.235,0,0,1-9.99-2.138q1.253-24.608,2.538-49.247c-.9-14.635-1.271-30.07-.867-46.205.1-4.712.265-9.321.5-13.9,11.994.3,24.024.535,36.085.8Z" transform="translate(-120.64 -170.93)" fill="url(#linear-gradient-2)"/>
            </g>
            <path id="Trazado_171297" data-name="Trazado 171297" d="M161.847,187.3a75.647,75.647,0,0,1-16.037,2.408A73.709,73.709,0,0,1,124.06,187.3c0-.1.067-1.7.067-1.806.031-.6.031-1.2.067-1.806l37.455-2.206q.1,2.9.2,5.813Z" transform="translate(-122.524 -176.741)" fill="#292466"/>
            <g id="Grupo_116426" data-name="Grupo 116426" transform="translate(1.572 9.451)">
              <path id="Trazado_171298" data-name="Trazado 171298" d="M137.769,195.184l-13.53-.234v.535c-.031,2.039-.067,4.074-.1,6.082,2.7,2.039,7.385,2.74,9.388,2.74,2.138,0,5.346-2.471,5.081-5.045a21.747,21.747,0,0,0-.836-4.074Z" transform="translate(-124.14 -193.611)" fill="#292466"/>
              <path id="Trazado_171299" data-name="Trazado 171299" d="M195.493,200.222c-.332-2.942-.669-5.678-1.038-8.252l-11.5.166S185.5,201.39,188,201.39a29.5,29.5,0,0,0,7.484-1.168Z" transform="translate(-156.538 -191.97)" fill="#292466"/>
            </g>
          </g>
          <path id="Trazado_171300" data-name="Trazado 171300" d="M154.585,126.84a88.81,88.81,0,0,1-18.108,1.806,87.353,87.353,0,0,1-20.448-2.34c1.3-17.007,1.635-24.091,1.536-26.7-.031-1.536,0-3.109.135-6.213a28.62,28.62,0,0,1,.535-4.546c.031-.166.067-.3.1-.467a10.632,10.632,0,0,1,3.306-6.082,9.815,9.815,0,0,1,3.041-1.77,13.75,13.75,0,0,1,2.206-.633c.6-.135,1.235-.234,1.9-.332.867-.135,1.77-.234,2.74-.368.135,0,.234-.031.368-.031q1.3-.148,2.507-.2a35.019,35.019,0,0,1,8.351.669,35.461,35.461,0,0,1,4.811,1.339c.1.669.265,1.7.467,2.942,2.74,16.571,4.375,22.119,5.512,30.4a124.485,124.485,0,0,1,1.038,12.528Z" transform="translate(-114.687 -48.992)" fill="#fff"/>
          <path id="Trazado_171301" data-name="Trazado 171301" d="M132.154,95.574V135.2a2.427,2.427,0,0,1-1.873,2.372,22.186,22.186,0,0,1-7.753.4,13.328,13.328,0,0,1-1.738-.3c-.2-.031-.436-.1-.633-.135a21.743,21.743,0,0,1-5.88-2.3,2.486,2.486,0,0,1-1.235-2.17c.135-5.444.6-24.522,1.873-37.253.234-2.206.467-4.209.737-5.912a13.811,13.811,0,0,1,.368-1.873,11.979,11.979,0,0,1,2.641-5.211A13.284,13.284,0,0,1,124.809,79a22.728,22.728,0,0,1,5.413-.9c.669,5.849,1.3,11.661,1.936,17.474Z" transform="translate(-113.04 -48.533)" fill="url(#linear-gradient-3)"/>
          <path id="Trazado_171302" data-name="Trazado 171302" d="M133.789,150.66l.067-23.386c-.669-.1-1.339-.234-2-.332a63.072,63.072,0,0,0-9.824-.934,9.771,9.771,0,0,0-4.479.737,3.525,3.525,0,0,0-.7.467,9.435,9.435,0,0,0-.867.8c-.2,2.974-.265,15,17.807,22.653Z" transform="translate(-114.64 -74.919)" fill="#6b8aff"/>
          <path id="Trazado_171303" data-name="Trazado 171303" d="M194.461,134.357a2.183,2.183,0,0,1-.867,2.071,12.118,12.118,0,0,1-3.441,1.9,14.847,14.847,0,0,1-8.351.368,2.535,2.535,0,0,1-2.138-2.273c-.2-7.753-.467-16.338-.7-24.724-.135-5.211-.3-10.323-.436-15.1-.234-8.288-.467-15.87-.467-16.571a32.342,32.342,0,0,1,8.05,2.507.75.75,0,0,1,.234.135q4.056,25.861,8.117,51.686Z" transform="translate(-148.853 -49.596)" fill="url(#linear-gradient-4)"/>
          <g id="Grupo_116431" data-name="Grupo 116431" transform="translate(14.566)">
            <g id="Grupo_116428" data-name="Grupo 116428" transform="translate(3.447 16.037)">
              <path id="Trazado_171304" data-name="Trazado 171304" d="M153.88,49.26l.836,15.435a3.043,3.043,0,0,0,3.073,2.641,9.557,9.557,0,0,0,2.107-.1.911.911,0,0,0,.3-.067,3.087,3.087,0,0,0,2.74-3.005L162.1,48.73l-8.22.535Z" transform="translate(-153.548 -48.393)" fill="#e7a182"/>
              <path id="Trazado_171305" data-name="Trazado 171305" d="M158.584,67.224a8.1,8.1,0,0,1-1.235,0,3.328,3.328,0,0,1-3.374-2.942l-.836-15.435a.3.3,0,0,1,.265-.332l8.22-.535a.3.3,0,0,1,.3.3l.836,15.435a3.364,3.364,0,0,1-2.974,3.342c-.1.031-.2.031-.3.067A3.68,3.68,0,0,1,158.584,67.224Zm-4.811-18.076.8,15.1a2.787,2.787,0,0,0,2.808,2.34,10.7,10.7,0,0,0,2.039-.1c.1,0,.2-.031.265-.031a2.828,2.828,0,0,0,2.507-2.673l-.8-15.1-7.619.467Z" transform="translate(-153.14 -47.98)" fill="#e7a182"/>
            </g>
            <path id="Trazado_171306" data-name="Trazado 171306" d="M159.6,23.905c.9-.27,2.138-.669,3.607-1.235,2.574-.97,2.906-1.3,3.108-1.671.737-1.3.067-3.675-1.7-4.712a4.1,4.1,0,0,0-4.308.2,3.519,3.519,0,0,0-.436-3.005c-1.038-1.168-3.409-1.3-5.179.3a3.372,3.372,0,0,0-2.507-1.5,3.461,3.461,0,0,0-3.109,3.342A9.755,9.755,0,0,0,145.9,20c-.737,2.138-.4,3.877-.031,6.082a14.251,14.251,0,0,0,3.073,7.048c.234.27.4.467.535.6.332.067.669.135,1.038.2a13.873,13.873,0,0,0,.467-2.808c.135-1.936-.2-2.74-.067-3.441.234-1.235,1.972-2.74,8.688-3.773Z" transform="translate(-145.466 -12.28)" fill="#3e3d44"/>
            <g id="Grupo_116429" data-name="Grupo 116429" transform="translate(2.976 9.348)">
              <path id="Trazado_171307" data-name="Trazado 171307" d="M167.085,33.77a2.493,2.493,0,0,1-1.469,1.1,3.731,3.731,0,0,1-1.671-.166c-1.2-.234-1.437-.332-1.806-.4-1.6-.27-3.108.737-5.48,2.34-.633.436-.9.7-1.137.836a1.323,1.323,0,0,0-.566.566,1.392,1.392,0,0,0-1.069-.332,1.826,1.826,0,0,0-1.235,1.469,2.748,2.748,0,0,0,.836,2.17,5.471,5.471,0,0,0,1.4,1.271c.031.2.031.436.067.633a8.486,8.486,0,0,0,.332,2.107c.633,1.572,2,2.3,3.409,3.109,1.7.934,3.239,1.77,4.842,1.235a3.8,3.8,0,0,0,1.806-1.37c1.3-1.536,1.738-3.409,1.936-5.947a34.821,34.821,0,0,0-.2-8.62Z" transform="translate(-152.383 -33.465)" fill="#f8ae8e"/>
              <path id="Trazado_171308" data-name="Trazado 171308" d="M162.485,49.769a8.247,8.247,0,0,1-4.142-1.437c-1.4-.768-2.839-1.572-3.54-3.239a8.2,8.2,0,0,1-.368-2.206c-.031-.166-.031-.332-.067-.5A5.4,5.4,0,0,1,153,41.149a3.026,3.026,0,0,1-.867-2.408,2.088,2.088,0,0,1,1.469-1.7,1.486,1.486,0,0,1,1.038.234,2.185,2.185,0,0,1,.5-.436c.067-.031.166-.135.3-.234.166-.135.436-.332.8-.6,2.408-1.6,3.975-2.673,5.678-2.372.166.031.3.067.5.1.265.067.633.166,1.3.3a3.688,3.688,0,0,0,1.536.166,2.294,2.294,0,0,0,1.271-.97.371.371,0,0,1,.3-.135.4.4,0,0,1,.234.234,39.74,39.74,0,0,1,.265,8.688c-.2,2.574-.6,4.479-2,6.114a4.453,4.453,0,0,1-1.936,1.469,2.908,2.908,0,0,1-.9.166Zm-8.719-12.16H153.7a1.541,1.541,0,0,0-1,1.235,2.548,2.548,0,0,0,.768,1.936,4.53,4.53,0,0,0,1.339,1.168.273.273,0,0,1,.135.2c.031.2.031.436.067.633a7.247,7.247,0,0,0,.332,2.039c.6,1.469,1.9,2.206,3.275,2.942,1.671.934,3.109,1.7,4.609,1.2a3.926,3.926,0,0,0,1.7-1.3c1.271-1.5,1.671-3.342,1.873-5.781A38.976,38.976,0,0,0,166.631,34a2.47,2.47,0,0,1-1.2.7,3.653,3.653,0,0,1-1.77-.166c-.7-.135-1.1-.234-1.339-.3-.166-.031-.3-.067-.436-.1-1.5-.234-2.906.7-5.278,2.3a8.011,8.011,0,0,0-.768.566c-.166.13-.265.2-.368.27a1.045,1.045,0,0,0-.467.467.222.222,0,0,1-.2.135.316.316,0,0,1-.234-.067,2.844,2.844,0,0,0-.8-.2Z" transform="translate(-152.09 -33.09)" fill="#f8ae8e"/>
            </g>
            <g id="Grupo_116430" data-name="Grupo 116430" transform="translate(10.299 11.792)">
              <path id="Trazado_171309" data-name="Trazado 171309" d="M175.981,61.653h-.067c-1.038-.067-1.2-1.77-1.2-1.936a.4.4,0,0,1,.166-.332.313.313,0,0,1,.368.031,2.617,2.617,0,0,0,1.1.5,1.134,1.134,0,0,0,1-.332.285.285,0,0,1,.436-.031.363.363,0,0,1,.1.436c-.166.27-1.069,1.671-1.9,1.671Zm-.467-1.3c.1.332.265.633.467.669a1.023,1.023,0,0,0,.6-.4.982.982,0,0,1-.3-.031,2.933,2.933,0,0,1-.768-.234Z" transform="translate(-171.872 -49.991)" fill="#030214"/>
              <path id="Trazado_171310" data-name="Trazado 171310" d="M171.859,46c.067.535.368.97.633.934s.436-.5.368-1.069c-.067-.535-.368-.97-.633-.934C171.927,44.995,171.792,45.462,171.859,46Z" transform="translate(-170.292 -42.053)" fill="#030214"/>
              <path id="Trazado_171311" data-name="Trazado 171311" d="M181.145,44.367c.067.535.368.97.633.934s.436-.5.368-1.069c-.067-.535-.368-.97-.633-.934C181.212,43.329,181.046,43.8,181.145,44.367Z" transform="translate(-175.401 -41.155)" fill="#030214"/>
              <path id="Trazado_171312" data-name="Trazado 171312" d="M170.426,40.294a.847.847,0,0,0-.97-.1,3.394,3.394,0,0,0-1.038,1.235c-.1.27.1.332.368.135a3.4,3.4,0,0,1,.97-.633c.3-.067.737-.067.768-.234a.3.3,0,0,0-.1-.4Z" transform="translate(-168.392 -39.391)" fill="#030214"/>
              <path id="Trazado_171313" data-name="Trazado 171313" d="M179.938,38.966a.907.907,0,0,1,.867-.436,2.89,2.89,0,0,1,1.4.8c.2.2,0,.332-.3.234a3.823,3.823,0,0,0-1.136-.27c-.3.031-.7.2-.836.067a.54.54,0,0,1,0-.4Z" transform="translate(-174.728 -38.53)" fill="#030214"/>
            </g>
            <path id="Trazado_171314" data-name="Trazado 171314" d="M173.363,57.274c.234-.633,1.1-.768,1.635-.737.7.031,1.168.867,1.168.867l-2.839.332L168.75,57.2s3.176-1.038,3.71-.8a2.656,2.656,0,0,1,.9.867Z" transform="translate(-158.29 -36.561)" fill="#030214"/>
          </g>
          <path id="Trazado_171315" data-name="Trazado 171315" d="M167.774,89.19a1.656,1.656,0,0,1-.368.8,4.512,4.512,0,0,1-.535.467,3.273,3.273,0,0,0-.332.332,5.3,5.3,0,0,0-1.37-.368,7.4,7.4,0,0,0-2.138,0,2.13,2.13,0,0,1,1-.566,2.927,2.927,0,0,1,2.071.2c.566-.332,1.1-.6,1.671-.867Z" transform="translate(-140.574 -54.642)" fill="#ebe9f5"/>
          <path id="Trazado_171316" data-name="Trazado 171316" d="M163.367,99.91c-.768,4.182-1.469,8.463-2.17,12.811-.5,3.221-1,6.406-1.437,9.559,1.271,2.821,2.574,5.673,3.841,8.494,1.572-2.525,3.14-5.013,4.712-7.533q-1.455-11.65-2.875-23.332Z" transform="translate(-138.773 -60.546)" fill="#75b52f"/>
          <path id="Trazado_171317" data-name="Trazado 171317" d="M184.036,94.78l-2.34.9,1.671,5.211-4.479,10.624c-.135-5.647-.234-11.226-.368-16.369-.2-8.989-.368-17.2-.4-18.009a22.992,22.992,0,0,1,6.684,2.7l-.768,14.936Z" transform="translate(-148.886 -48.004)" fill="#a9bce6"/>
          <path id="Trazado_171318" data-name="Trazado 171318" d="M178.65,111.452a.253.253,0,0,1-.2-.265c-.135-5.647-.234-11.226-.368-16.369-.2-8.989-.368-17.2-.4-18.009a.241.241,0,0,1,.1-.2.282.282,0,0,1,.234-.067,24.234,24.234,0,0,1,6.783,2.74.341.341,0,0,1,.135.234l-.836,14.936a.251.251,0,0,1-.166.234l-2.107.8,1.6,4.977c.031.067,0,.135,0,.2l-4.479,10.624a.251.251,0,0,1-.234.166c-.031.031-.067.031-.067,0Zm2.574-16.037a.289.289,0,0,1,.166-.332l2.17-.836.8-14.6a22.146,22.146,0,0,0-6.15-2.507c.031,1.806.2,9.388.4,17.672.1,4.78.2,9.892.332,15.134l3.944-9.388-1.671-5.143Z" transform="translate(-148.643 -47.674)" fill="#a9bce6"/>
          <path id="Trazado_171319" data-name="Trazado 171319" d="M146.209,92.837v14.1L141.5,97.818l1.572-4.344L140.531,91.9,138.86,76.333a22.728,22.728,0,0,1,5.413-.9C144.906,81.211,145.576,87.024,146.209,92.837Z" transform="translate(-127.262 -47.063)" fill="#a9bce6"/>
          <g id="Grupo_116432" data-name="Grupo 116432" transform="translate(25.173 27.128)">
            <path id="Trazado_171320" data-name="Trazado 171320" d="M169.724,81.509c.5-1.536,1-3.239,1.4-5.045.265-1.136.5-2.206.7-3.275a4.286,4.286,0,0,1,1.806.5,3.218,3.218,0,0,1,1,.768c-.166,3.441-.368,6.918-.535,10.359a6.945,6.945,0,0,0-.97-2.507c-.5-.8-.867-1.437-1.6-1.536a2.4,2.4,0,0,0-1.806.737Z" transform="translate(-169.432 -72.956)" fill="#ebe9f5"/>
            <path id="Trazado_171321" data-name="Trazado 171321" d="M173.513,84.6a6.846,6.846,0,0,0-.934-2.408c-.5-.8-.836-1.339-1.437-1.437a2.059,2.059,0,0,0-1.6.669.255.255,0,0,1-.332.031.231.231,0,0,1-.1-.3c.535-1.635,1-3.342,1.4-5.013.265-1.069.467-2.17.669-3.239a.281.281,0,0,1,.265-.234,4.165,4.165,0,0,1,1.9.535,3.6,3.6,0,0,1,1.069.8.248.248,0,0,1,.067.2l-.535,10.359a.286.286,0,0,1-.234.27h-.067a.4.4,0,0,1-.135-.234Zm-.368-10.925a3.789,3.789,0,0,0-1.469-.436c-.2,1-.4,2.039-.633,3.041-.332,1.437-.737,2.839-1.168,4.245a2.041,2.041,0,0,1,1.37-.27c.836.166,1.3.9,1.77,1.671A6.253,6.253,0,0,1,173.549,83l.436-8.688a2.606,2.606,0,0,0-.836-.633Z" transform="translate(-169.079 -72.67)" fill="#ebe9f5"/>
          </g>
          <path id="Trazado_171322" data-name="Trazado 171322" d="M145.684,106.706l-4.712-9.119a.228.228,0,0,1,0-.2l1.5-4.142-2.34-1.437c-.067-.031-.1-.1-.135-.2L138.33,76.034a.258.258,0,0,1,.2-.27,23,23,0,0,1,5.48-.934.254.254,0,0,1,.265.234L146.214,92.5v14.132a.283.283,0,0,1-.2.265h-.067a.33.33,0,0,1-.265-.2Zm-1.936-31.373a19.782,19.782,0,0,0-4.878.836L140.5,91.406l2.408,1.5a.23.23,0,0,1,.1.3l-1.536,4.209,4.142,8.05V92.506l-1.873-17.173Z" transform="translate(-126.97 -46.732)" fill="#a9bce6"/>
          <g id="Grupo_116433" data-name="Grupo 116433" transform="translate(15.691 27.568)">
            <path id="Trazado_171323" data-name="Trazado 171323" d="M151.207,74.09a22.3,22.3,0,0,0,2.17,3.809,24.755,24.755,0,0,0,3.54,4.011,3.068,3.068,0,0,0-1.635-.332,3.794,3.794,0,0,0-2.34,1.5,7.883,7.883,0,0,0-1.339,1.806c-.97-2.808-1.972-5.647-2.942-8.454a9.009,9.009,0,0,1,1.6-1.635,8.441,8.441,0,0,1,.934-.7Z" transform="translate(-148.35 -73.892)" fill="#ebe9f5"/>
            <path id="Trazado_171324" data-name="Trazado 171324" d="M151.16,84.907a.251.251,0,0,1-.234-.166l-2.942-8.454a.289.289,0,0,1,.031-.234,8.741,8.741,0,0,1,1.635-1.671,6.573,6.573,0,0,1,1.038-.7.455.455,0,0,1,.2-.031.311.311,0,0,1,.166.135,24.714,24.714,0,0,0,2.138,3.773A21.788,21.788,0,0,0,156.7,81.5a.255.255,0,0,1,.031.332.316.316,0,0,1-.332.1,2.8,2.8,0,0,0-1.5-.3c-.867.067-1.437.633-2.17,1.437a7.816,7.816,0,0,0-1.3,1.738.331.331,0,0,1-.27.1h0Zm4.375-3.809a23.58,23.58,0,0,1-2.74-3.275,25.4,25.4,0,0,1-2.071-3.576c-.234.166-.5.332-.737.5a10.093,10.093,0,0,0-1.469,1.469l2.7,7.785a8.51,8.51,0,0,1,1.1-1.37,3.971,3.971,0,0,1,2.507-1.572h.368a1.072,1.072,0,0,1,.332.031Z" transform="translate(-147.971 -73.65)" fill="#ebe9f5"/>
          </g>
          <g id="Grupo_116434" data-name="Grupo 116434" transform="translate(30.775 53.661)">
            <path id="Trazado_171325" data-name="Trazado 171325" d="M186.118,137.936c1.936.166,3.841.3,5.781.467a17.653,17.653,0,0,0,.934-1.9c.9-2.3.9-3.576,2-4.074a2.156,2.156,0,0,1,2.071.234c.265.2.436.5.669,2.17.135.97.265,1.738.332,2.942,1.069,0,2.673.067,5.346.1,1.738.031,2.839,0,3.576.8a2.542,2.542,0,0,1,.669,2.206,2.461,2.461,0,0,1-.768,1.3,1.678,1.678,0,0,1-.467.332,1.852,1.852,0,0,1,.467.166,2.284,2.284,0,0,1,1.37,1.7,2.331,2.331,0,0,1-1.1,2.34,1.831,1.831,0,0,1-.436.234,1.41,1.41,0,0,1,.467.3,1.919,1.919,0,0,1,.737,1.671,2.024,2.024,0,0,1-1.339,1.7,1.726,1.726,0,0,1-.436.1,1.525,1.525,0,0,1,.3.4,1.9,1.9,0,0,1,.368,1.271,2.186,2.186,0,0,1-.7,1.339c-.669.669-2.071,1.4-5.247,1.271a19.892,19.892,0,0,1-5.377-.7,14.637,14.637,0,0,1-3.841-.535c-2.507-.7-5.678-1.572-9.42-2.641,1.37-4.375,2.7-8.786,4.043-13.2Z" transform="translate(-181.842 -132.028)" fill="#f8ae8e"/>
            <path id="Trazado_171326" data-name="Trazado 171326" d="M200.426,154.985a20.525,20.525,0,0,1-5.413-.7,14.267,14.267,0,0,1-3.841-.535c-.7-.2-1.437-.4-2.206-.6-2.107-.566-4.51-1.235-7.219-2.039a.312.312,0,0,1-.166-.135.455.455,0,0,1-.031-.2l4.043-13.2a.253.253,0,0,1,.265-.2l5.615.467a9.388,9.388,0,0,0,.8-1.7c.265-.7.467-1.271.633-1.806.368-1.235.633-2.039,1.536-2.408a2.414,2.414,0,0,1,2.34.27c.368.3.535.669.768,2.34a26.5,26.5,0,0,1,.3,2.7c.265,0,.6,0,.97.031,1,.031,2.34.031,4.142.067h.135c1.7,0,2.839.031,3.643.867a2.7,2.7,0,0,1-.1,3.908l-.067.067h0a2.535,2.535,0,0,1,.3,4.546h-.031l.067.067a2.224,2.224,0,0,1,.836,1.9,2.265,2.265,0,0,1-1.536,1.936h-.031c.031.031.031.067.067.1a2.138,2.138,0,0,1-.368,2.974c-.9.9-2.507,1.37-4.78,1.37a4.3,4.3,0,0,0-.669-.1ZM194.644,132.4c-.669.265-.867.934-1.235,2.071-.166.535-.368,1.136-.633,1.837a13.236,13.236,0,0,1-.934,1.936.257.257,0,0,1-.234.135l-5.579-.436L182.152,150.7c2.605.768,4.91,1.4,6.949,1.936.8.234,1.536.436,2.206.6a15.133,15.133,0,0,0,3.773.5h.067a19.21,19.21,0,0,0,5.278.7c2.471.1,4.178-.3,5.045-1.2a1.849,1.849,0,0,0,.633-1.168,1.772,1.772,0,0,0-.332-1.1,1.893,1.893,0,0,0-.3-.368.26.26,0,0,1-.067-.265.21.21,0,0,1,.2-.166c.135-.031.265-.067.368-.1a1.672,1.672,0,0,0,1.168-1.469,1.769,1.769,0,0,0-.633-1.437,2.637,2.637,0,0,0-.4-.234.264.264,0,0,1-.166-.265.252.252,0,0,1,.166-.234,2.2,2.2,0,0,0,1.4-2.273,2.058,2.058,0,0,0-1.235-1.5,1.709,1.709,0,0,0-.436-.135.25.25,0,0,1-.2-.234.241.241,0,0,1,.135-.265,2.54,2.54,0,0,0,.436-.3,2.594,2.594,0,0,0,.7-1.168,2.229,2.229,0,0,0-.6-1.972c-.669-.7-1.635-.7-3.275-.7H202.9c-1.806-.031-3.14-.031-4.142-.067-.467,0-.867-.031-1.2-.031a.26.26,0,0,1-.265-.265c-.067-1.2-.2-2-.332-2.906-.234-1.635-.4-1.837-.566-2a1.724,1.724,0,0,0-1.038-.332,1.691,1.691,0,0,0-.7.135Z" transform="translate(-181.55 -131.738)" fill="#f8ae8e"/>
          </g>
          <path id="Trazado_171327" data-name="Trazado 171327" d="M154.2,109.256a25.637,25.637,0,0,1-2.439,10.323,26.753,26.753,0,0,1-3.005,4.91c-14.033-.7-25.991-6.383-29.935-15.269-1.635-3.742-2.17-8.755-2.408-10.893-.566-5.413,1-11.024,3.841-14.568,1.168-1.469,4.276-2.471,5.314-2.839.368,5.678,1.9,15.1,2.408,19.343a5.359,5.359,0,0,1,.067.669v.1q13.133,4.11,26.162,8.22Z" transform="translate(-114.833 -50.086)" fill="url(#linear-gradient-5)"/>
          <path id="Trazado_171328" data-name="Trazado 171328" d="M224.987,154.935a.265.265,0,0,0,0-.53l-8.652-.135h0a.265.265,0,0,0,0,.53l8.652.135Z" transform="translate(-169.788 -90.487)" fill="#e7a182"/>
          <path id="Trazado_171329" data-name="Trazado 171329" d="M225.326,164.43a.265.265,0,0,0,0-.53l-8.921-.4a.265.265,0,1,0,0,.53l8.921.4Z" transform="translate(-169.827 -95.571)" fill="#e7a182"/>
          <path id="Trazado_171330" data-name="Trazado 171330" d="M224.515,172.7a.25.25,0,1,0,.031-.5l-8.521-.535a.25.25,0,1,0-.031.5l8.521.535Z" transform="translate(-169.618 -100.071)" fill="#e7a182"/>
          <path id="Trazado_171331" data-name="Trazado 171331" d="M136.317,127.063a.241.241,0,0,0,.2-.1s1.168-1.572,2.408-1.469a.321.321,0,0,0,.3-.234.317.317,0,0,0-.234-.3c-1.536-.135-2.808,1.6-2.875,1.671a.238.238,0,0,0,.067.368.256.256,0,0,0,.135.067Z" transform="translate(-125.72 -74.34)" fill="#6b8aff"/>
          <path id="Trazado_171332" data-name="Trazado 171332" d="M225.932,108.217a.209.209,0,0,0,.234.067.317.317,0,0,0,.234-.3,6.075,6.075,0,0,0-2.237-3.477.268.268,0,0,0-.368.031.264.264,0,0,0,.031.368,5.768,5.768,0,0,1,2.071,3.14.151.151,0,0,0,.031.166Z" transform="translate(-174.008 -63.044)" fill="#6b8aff"/>
          <path id="Trazado_171333" data-name="Trazado 171333" d="M164.45,93.823c0-1.572,1.168-3.409,2.641-3.374,1.437.031,2.538,1.837,2.538,3.374s-1.168,3.409-2.641,3.374S164.45,95.359,164.45,93.823Z" transform="translate(-141.356 -55.335)" fill="#75b52f"/>
        </g>
        <g id="Grupo_116450" data-name="Grupo 116450" transform="translate(124.693 13.492)">
          <g id="Grupo_116436" data-name="Grupo 116436" transform="translate(52.316 16.044)">
            <rect id="Rectángulo_42839" data-name="Rectángulo 42839" width="13.13" height="6.716" transform="matrix(0.043, -0.999, 0.999, 0.043, 0.318, 13.455)" fill="#e7a182"/>
            <path id="Trazado_171334" data-name="Trazado 171334" d="M401.057,79.783l-6.716-.3a.3.3,0,0,1-.3-.3l.566-13.13a.3.3,0,0,1,.3-.3l6.716.3a.3.3,0,0,1,.3.3l-.566,13.13C401.358,79.684,401.223,79.815,401.057,79.783Zm-6.383-.867,6.114.27.535-12.5-6.114-.27Z" transform="translate(-394.04 -65.75)" fill="#e7a182"/>
          </g>
          <g id="Grupo_116438" data-name="Grupo 116438" transform="translate(46.085 5.882)">
            <path id="Trazado_171335" data-name="Trazado 171335" d="M384.227,43.82a21.863,21.863,0,0,0-1.635,4.712,12.3,12.3,0,0,1-.467,1.437c-.633,1.6-1.4,2.071-1.2,2.574.1.234.436.467,1.339.535a13.192,13.192,0,0,0,.265,1.469,2.293,2.293,0,0,0,.135.467c.031.166.1.3.135.467.067.166.135.332.2.5.031.067.067.135.1.2,1.235,2.772,2.942,3.207,2.942,3.207,1.671.436,3.275-1.038,4.577-2.237a5.6,5.6,0,0,0,1.972-2.7c.3-1.136-.135-1.6.4-2.372a4.725,4.725,0,0,0,1.271-1.873c0-.067.031-.135.031-.2.234-2.507-6.415-4.977-10.058-6.181Z" transform="translate(-380.565 -43.509)" fill="#f8ae8e"/>
            <path id="Trazado_171336" data-name="Trazado 171336" d="M386.134,59.305a1.651,1.651,0,0,1-.566-.1c-.067-.031-1.873-.535-3.14-3.374l-.1-.2c-.067-.166-.135-.332-.2-.5s-.1-.3-.166-.467c-.031-.166-.1-.3-.135-.467-.1-.4-.166-.8-.234-1.235-.768-.1-1.2-.3-1.37-.7s.067-.768.368-1.235a9.134,9.134,0,0,0,.835-1.572,6.916,6.916,0,0,0,.368-1.1,1.561,1.561,0,0,1,.1-.3,20.51,20.51,0,0,1,1.671-4.744.331.331,0,0,1,.368-.166c6.981,2.3,10.426,4.51,10.291,6.482,0,.067-.031.166-.031.234a3.786,3.786,0,0,1-.934,1.536c-.135.166-.265.3-.368.436a1.5,1.5,0,0,0-.234,1,4.779,4.779,0,0,1-.135,1.271,5.845,5.845,0,0,1-2.039,2.839c-1.235,1.1-2.74,2.439-4.344,2.372ZM384,43.8a19.72,19.72,0,0,0-1.5,4.411v.031a2.082,2.082,0,0,0-.067.27,8.18,8.18,0,0,1-.368,1.168,10.564,10.564,0,0,1-.867,1.671c-.234.368-.368.566-.3.7s.368.3,1.1.332a.286.286,0,0,1,.265.27c.067.5.135.97.234,1.4a2.027,2.027,0,0,0,.135.436c.031.135.1.3.135.436.067.166.1.332.166.467l.1.2c1.137,2.574,2.74,3.041,2.74,3.041,1.5.4,3.041-1.038,4.308-2.17a5.4,5.4,0,0,0,1.873-2.538,3.393,3.393,0,0,0,.1-1.1,2.034,2.034,0,0,1,.368-1.37,6.09,6.09,0,0,1,.436-.5,2.9,2.9,0,0,0,.8-1.271.274.274,0,0,1,.031-.135c.067-1.572-3.441-3.675-9.689-5.745Z" transform="translate(-380.167 -43.129)" fill="#f8ae8e"/>
            <g id="Grupo_116437" data-name="Grupo 116437" transform="translate(2.008 3.567)">
              <path id="Trazado_171337" data-name="Trazado 171337" d="M385.586,69.987h-.031a.26.26,0,0,1-.265-.166l-.6-1.136a.249.249,0,0,1,0-.3.3.3,0,0,1,.265-.166,9.445,9.445,0,0,0,1.936-.6h0c.031,0,.067-.031.1-.031h.031c.135-.031.234-.067.368.067a.333.333,0,0,1,.1.332c0,.067-.067.1-.166.166-.166.4-.737,1.837-1.738,1.837Zm-.135-1.235.265.535a1.63,1.63,0,0,0,.669-.8c-.3.1-.669.2-.934.265Z" transform="translate(-384.638 -60.149)" fill="#292466"/>
              <path id="Trazado_171338" data-name="Trazado 171338" d="M388,56.216c-.031.633-.3,1.136-.633,1.1-.3,0-.534-.535-.534-1.168.031-.633.3-1.136.633-1.1C387.764,55.079,388,55.614,388,56.216Z" transform="translate(-385.845 -53.259)" fill="#292466"/>
              <path id="Trazado_171339" data-name="Trazado 171339" d="M388.025,51.253a.964.964,0,0,1,1.1-.031,3.7,3.7,0,0,1,1.1,1.5c.1.3-.166.368-.436.1a4.151,4.151,0,0,0-1.069-.8c-.332-.1-.836-.135-.867-.332a.54.54,0,0,1,.166-.436Z" transform="translate(-386.407 -51.069)" fill="#292466"/>
            </g>
          </g>
          <path id="Trazado_171340" data-name="Trazado 171340" d="M380.909,38.8c1.536.768,3.508-.436,3.841-.633l.332.332a11.959,11.959,0,0,0,2.538,1.972,5.735,5.735,0,0,0,1.671.535c.436.768.867,1.536,1.271,2.3,0,.031-1.038,6.949-1.038,6.949,3.477,4.178,9.321,2.538,11.428,1.536,3.239-1.7,3.239-5.678,3.239-5.678s-3.109.97-3.944-1.271,1.9-4.344.4-8.953a8.182,8.182,0,0,0-3.374-4.142,9.358,9.358,0,0,0-3.877-1.536,7.759,7.759,0,0,0-3.306,0,31.659,31.659,0,0,1-4.946,1.069,16.55,16.55,0,0,1-2.138-.031c-1.136-.1-1.671-.27-2.3.135-1.837,1.2-2.138,6.248.2,7.416Z" transform="translate(-333.57 -30.034)" fill="#292466"/>
          <path id="Trazado_171341" data-name="Trazado 171341" d="M392.18,31.5c2.071,3.809,5.979,13.031,5.979,13.031.633-4.043-.436-10.925-1-14.1A32.237,32.237,0,0,1,392.18,31.5Z" transform="translate(-340.699 -30.252)" fill="none"/>
          <path id="Trazado_171342" data-name="Trazado 171342" d="M398.95,56.122c.3-1.9,1.536-3.005,2.471-2.875a2.007,2.007,0,0,1,1.37,1.6,2.891,2.891,0,0,1-.867,2.372,5.8,5.8,0,0,1-1.9,1.635c-.368-.9-.7-1.806-1.069-2.74Z" transform="translate(-344.428 -42.814)" fill="#f8ae8e"/>
          <path id="Trazado_171343" data-name="Trazado 171343" d="M399.468,63.944a.92.92,0,1,0,.97-.867A.931.931,0,0,0,399.468,63.944Z" transform="translate(-344.712 -48.233)" fill="#d1e2dc"/>
          <path id="Trazado_171344" data-name="Trazado 171344" d="M399.468,63.944a.92.92,0,1,0,.97-.867A.931.931,0,0,0,399.468,63.944Z" transform="translate(-344.712 -48.233)" fill="#75b52f"/>
          <g id="Grupo_116439" data-name="Grupo 116439" transform="translate(69.443 64.217)">
            <path id="Trazado_171345" data-name="Trazado 171345" d="M432.623,178.466c.234-2.439,11.158-4.946,11.158-4.946l2.605,4.946h.031a9.073,9.073,0,0,1,2.34,1.235,12.4,12.4,0,0,1,4.011,4.878,21.128,21.128,0,0,0,3.674,3.176,4.531,4.531,0,0,1,1.469,1.5,1.9,1.9,0,0,1,.265.934,1.474,1.474,0,0,1-.3,1.038,1.738,1.738,0,0,1-1.37.566,1.682,1.682,0,0,1-.768-.265,5.534,5.534,0,0,1,.436.5,2.259,2.259,0,0,1,.332,2.039,1.869,1.869,0,0,1-.97,1.069,2.582,2.582,0,0,1-2.138-.166,5.861,5.861,0,0,1-.737-.467,3.533,3.533,0,0,1,.368.669,1.85,1.85,0,0,1,0,1.339c-.467.9-1.9.934-2.641.8-1.069-.166-1.7-.8-3.342-2.471l-3.207-3.207c.1.135,4.712,5.548,3.239,7.115s-5.647-2.974-8.521-6.617a9.125,9.125,0,0,1-1.339-2.3,4.145,4.145,0,0,1-1.438,1.77,2.586,2.586,0,0,1-1.7.436c-.7-.3-1-2.372.9-10.224l-2.372-3.342Z" transform="translate(-432.411 -173.283)" fill="#f8ae8e"/>
            <path id="Trazado_171346" data-name="Trazado 171346" d="M446.112,199.126c-1.572-.067-4.245-2.439-7.884-7.017a9.011,9.011,0,0,1-1.168-1.9,3.6,3.6,0,0,1-1.271,1.4c-.067.031-1.235.737-1.936.436-.768-.332-1.339-1.806.7-10.39l-2.34-3.306c-.031-.067-.067-.1-.031-.166.234-2.538,10.224-4.91,11.36-5.179a.292.292,0,0,1,.3.135l2.538,4.842a9.979,9.979,0,0,1,2.34,1.271,12.332,12.332,0,0,1,4.074,4.946A21.277,21.277,0,0,0,456.4,187.3a4.267,4.267,0,0,1,1.572,1.6,2.147,2.147,0,0,1,.3,1.069,1.83,1.83,0,0,1-.332,1.2,1.907,1.907,0,0,1-1.572.669,2.492,2.492,0,0,1,.265,2.107,2.331,2.331,0,0,1-1.1,1.235,2.677,2.677,0,0,1-2.34-.166,1.827,1.827,0,0,1-.067,1.4c-.5,1.038-2.071,1.069-2.906.934-1.137-.2-1.806-.867-3.409-2.471l-.067-.067c-.166-.166-.4-.436-.7-.7,1.1,1.7,2,3.674,1.137,4.609a1.287,1.287,0,0,1-.97.4h-.1Zm-2.237-7.884,3.207,3.207.067.067c1.572,1.572,2.17,2.17,3.14,2.34.633.1,1.972.1,2.34-.669a1.348,1.348,0,0,0,0-1.136,2.872,2.872,0,0,0-.332-.6.252.252,0,0,1,.031-.332.255.255,0,0,1,.332-.031,4.258,4.258,0,0,0,.7.436,2.313,2.313,0,0,0,1.9.166,1.877,1.877,0,0,0,.836-.934,2.121,2.121,0,0,0-.3-1.806,1.771,1.771,0,0,0-.4-.467.256.256,0,0,1-.031-.332.258.258,0,0,1,.332-.067,1.094,1.094,0,0,0,.633.2,1.409,1.409,0,0,0,1.137-.467,1.26,1.26,0,0,0,.234-.867,2.1,2.1,0,0,0-.234-.835,3.664,3.664,0,0,0-1.4-1.4,22.184,22.184,0,0,1-3.742-3.207.094.094,0,0,1-.031-.067,11.586,11.586,0,0,0-3.944-4.78,9.3,9.3,0,0,0-2.237-1.2h-.031a.311.311,0,0,1-.166-.135l-2.507-4.78c-4.11.97-10.39,2.974-10.759,4.577l2.372,3.306c.031.067.067.135.031.2-2.039,8.485-1.4,9.757-1.038,9.923.265.135.97-.135,1.469-.4a3.691,3.691,0,0,0,1.339-1.671.225.225,0,0,1,.234-.135.252.252,0,0,1,.234.166,9.143,9.143,0,0,0,1.3,2.237c3.477,4.344,6.114,6.783,7.515,6.814a.833.833,0,0,0,.633-.234c.97-1-1.437-4.609-3.275-6.783a.268.268,0,0,1,.031-.368.258.258,0,0,1,.166-.067c.067.067.135.067.2.135Z" transform="translate(-432.167 -172.992)" fill="#f8ae8e"/>
          </g>
          <path id="Trazado_171347" data-name="Trazado 171347" d="M422.3,107.572v.135a67.685,67.685,0,0,0,.467,6.783c0,.1.031.234.031.332v.166c.1,1.1.234,2.3.4,3.54.031.2.031.4.067.6.2,1.738.467,3.576.768,5.512,0,.1.031.166.031.265.1.633.2,1.235.3,1.9.031.135.031.3.067.436.234,1.469.5,3.041.8,4.609.031.1.031.2.067.3.135.737.265,1.437.436,2.17.1.5.2,1,.3,1.536.031.1.031.2.067.332,0,.067.031.135.031.2s.031.166.031.234c.031.1.031.166.067.265.135.669.3,1.37.436,2.071.135.6.265,1.235.4,1.873.166.669.3,1.37.467,2.039.031.166.067.3.1.467v.031a12.276,12.276,0,0,0,4.375.1c.067,0,.1-.031.166-.031.135-.031.265-.031.4-.067a13.614,13.614,0,0,0,2.3-.737,12.361,12.361,0,0,0,5.947-5.813c-.067-.234-.166-.436-.233-.669-.067-.135-.1-.265-.166-.436-.1-.265-.2-.535-.3-.768-.031-.1-.067-.2-.1-.3-.166-.467-.332-.9-.5-1.339-.3-.768-.6-1.536-.9-2.273-.234-.6-.467-1.168-.737-1.77-.067-.166-.135-.3-.2-.467,0-.031-.031-.067-.031-.1l-.1-.234c-.031-.1-.1-.2-.135-.3-.332-.768-.669-1.536-.97-2.273-.566-1.3-1.137-2.538-1.7-3.742-.031-.067-.067-.166-.1-.234-.2-.436-.4-.867-.6-1.271-.067-.135-.135-.265-.2-.4-.737-1.5-1.437-2.906-2.138-4.245-.031-.1-.1-.166-.135-.27-.535-1.069-1.069-2.039-1.6-2.974-.031-.1-.1-.166-.135-.27-.1-.2-.234-.4-.332-.6-.6-1.069-1.168-2.039-1.671-2.906-.031-.067-.1-.166-.135-.234a26.975,26.975,0,0,0-2.471-3.607c-.031-.031-.067-.067-.067-.1a4.862,4.862,0,0,0-.836-.836l-.031-.031a1.6,1.6,0,0,0-1.069-.332.946.946,0,0,0-.6.7c-.031.1-.067.2-.1.332a11.871,11.871,0,0,0-.234,2.673Z" transform="translate(-357.283 -70.676)" fill="#bcbf34"/>
          <g id="Grupo_116441" data-name="Grupo 116441" transform="translate(49.482 164.089)">
            <g id="Grupo_116440" data-name="Grupo 116440" transform="translate(0.027)">
              <path id="Trazado_171348" data-name="Trazado 171348" d="M418.161,416.531s-2.605.2-6.15.467c-1.9.135-4.043.3-6.212.436-5.849.4-8.989.6-12.731.633h-.6c-2,0-3.643-.031-4.645-.031l-.031-1.6a62.383,62.383,0,0,0,8.62-3.409c5.143-2.471,8.387-4.11,9.087-7.183a9.311,9.311,0,0,0,0-2.538v-.031a78.96,78.96,0,0,0-.867-7.951,4.691,4.691,0,0,0,8.319,2.808c.265,1.137.467,2.071.566,2.7.234,1.069.368,1.873.5,2.605.031.2.067.368.1.566a18.993,18.993,0,0,0,.566,2.237c.234.737.332,1.1.5,1.536.467,1.136,1,1.837,1.572,3.207.067.135.1.265.166.4,0,0,.2.5.368,1.038a26.116,26.116,0,0,1,.867,4.11Z" transform="translate(-387.79 -395.32)" fill="#f8ae8e"/>
              <path id="Trazado_171349" data-name="Trazado 171349" d="M393.407,420.716h.031c3.773-.067,6.981-.265,12.731-.633,1.972-.135,4.142-.265,6.213-.436,2.875-.2,5.112-.368,5.88-.436a32.739,32.739,0,0,0-.8-3.841c-.171-.535-.368-1-.368-1.038-.031-.1-.1-.234-.135-.332l-.031-.031c-.3-.7-.566-1.2-.836-1.7a12.7,12.7,0,0,1-.737-1.5,15.517,15.517,0,0,1-.5-1.572,19.8,19.8,0,0,1-.566-2.237,1.772,1.772,0,0,1-.067-.4l-.166-.867c-.1-.535-.234-1.168-.368-1.9-.135-.7-.3-1.469-.467-2.237a5.126,5.126,0,0,1-3.908,1.437,5.027,5.027,0,0,1-3.643-2.372c.234,1.837.4,3.675.535,5.579a8.131,8.131,0,0,1,0,2.605c-.737,3.275-4.308,4.977-9.222,7.349a61.829,61.829,0,0,1-8.454,3.342l.031,1.168c.737.031,2.3.031,4.375.031a2.186,2.186,0,0,0,.467.031Z" transform="translate(-388.192 -398.234)" fill="#f8ae8e"/>
            </g>
            <path id="Trazado_171350" data-name="Trazado 171350" d="M387.8,435.53l.031,1.635c1,.031,2.605.067,4.645.031h.6c3.71-.067,7.115-.3,13.031-.7,2.408-.166,4.78-.332,6.85-.5,2.138-.166,3.975-.3,5.211-.4a19.45,19.45,0,0,0-1.2-5.143c-.067-.135-.1-.265-.166-.4a60.066,60.066,0,0,1-15.1,2.507,21.422,21.422,0,0,1-5.278-.467C394.251,433.091,391.308,434.259,387.8,435.53Z" transform="translate(-387.769 -414.449)" fill="#292466"/>
            <path id="Trazado_171351" data-name="Trazado 171351" d="M392.038,441.789h.6c3.908-.067,7.151-.265,13.2-.633,2.237-.135,4.479-.3,6.415-.436,2.641-.166,4.744-.332,5.745-.4.031.332.1.633.135,1v.067s-2.605.2-6.15.467c-1.873.135-4.043.3-6.213.436-5.849.4-8.989.6-12.762.633h-.6c-2,0-3.643,0-4.645-.031l-.031-1.069c1.069-.031,2.538-.031,4.308-.031Z" transform="translate(-387.73 -420.106)" fill="#292466"/>
          </g>
          <g id="Grupo_116443" data-name="Grupo 116443" transform="translate(17.835 164.327)">
            <g id="Grupo_116442" data-name="Grupo 116442" transform="translate(0.036)">
              <path id="Trazado_171352" data-name="Trazado 171352" d="M347.731,417.192s-2.605.166-6.15.368c-1.9.135-4.043.234-6.213.368-5.849.3-8.989.467-12.762.467H322c-2-.031-3.643-.067-4.645-.1v-1.6a62.156,62.156,0,0,0,8.652-3.275c5.179-2.408,8.454-4.011,9.186-7.048a9.857,9.857,0,0,0,.031-2.538V403.8c-.166-3.374-.5-6.114-.768-7.951a5.059,5.059,0,0,0,4.245,4.546,5.132,5.132,0,0,0,4.074-1.635c.234,1.137.436,2.071.535,2.7.2,1.069.332,1.873.467,2.605.031.2.067.368.1.566.135.7.3,1.4.535,2.237a13.2,13.2,0,0,0,.467,1.536c.467,1.137.97,1.837,1.536,3.239a1.887,1.887,0,0,0,.166.4s.2.5.368,1.038a35.407,35.407,0,0,1,.768,4.11Z" transform="translate(-317.36 -395.85)" fill="#f8ae8e"/>
              <path id="Trazado_171353" data-name="Trazado 171353" d="M346.974,415.9a8.066,8.066,0,0,0-.368-1.038c-.031-.1-.1-.234-.135-.332l-.031-.031c-.3-.7-.566-1.2-.8-1.7a13.6,13.6,0,0,1-.737-1.536,15.5,15.5,0,0,1-.5-1.572c-.2-.737-.368-1.4-.535-2.273-.031-.135-.031-.265-.067-.436l-.166-.836c-.1-.566-.2-1.168-.332-1.9s-.265-1.469-.436-2.237a5.124,5.124,0,0,1-3.944,1.37,5.059,5.059,0,0,1-3.643-2.408c.2,1.837.368,3.71.436,5.579a8.935,8.935,0,0,1-.031,2.605c-.8,3.239-4.375,4.91-9.321,7.25a65.486,65.486,0,0,1-8.485,3.239V420.8c.737.031,2.3.067,4.375.1h.6c3.773,0,6.981-.166,12.73-.467,1.972-.1,4.142-.234,6.212-.368,2.875-.166,5.112-.3,5.88-.368a27.705,27.705,0,0,0-.7-3.809Z" transform="translate(-317.641 -398.664)" fill="#f8ae8e"/>
            </g>
            <path id="Trazado_171354" data-name="Trazado 171354" d="M317.36,435.876v1.635c.97.031,2.605.1,4.645.1h.6c3.71-.031,7.115-.2,13.031-.535,2.408-.135,4.78-.265,6.882-.4,2.138-.135,4.011-.234,5.211-.332a19.49,19.49,0,0,0-1.136-5.143,1.885,1.885,0,0,0-.166-.4,60.827,60.827,0,0,1-15.134,2.3,20.83,20.83,0,0,1-5.278-.535c-2.17.934-5.112,2.107-8.652,3.306Z" transform="translate(-317.324 -415.1)" fill="#292466"/>
            <path id="Trazado_171355" data-name="Trazado 171355" d="M321.592,442.158h.6c3.908,0,7.151-.166,13.2-.467,2.237-.1,4.479-.234,6.415-.368,2.641-.135,4.744-.265,5.745-.332.031.332.067.633.1,1v.067s-2.605.166-6.15.368c-1.9.1-4.043.234-6.212.368-5.849.3-8.989.467-12.762.467h-.6c-2,0-3.643-.067-4.645-.1V442.1c1.069,0,2.538.031,4.308.067Z" transform="translate(-317.28 -420.713)" fill="#292466"/>
          </g>
          <path id="Trazado_171356" data-name="Trazado 171356" d="M407.895,179.55c.031,5.211.031,10.458,0,15.8-.1,12.093-.467,23.92-1,35.379q2.958,26.865,5.88,53.689l-15,1.5a409.361,409.361,0,0,1-10.255-53.554c-2.74-22.451-4.479-52.755-4.479-52.755h0l24.859-.067Z" transform="translate(-335.665 -112.387)" fill="#1b468c"/>
          <g id="Grupo_116444" data-name="Grupo 116444" transform="translate(23.899 67.433)">
            <path id="Trazado_171357" data-name="Trazado 171357" d="M349.843,180.15c-2.7,5.444-6.549,13.53-10.723,23.556-4.676,11.324-7.048,17.074-7.951,22.954-.566,3.643-1.038,8.989,2.507,30.636,1.168,7.151,2.906,16.841,5.413,28.367q6.617.2,13.229.368-.95-27.667-1.9-55.329c7.318-10.058,13.229-17.573,17.407-22.685,2.7-3.306,5.444-6.617,7.551-11.859a38.554,38.554,0,0,0,2.74-15.938l-28.264-.067Z" transform="translate(-330.778 -180.15)" fill="url(#linear-gradient-6)"/>
            <path id="Trazado_171358" data-name="Trazado 171358" d="M358.183,287.262a.354.354,0,0,1-.332-.3c-.265-2.237-6.482-54.96-5.745-60.706.737-5.781,21.818-42.463,22.721-44a.344.344,0,0,1,.6.332c-.234.368-21.885,38.12-22.618,43.766s5.678,59.969,5.745,60.54a.335.335,0,0,1-.3.368h-.067Z" transform="translate(-342.492 -181.218)" fill="#292466"/>
          </g>
          <g id="Grupo_116445" data-name="Grupo 116445" transform="translate(42.964 26.397)">
            <path id="Trazado_171359" data-name="Trazado 171359" d="M373.22,129.9c1.572.3,3.275.535,5.081.7.2.031.368.031.566.067,2.206.2,4.546.332,6.882.368h.4a89.405,89.405,0,0,0,16.54-1.137,61.575,61.575,0,0,0,.166-8.387v-.2c0-.3-.031-.6-.031-.9a2.2,2.2,0,0,0-.031-.436,84.132,84.132,0,0,0-1.2-10.691c-.031-.135-.031-.265-.067-.4a50.771,50.771,0,0,0-2.7-9.591,2.526,2.526,0,0,0-.1-.27,31.445,31.445,0,0,0-1.635-3.306c-.031-.067-.1-.166-.135-.234a15.218,15.218,0,0,0-4.411-4.878c-.032-.031-.067-.067-.1-.067A10.455,10.455,0,0,0,386.79,88.8c-2.772-.031-5.211,1.572-7.219,4.043-.067.1-.166.2-.234.3a29.633,29.633,0,0,0-4.744,9.923c-.1.368-.2.737-.3,1.1q-.3,1.152-.5,2.3c-.1,1.3-.166,2.974-.2,4.78v.535c-.067,2.138-.1,4.51-.135,6.814v.5c-.135,4.609-.166,8.989-.234,10.79Z" transform="translate(-373.22 -88.799)" fill="#dbe636"/>
            <path id="Trazado_171360" data-name="Trazado 171360" d="M383.194,115.659c-1.235.2-5.247,1.3-6.181,2.138a.54.54,0,0,0-.135.135,15.054,15.054,0,0,0-1.837,2.138c-.1.332-.2.7-.3,1.038-.1.368-.2.737-.3,1.1q-.3,1.152-.5,2.3c-.1,1.3-.166,2.974-.2,4.78v.535c-.067,2.138-.1,4.51-.135,6.814v.5c-.031,2.772-.067,5.444-.1,7.551a9.517,9.517,0,0,0,1.235-.5,10.842,10.842,0,0,0,4.609-4.276c.1-.166.234-.368.332-.566a26.714,26.714,0,0,0,3.374-9.923c.2-1.437,1.9-14.065.135-13.764Z" transform="translate(-373.374 -103.593)" fill="#dbe636"/>
          </g>
          <path id="Trazado_171361" data-name="Trazado 171361" d="M394.038,87.6s-.8-1.069-1.038,2.74l2.538.5-1.5-3.239Z" transform="translate(-341.151 -61.665)" fill="#292466"/>
          <path id="Trazado_171362" data-name="Trazado 171362" d="M405.8,88.808a9.922,9.922,0,0,0-1.3-1.873c-1.37-1.77-2.641-1.3-2.74-1.271-.7.4-2.74.7-7.717.7a9.816,9.816,0,0,0,.3,2c.2.8-.1,2.875.135,3.409.934.031,3.841-1.5,5.849-1.9A43.309,43.309,0,0,0,405.8,88.8Z" transform="translate(-341.724 -60.631)" fill="#fff"/>
          <path id="Trazado_171363" data-name="Trazado 171363" d="M362.043,147.784h0a.031.031,0,0,1,.031.031l.031.031v-.067h-.067Z" transform="translate(-324.092 -94.888)" fill="#fff"/>
          <g id="Grupo_116448" data-name="Grupo 116448" transform="translate(0 7.746)">
            <g id="Grupo_116446" data-name="Grupo 116446" transform="translate(14.772 5.434)">
              <path id="Trazado_171364" data-name="Trazado 171364" d="M315.918,67.956s-1.4-7.583-3.342-7.951-.9,4.308-1.437,5.678C310.635,67.053,315.918,67.956,315.918,67.956Z" transform="translate(-310.816 -59.71)" fill="#f8ae8e"/>
              <path id="Trazado_171365" data-name="Trazado 171365" d="M310.586,65.984a.817.817,0,0,1-.067-.737,7.692,7.692,0,0,0,.166-2.138c0-1.437-.031-2.942.669-3.508a1.1,1.1,0,0,1,.934-.2c2.071.4,3.441,7.385,3.576,8.185a.209.209,0,0,1-.067.234.224.224,0,0,1-.234.067,15.677,15.677,0,0,1-4.245-1.3,1.982,1.982,0,0,1-.737-.6Zm1.6-6.046a.447.447,0,0,0-.467.1c-.467.4-.467,1.873-.467,3.073a7.625,7.625,0,0,1-.2,2.34.215.215,0,0,0,.031.234c.368.669,2.605,1.271,4.142,1.572-.566-2.839-1.837-7.084-3.041-7.318Z" transform="translate(-310.461 -59.374)" fill="#f8ae8e"/>
            </g>
            <g id="Grupo_116447" data-name="Grupo 116447">
              <path id="Trazado_171366" data-name="Trazado 171366" d="M279.56,54.355a2.413,2.413,0,0,0,.1,1.536,4.613,4.613,0,0,0,.768,1.235,2.839,2.839,0,0,0-.4-.135h0a1.5,1.5,0,0,0-1.168.166,1.412,1.412,0,0,0-.5.669c-.368,1.038.566,2.3.9,2.74a51.327,51.327,0,0,0,9.02,9.721c.7.535,1.6,1.2,2.673,1.936.1.067.166.135.265.2.1.031.234.1.332.135.166.067.368.135.566.234.135.067.265.1.436.166.368.135.768.3,1.168.436,5.88-5.647,5.346-9.087,5.081-10.089a5.692,5.692,0,0,0-.737-1.469c-.1-.2-.234-.4-.368-.633h0c-.067-.135-.166-.27-.234-.4h0c-.535-.867-1.2-1.972-2.071-3.342-1.1-1.77-1.671-2.7-2.439-3.773,0,0-4.209-6.015-5.979-5.714a1.412,1.412,0,0,0-.934.535c-.166.234-.6,1.069,2.408,5.813.566.867,1.038,1.6,1.4,2.071-.332-.4-.867-1-1.437-1.77-2.071-2.7-2.7-4.375-4.245-4.744a1.89,1.89,0,0,0-1.271.067,1.969,1.969,0,0,0-1,1.339,2.465,2.465,0,0,0-.1.669,1.991,1.991,0,0,0,.067.535c-.067,0-.135.031-.2.031a2.7,2.7,0,0,0-1.469.8,1.67,1.67,0,0,0-.633,1.038Z" transform="translate(-277.959 -47.657)" fill="#f8ae8e"/>
              <path id="Trazado_171367" data-name="Trazado 171367" d="M290.672,72.25a1.7,1.7,0,0,1-.265-.2c-.934-.633-1.837-1.3-2.7-1.936a53.771,53.771,0,0,1-9.087-9.788c-.332-.467-1.37-1.837-.934-3.005a1.606,1.606,0,0,1,.6-.8,1.727,1.727,0,0,1,1.038-.27,3,3,0,0,1-.332-.669,2.783,2.783,0,0,1-.135-1.7h0a2.715,2.715,0,0,1,.7-1.2,3.021,3.021,0,0,1,1.536-.867c0-.1-.031-.2-.031-.3a2.771,2.771,0,0,1,.1-.737,2.349,2.349,0,0,1,1.137-1.5,2.089,2.089,0,0,1,1.469-.1,4,4,0,0,1,2.206,1.738c-.97-1.972-.836-2.641-.6-2.974a1.546,1.546,0,0,1,1.1-.633c1.873-.332,5.813,5.179,6.248,5.813.737,1.069,1.3,1.972,2.471,3.809.835,1.37,1.536,2.439,2.039,3.306v.031l.234.368v.031c.135.234.265.436.368.633a6.98,6.98,0,0,1,.737,1.536c.436,1.6.332,5.112-5.143,10.39a.326.326,0,0,1-.3.067c-.4-.135-.8-.3-1.168-.436-.1-.031-.234-.1-.332-.135l-.067-.031c-.2-.067-.368-.166-.566-.234l-.332-.135q.067-.031.031-.067h0Zm7.484-9.29a7.343,7.343,0,0,0-.7-1.4c-.1-.2-.234-.4-.368-.633v-.031l-.234-.368v-.031c-.535-.867-1.2-1.936-2.039-3.306-1.137-1.837-1.7-2.7-2.439-3.742-1.6-2.273-4.546-5.781-5.678-5.579a1.08,1.08,0,0,0-.737.4c-.135.2-.332,1.168,2.408,5.512.467.7.9,1.4,1.37,2.071a.238.238,0,0,1-.067.368.305.305,0,0,1-.4-.031c-.5-.566-1-1.168-1.469-1.806-.566-.768-1.038-1.437-1.469-2.039-1-1.469-1.6-2.372-2.641-2.605a1.621,1.621,0,0,0-1.1.067,1.81,1.81,0,0,0-.867,1.168,1.839,1.839,0,0,0-.067.6,2.1,2.1,0,0,0,.067.467.309.309,0,0,1-.031.234c-.031.067-.1.1-.2.135a.385.385,0,0,0-.166.031,2.78,2.78,0,0,0-1.339.7,2.116,2.116,0,0,0-.566.97h0a2.342,2.342,0,0,0,.1,1.339,4.009,4.009,0,0,0,.7,1.136.3.3,0,0,1,.031.368.269.269,0,0,1-.332.1c-.031,0-.166-.067-.368-.135h0a1.181,1.181,0,0,0-.934.135,1.331,1.331,0,0,0-.4.535c-.2.6.067,1.437.836,2.471a52.673,52.673,0,0,0,8.989,9.689c.835.633,1.738,1.3,2.673,1.936.067.067.166.1.234.166l.332.135c.166.067.368.135.566.234l.067.031c.1.031.234.1.332.135.332.135.669.234,1,.368,5.179-5.112,5.278-8.319,4.91-9.788Z" transform="translate(-277.576 -47.278)" fill="#f8ae8e"/>
            </g>
            <path id="Trazado_171368" data-name="Trazado 171368" d="M291.085,64.919a.317.317,0,0,0,.368-.067.274.274,0,0,0-.031-.4c-1.806-1.6-5.314-7.084-5.346-7.115a.291.291,0,1,0-.5.3c.135.234,3.576,5.579,5.444,7.25l.067.031Z" transform="translate(-281.965 -52.745)" fill="#e7a182"/>
            <path id="Trazado_171369" data-name="Trazado 171369" d="M287.617,73.8a.255.255,0,0,0,.332-.031.307.307,0,0,0,0-.4c-.031-.031-4.276-4.443-5.013-5.615a.291.291,0,0,0-.5.3,70.253,70.253,0,0,0,5.112,5.678Z" transform="translate(-280.235 -58.484)" fill="#e7a182"/>
            <path id="Trazado_171370" data-name="Trazado 171370" d="M300.4,90.606c.234.368.467.737.7,1.136a.13.13,0,0,0,.031.067,54.791,54.791,0,0,0,6.581,8.387c.3.3.566.6.836.867l.234.234a63.08,63.08,0,0,0,6.446,6.046c.135.1.234.166.368.265,2.875,2.138,5.849,3.508,9.222,3.374a10.688,10.688,0,0,0,5.912-2.107c.166-.135.368-.234.535-.368a79.247,79.247,0,0,0,8.086-7.349c.535-.535,1.069-1.038,1.572-1.572.1-.1.166-.166.265-.27a26.85,26.85,0,0,0,2.839-3.306c0-.031.031-.031.031-.067,1.069-1.572,1.6-3.109,1.2-4.609a6.24,6.24,0,0,0-7.951-3.675c-.067.031-.1.031-.166.067a22.168,22.168,0,0,0-4.276,2.34,3.09,3.09,0,0,1-.332.2c-.4.27-.836.566-1.271.836a39.6,39.6,0,0,0-5.346,4.276l-.2.2c-.1.1-.166.166-.265.27-.031-.031-.067-.1-.1-.135a1.019,1.019,0,0,1-.166-.27q-5.512-8.423-11.024-16.841a.094.094,0,0,1-.031-.067,6.788,6.788,0,0,0-1.972.669,27.348,27.348,0,0,0-7.048,5.678A63.2,63.2,0,0,0,300.4,90.6Z" transform="translate(-290.147 -64.497)" fill="#bcbf34"/>
          </g>
          <path id="Trazado_171371" data-name="Trazado 171371" d="M448.79,198.6a.125.125,0,0,0,.1-.031c2.974-1.5,4.878-6.981,4.443-9.523a.256.256,0,0,0-.5.1c.4,2.372-1.437,7.619-4.142,8.953a.235.235,0,0,0-.1.332.18.18,0,0,0,.2.166Z" transform="translate(-371.749 -117.502)" fill="#e7a182"/>
          <g id="Grupo_116449" data-name="Grupo 116449" transform="translate(8.138 10.784)">
            <path id="Trazado_171372" data-name="Trazado 171372" d="M296.14,54.158a.24.24,0,0,0-.4.265l3.742,5.88a.235.235,0,0,0,.2.1.22.22,0,0,0,.135-.031.229.229,0,0,0,.067-.332l-3.742-5.88Z" transform="translate(-295.692 -54.042)" fill="#e7a182"/>
            <path id="Trazado_171373" data-name="Trazado 171373" d="M314.273,63.287l-2.3-3.71a.24.24,0,0,0-.4.265l2.3,3.71a.273.273,0,0,0,.2.135.22.22,0,0,0,.135-.031.307.307,0,0,0,.067-.368Z" transform="translate(-304.405 -57.021)" fill="#e7a182"/>
          </g>
        </g>
        <g id="Grupo_116452" data-name="Grupo 116452" transform="translate(212.56 24.918)">
          <path id="Trazado_171374" data-name="Trazado 171374" d="M490.384,56.7c8.553-1.038,16.037,5.615,16.037,14.9a16.717,16.717,0,0,1-6.581,13.3,6.732,6.732,0,0,0-2.7,4.977c-.135,2.138-.3,4.245-.436,6.383-.135,2.107-.3,4.178-.436,6.28a5.2,5.2,0,0,1-5.88,5.013,6.194,6.194,0,0,1-3.809-2.071,6.935,6.935,0,0,1-1.738-4.074l-.4-5.979-.4-6.046a6.9,6.9,0,0,0-2.34-4.744,15.3,15.3,0,0,1-5.247-11.693c.031-8.05,6.015-15.3,13.93-16.239Z" transform="translate(-474.981 -56.088)" fill="#1c478d"/>
          <g id="Grupo_116451" data-name="Grupo 116451">
            <path id="Trazado_171375" data-name="Trazado 171375" d="M473.18,71.717a15.145,15.145,0,0,0,5.179,11.594,6.764,6.764,0,0,1,2.273,4.676l.4,5.979.368,5.947a6.806,6.806,0,0,0,1.7,4.043A6.161,6.161,0,0,0,486.876,106a5.166,5.166,0,0,0,5.781-5.013c.135-2.071.265-4.142.436-6.213.135-2.107.3-4.209.436-6.316a6.784,6.784,0,0,1,2.641-4.946,16.667,16.667,0,0,0,6.482-13.2c0-9.222-7.349-15.772-15.736-14.734-7.816.934-13.732,8.117-13.732,16.135Z" transform="translate(-473.18 -55.469)" fill="#dbe636"/>
            <path id="Trazado_171376" data-name="Trazado 171376" d="M490.522,116.39c.067-4.479-.031-10.556-.436-15.336-2.071-.234-3.944-.934-4.577-2.673a5.69,5.69,0,0,1,.368-4.178,2.828,2.828,0,0,1,1.635-1.7,1.631,1.631,0,0,1,1.469.368c.368.27,1.37,1.038,2,7.183a25.264,25.264,0,0,0,3.14-.1c.6-6.181,1.4-7.619,2-8.117a1,1,0,0,1,.934-.234,5.013,5.013,0,0,1,3.109,3.409,4.592,4.592,0,0,1-.368,4.074c-.6.867-1.5,1.339-3.207,1.671-.2.031-.768.135-1.536.234-.1,1.1-.2,2.372-.3,3.841-.368,5.947-.436,11.859-.436,11.926l-1-.1c0-.067.031-5.647.4-11.428.1-1.572.2-2.942.3-4.142a20.812,20.812,0,0,1-2.942.067c.1,1.271.2,2.772.3,4.479.234,5.512.166,10.66.135,10.893l-1-.135Zm-2.875-22.851c-.332.067-.7.535-1,1.136a4.526,4.526,0,0,0-.3,3.306c.467,1.2,1.9,1.77,3.607,2-.332-3.239-.836-5.647-1.572-6.213a.811.811,0,0,0-.633-.234C487.714,93.508,487.678,93.539,487.647,93.539Zm7.484,6.28c.436-.067.867-.135,1.235-.2,1.806-.368,2.237-.8,2.507-1.2a3.492,3.492,0,0,0,.2-3.041,3.993,3.993,0,0,0-2.372-2.7s-.867.368-1.572,7.151Z" transform="translate(-479.831 -75.351)" fill="#fff"/>
            <path id="Trazado_171377" data-name="Trazado 171377" d="M490.66,141.17l.368,5.948a6.807,6.807,0,0,0,1.7,4.043A6.161,6.161,0,0,0,496.5,153.2a5.166,5.166,0,0,0,5.781-5.013c.135-2.071.265-4.142.436-6.213Z" transform="translate(-482.808 -102.673)" fill="#1c478d"/>
          </g>
        </g>
        <g id="Grupo_116457" data-name="Grupo 116457">
          <g id="Grupo_116453" data-name="Grupo 116453">
            <path id="Trazado_171378" data-name="Trazado 171378" d="M34.538,31.909A5.1,5.1,0,0,0,30.8,30.673L4,32.309c-2.17.135-4.011-1.2-4.011-2.974V4.381c0-1.77,1.81-3.01,4.016-2.776L42.692,5.949a2.708,2.708,0,0,1,2.34,2.673V35.516c0,2.138-2.538,3.54-4.043,2.17L34.543,31.9Z" transform="translate(0.01 -0.868)" fill="#1c478d"/>
            <path id="Trazado_171379" data-name="Trazado 171379" d="M37.111,30.339a5.112,5.112,0,0,0-3.675-1.271L7.108,30.437C4.97,30.536,3.2,29.2,3.2,27.464V2.744C3.2.974,4.97-.23,7.108.035L45.129,4.649a2.755,2.755,0,0,1,2.3,2.673v26.7c0,2.138-2.507,3.508-3.975,2.138l-6.347-5.813Z" transform="translate(-1.758 0.001)" fill="#f75316"/>
          </g>
          <g id="Grupo_116456" data-name="Grupo 116456" transform="translate(14.033 5.974)">
            <g id="Grupo_116454" data-name="Grupo 116454" transform="translate(0 8.329)">
              <path id="Trazado_171380" data-name="Trazado 171380" d="M49.09,34.664l4.577.166A1.978,1.978,0,0,1,53.1,35.9a2.39,2.39,0,0,1-1.635.633h-.031a2.352,2.352,0,0,1-2.34-1.873Z" transform="translate(-41.067 -33.393)" fill="#fff"/>
              <path id="Trazado_171381" data-name="Trazado 171381" d="M50.51,32.644v7.515a1.951,1.951,0,0,1-1.9,1.936l-14.936.332a2.554,2.554,0,0,1-1.806-.7,2.036,2.036,0,0,1-.633-1.437V31.84a22.036,22.036,0,0,0,3.14.7c1.469.234,2.974.436,3.809.5a3.454,3.454,0,0,0,3.374,2.974h.067a3.258,3.258,0,0,0,2.3-.934,3.011,3.011,0,0,0,.9-1.837,30.317,30.317,0,0,0,5.678-.6Z" transform="translate(-31.23 -31.84)" fill="#fff"/>
            </g>
            <g id="Grupo_116455" data-name="Grupo 116455" transform="translate(0.004)">
              <path id="Trazado_171382" data-name="Trazado 171382" d="M49.783,17.75l-1.2-.067-1.536-.1v-.633a1.7,1.7,0,0,0-.031-.4,3.373,3.373,0,0,0-2.974-2.808l-4.811-.436a3.24,3.24,0,0,0-2.408.768,2.847,2.847,0,0,0-.9,1.671,1.735,1.735,0,0,0-.031.4v.6l-2.237-.166-1.437-.1a.982.982,0,0,0-.3.031,1,1,0,0,0-.436.2.649.649,0,0,0-.2.332c0,.067-.031.1-.031.166v3.374c.934.535,6.482,1.271,7.515,1.339l5.314.2a34.621,34.621,0,0,0,6.415-.669V18.487a.762.762,0,0,0-.7-.737Zm-3.773-.234-9.119-.633v-.7a1.193,1.193,0,0,1,.031-.332,1.687,1.687,0,0,1,.566-1,2.116,2.116,0,0,1,1.635-.5l4.811.436a2.284,2.284,0,0,1,2,1.7,2.392,2.392,0,0,1,.067.467v.566h0Z" transform="translate(-31.24 -13.297)" fill="#fff"/>
              <path id="Trazado_171383" data-name="Trazado 171383" d="M52.967,21.913h0l-9.087-.6V21.28Z" transform="translate(-38.202 -17.694)" fill="#fff"/>
            </g>
          </g>
        </g>
      </g>
    </g>
    <rect id="Rectángulo_42840" data-name="Rectángulo 42840" width="227" height="4" transform="translate(695 9850)" fill="#89a259"/>
  </g>
</svg>
