<svg xmlns="http://www.w3.org/2000/svg" width="582.7" height="582.71" viewBox="0 0 582.7 582.71">
  <g id="Grupo_116649" data-name="Grupo 116649" transform="translate(-509 -3892)">
    <g id="Grupo_116633" data-name="Grupo 116633">
      <path id="Trazado_170465" data-name="Trazado 170465" d="M121.35,288.05a39.781,39.781,0,0,0-79.51,0H0C1.75,130.48,129.22,2.54,286.61,0V44.43a4.411,4.411,0,0,0,4.41,4.41c.1,0,.34-.01.45-.02a30.955,30.955,0,0,1-.17,61.91c.02,0-.13-.01-.28-.01a4.411,4.411,0,0,0-4.41,4.41v47.19c-67.88,2.47-122.6,57.69-124.32,125.71H152.03c-.11,0-.23,0-.34.01H121.36Z" transform="translate(509 3892)" fill="#dbe636"/>
      <path id="Trazado_170466" data-name="Trazado 170466" d="M296.07,534.54a4.411,4.411,0,0,0-4.41-4.41c-.11,0-.39.01-.5.02a30.95,30.95,0,0,1,.13-61.9c.03,0,.19.02.36.02a4.411,4.411,0,0,0,4.41-4.41V420.38c66.02-2.4,120.15-54.81,124.13-121.17q.075-1.155.12-2.31h41.62a39.747,39.747,0,0,0,78.12,0h42.59c-.01.71-.03,1.43-.05,2.14-.03,1.02-.07,2.05-.11,3.09l-.08,2.01A291.353,291.353,0,0,1,296.06,582.71V534.57Z" transform="translate(509 3892)" fill="#dbe636"/>
      <path id="Trazado_170467" data-name="Trazado 170467" d="M501,320.43a31.111,31.111,0,0,1-30.82-28.34,4.412,4.412,0,0,0-4.4-4.05H420.42A129.265,129.265,0,0,0,295.43,162.29V119.34a39.781,39.781,0,0,0,0-79.13V0c1.25.02,2.5.04,3.73.08A291.371,291.371,0,0,1,582.7,288.05H536.21a4.412,4.412,0,0,0-4.4,4.05,31.1,31.1,0,0,1-30.82,28.34Z" transform="translate(509 3892)" fill="#3d46c1"/>
      <path id="Trazado_170468" data-name="Trazado 170468" d="M287.25,582.69A291.37,291.37,0,0,1,.02,296.88H46.38a4.421,4.421,0,0,0,4.4-4.79c-.07-.86-.14-1.73-.14-2.61a30.95,30.95,0,1,1,61.9,0c0,.88-.06,1.75-.13,2.61a4.459,4.459,0,0,0,1.15,3.36,4.414,4.414,0,0,0,3.25,1.43h45.58v.22c.07,1.56.17,3.13.3,4.7,5.23,65.12,59.57,116.51,124.55,118.58v39.23a39.782,39.782,0,0,0,0,79.15v43.93Z" transform="translate(509 3892)" fill="#75b52f"/>
    </g>
    <g id="Grupo_108268" data-name="Grupo 108268" transform="translate(925 4054.102)">
      <g id="Grupo_78489" data-name="Grupo 78489">
        <circle id="Elipse_4758" data-name="Elipse 4758" cx="20.025" cy="20.025" r="20.025" transform="translate(4.975 4.975)" fill="#f85316" opacity="0.18" style="isolation: isolate"/>
        <circle id="Elipse_4759" data-name="Elipse 4759" cx="25" cy="25" r="25" fill="#f85316" opacity="0.154" style="isolation: isolate"/>
      </g>
      <path id="Elipse_4753" data-name="Elipse 4753" d="M15.05,0A15.05,15.05,0,1,1,0,15.05,15.05,15.05,0,0,1,15.05,0Z" transform="translate(9.95 9.95)" fill="#f85316"/>
      <path id="Trazado_146139" data-name="Trazado 146139" d="M44.521,63.923h3.812v2.669H44.521V70.97H41.6V66.592H37.766V63.923H41.6V59.749h2.921Z" transform="translate(-18.181 -40.183)" fill="#fff"/>
    </g>
    <g id="Grupo_108268-2" data-name="Grupo 108268" transform="translate(925 4335)">
      <g id="Grupo_78489-2" data-name="Grupo 78489">
        <circle id="Elipse_4758-2" data-name="Elipse 4758" cx="20.025" cy="20.025" r="20.025" transform="translate(4.975 4.975)" fill="#f85316" opacity="0.18" style="isolation: isolate"/>
        <circle id="Elipse_4759-2" data-name="Elipse 4759" cx="25" cy="25" r="25" fill="#f85316" opacity="0.154" style="isolation: isolate"/>
      </g>
      <path id="Elipse_4753-2" data-name="Elipse 4753" d="M15.05,0A15.05,15.05,0,1,1,0,15.05,15.05,15.05,0,0,1,15.05,0Z" transform="translate(9.95 9.95)" fill="#f85316"/>
      <path id="Trazado_146139-2" data-name="Trazado 146139" d="M44.521,63.923h3.812v2.669H44.521V70.97H41.6V66.592H37.766V63.923H41.6V59.749h2.921Z" transform="translate(-18.181 -40.183)" fill="#fff"/>
    </g>
    <g id="Grupo_108268-3" data-name="Grupo 108268" transform="translate(620 4328)">
      <g id="Grupo_78489-3" data-name="Grupo 78489">
        <circle id="Elipse_4758-3" data-name="Elipse 4758" cx="20.025" cy="20.025" r="20.025" transform="translate(4.975 4.975)" fill="#f85316" opacity="0.18" style="isolation: isolate"/>
        <circle id="Elipse_4759-3" data-name="Elipse 4759" cx="25" cy="25" r="25" fill="#f85316" opacity="0.154" style="isolation: isolate"/>
      </g>
      <path id="Elipse_4753-3" data-name="Elipse 4753" d="M15.05,0A15.05,15.05,0,1,1,0,15.05,15.05,15.05,0,0,1,15.05,0Z" transform="translate(9.95 9.95)" fill="#f85316"/>
      <path id="Trazado_146139-3" data-name="Trazado 146139" d="M44.521,63.923h3.812v2.669H44.521V70.97H41.6V66.592H37.766V63.923H41.6V59.749h2.921Z" transform="translate(-18.181 -40.183)" fill="#fff"/>
    </g>
    <g id="Grupo_108268-4" data-name="Grupo 108268" transform="translate(616 4052.22)">
      <g id="Grupo_78489-4" data-name="Grupo 78489">
        <circle id="Elipse_4758-4" data-name="Elipse 4758" cx="20.025" cy="20.025" r="20.025" transform="translate(4.975 4.975)" fill="#f85316" opacity="0.18" style="isolation: isolate"/>
        <circle id="Elipse_4759-4" data-name="Elipse 4759" cx="25" cy="25" r="25" fill="#f85316" opacity="0.154" style="isolation: isolate"/>
      </g>
      <path id="Elipse_4753-4" data-name="Elipse 4753" d="M15.05,0A15.05,15.05,0,1,1,0,15.05,15.05,15.05,0,0,1,15.05,0Z" transform="translate(9.95 9.95)" fill="#f85316"/>
      <path id="Trazado_146139-4" data-name="Trazado 146139" d="M44.521,63.923h3.812v2.669H44.521V70.97H41.6V66.592H37.766V63.923H41.6V59.749h2.921Z" transform="translate(-18.181 -40.183)" fill="#fff"/>
    </g>
    <text id="Planeaci贸n" transform="translate(650 4033)" fill="#12263f" font-size="20" font-family="Roboto-Bold, Roboto" font-weight="700"><tspan x="-49.951" y="0">Planeaci贸n</tspan></text>
    <text id="Testeo_o_pruebas" data-name="Testeo o pruebas" transform="translate(933 4037)" fill="#fff" font-size="20" font-family="Roboto-Bold, Roboto" font-weight="700"><tspan x="-78.218" y="0">Testeo o pruebas</tspan></text>
    <text id="Evaluaci贸n" transform="translate(645 4306)" fill="#12263f" font-size="20" font-family="Roboto-Bold, Roboto" font-weight="700"><tspan x="-48.569" y="0">Evaluaci贸n</tspan></text>
    <text id="Transferencia_documental_digital" data-name="Transferencia
documental digital" transform="translate(966 4292)" fill="#12263f" font-size="20" font-family="Roboto-Bold, Roboto" font-weight="700"><tspan x="-62.344" y="0">Transferencia</tspan><tspan x="-83.682" y="20">documental digital</tspan></text>
  </g>
</svg>
